<svg width="1000" height="1000" viewBox="0 0 1000 1000" fill="none" xmlns="http://www.w3.org/2000/svg">
<path opacity="0.47" d="M926.755 705.662C926.755 705.662 631.108 1002.47 166.95 821.569C-132.797 675.801 58.3666 401.862 232.072 437.526C405.777 473.191 318.913 199.252 473.974 144.459C629.035 89.6668 791.34 189.947 756.228 330.533C721.116 471.118 930.693 430.905 970.999 517.642C1029.15 617.911 926.755 705.662 926.755 705.662Z" fill="#FC9822"/>
<path d="M97.7969 158.635H555.725V499.585H97.7969L97.7969 158.635Z" fill="#FC5480" stroke="#1E1E1E" stroke-width="1.24"/>
<path opacity="0.52" d="M555.725 499.585V183.314C552.512 173.813 549.403 165.499 546.42 158.635H527.995C532.141 206.645 541.814 335.346 533.753 409.681C525.07 461.744 475.736 398.165 471.164 442.778C475.149 501.727 97.7969 485.605 97.7969 485.605V499.574L555.725 499.585Z" fill="#A997FF"/>
<path d="M97.7969 158.635H555.725V183.602H97.7969L97.7969 158.635Z" fill="white" stroke="#1E1E1E" stroke-width="1.24"/>
<path d="M173.594 209.397H461.122V404.246H173.594V209.397Z" fill="#A997FF"/>
<path opacity="0.52" d="M461.122 215.293C460.785 213.197 460.428 211.232 460.051 209.397H433.565V282.373C433.565 282.373 433.323 293.21 444.62 293.567C455.906 294.396 437.146 392.039 374.005 389.574C310.863 387.11 270.097 385.221 269.798 391.878C269.591 396.645 208.925 393.352 173.64 396.484V404.177H461.122V215.293Z" fill="#B21857"/>
<path fill-rule="evenodd" clip-rule="evenodd" d="M173.594 209.397H461.122V404.246H173.594V209.397Z" stroke="#1E1E1E"/>
<path d="M306.43 222.594H435.177" stroke="white"/>
<path d="M306.43 248.977H435.177" stroke="white"/>
<path d="M435.177 275.372H306.43" stroke="white"/>
<path d="M306.43 301.766H435.177" stroke="white"/>
<path d="M306.43 328.16H435.177" stroke="white"/>
<path d="M306.43 354.543H435.177" stroke="white"/>
<path d="M306.43 380.938H435.177" stroke="white"/>
<path opacity="0.51" d="M187.598 222.594H294.707V336.958H187.598L187.598 222.594Z" fill="white"/>
<path fill-rule="evenodd" clip-rule="evenodd" d="M182.623 219.082H289.732V333.446H182.623L182.623 219.082Z" stroke="white" stroke-width="1.24" stroke-linecap="round"/>
<path opacity="0.51" d="M187.598 347.058H294.707V380.822H187.598L187.598 347.058Z" fill="white"/>
<path fill-rule="evenodd" clip-rule="evenodd" d="M182.623 342.774H289.732V376.538H182.623L182.623 342.774Z" stroke="white" stroke-width="1.24" stroke-linecap="round"/>
<path d="M297.574 306.407L297.332 283.214L297.079 260.009L146.221 255.737C123.27 255.081 104.142 268.566 104.315 285.275C104.499 301.973 123.892 315.055 146.843 313.904L297.574 306.407Z" fill="#F9DD12"/>
<path opacity="0.57" d="M186.435 298.795C142.778 314.295 106.088 293.59 106.054 293.567C111.328 306.073 127.934 314.848 146.831 313.904L163.979 313.051C185.502 306.027 200.3 296.538 186.435 298.795Z" fill="#F78B14"/>
<path opacity="0.57" d="M244.198 299.325C232.429 299.647 243.979 261.08 248.482 258.605L239.477 258.374C227.8 269.395 210.365 293.67 212.645 310.633L302.906 306.188C286.461 289.168 255.357 299.048 244.198 299.325Z" fill="#F78B14"/>
<path fill-rule="evenodd" clip-rule="evenodd" d="M297.574 306.407L297.332 283.214L297.079 260.009L146.221 255.737C123.27 255.081 104.142 268.566 104.315 285.275C104.499 301.973 123.892 315.055 146.843 313.904L297.574 306.407Z" stroke="#1E1E1E" stroke-width="1.24"/>
<path d="M289.743 272.999L287.901 276.27L289.743 272.999Z" fill="white"/>
<path d="M289.743 272.999L287.901 276.27" stroke="#1E1E1E" stroke-width="1.24" stroke-linecap="round"/>
<path d="M293.141 298.945L306.591 321.688C309.153 326.021 313.834 328.656 318.867 328.598L355.269 328.206C360.304 328.159 364.929 325.422 367.395 321.032L376.089 305.612C376.793 304.361 376.775 302.83 376.044 301.595C375.312 300.36 373.978 299.608 372.542 299.624L337.569 300.004L330.82 286.807C329.548 284.331 329.514 281.4 330.728 278.895L337.2 265.56L372.185 265.192C373.626 265.188 374.954 264.415 375.668 263.164C376.381 261.913 376.371 260.375 375.64 259.134L366.623 243.899C364.051 239.571 359.37 236.939 354.336 236.989L317.934 237.381C312.902 237.438 308.281 240.172 305.808 244.555L292.323 268.508" fill="#F9DD12"/>
<path opacity="0.57" d="M355.269 328.206C360.304 328.159 364.929 325.422 367.395 321.032L376.089 305.612C376.793 304.361 376.775 302.83 376.044 301.595C375.312 300.36 373.978 299.609 372.542 299.624L355.568 299.808C355.584 299.9 355.611 299.988 355.649 300.073C355.649 300.073 365.518 301.409 363.963 309.493C362.408 317.577 362.305 320.664 340.551 320.905C302.549 322.149 295.639 294.2 293.152 299.025L306.591 321.735C309.153 326.067 313.834 328.702 318.867 328.644L355.269 328.206Z" fill="#F78B14"/>
<path opacity="0.57" d="M330.728 278.895L337.2 265.56L372.174 265.192C373.614 265.188 374.942 264.415 375.656 263.164C376.37 261.913 376.359 260.375 375.629 259.134L366.612 243.899C364.039 239.571 359.359 236.939 354.324 236.989L340.148 237.139C343.522 237.991 359.403 242.517 359.725 253.031C359.979 261.368 338.916 250.889 332.018 261.472C325.12 272.055 322.161 278.239 324.418 283.352C326.675 288.465 334.379 301.11 337.603 300.016L330.855 286.818C329.568 284.345 329.521 281.409 330.728 278.895Z" fill="#F78B14"/>
<path d="M293.141 298.945L306.591 321.688C309.153 326.021 313.834 328.656 318.867 328.598L355.269 328.206C360.304 328.159 364.929 325.422 367.395 321.032L376.089 305.612C376.793 304.361 376.775 302.83 376.044 301.595C375.312 300.36 373.978 299.608 372.542 299.624L337.569 300.004L330.82 286.807C329.548 284.331 329.514 281.4 330.728 278.895L337.2 265.56L372.185 265.192C373.626 265.188 374.954 264.415 375.668 263.164C376.381 261.913 376.371 260.375 375.64 259.134L366.623 243.899C364.051 239.571 359.37 236.939 354.336 236.989L317.934 237.381C312.902 237.438 308.281 240.172 305.808 244.555L292.323 268.508" stroke="#1E1E1E" stroke-width="1.24" stroke-linecap="round"/>
<path d="M195.751 468.055C236.455 468.055 269.452 465.121 269.452 461.502C269.452 457.884 236.455 454.95 195.751 454.95C155.047 454.95 122.049 457.884 122.049 461.502C122.049 465.121 155.047 468.055 195.751 468.055Z" fill="#1E1E1E" stroke="#1E1E1E" stroke-width="1.24" stroke-linecap="round"/>
<path d="M233.316 309.85C233.316 309.85 271.122 294.269 277.894 303.839C284.665 313.409 234.744 330.533 247.952 460.708C230.828 462.493 144.171 460.708 144.171 460.708C149.515 454.95 168.539 369.514 154.87 337.304C136.859 294.868 142.628 245.891 168.781 251.004C179.836 239.592 192.319 235.308 196.949 246.006C204.802 240.663 219.301 236.137 222.514 246.49C231.784 240.732 243.91 241.492 246.409 250.405C248.908 259.319 229.043 261.345 233.316 309.85Z" fill="#72CEFC"/>
<path opacity="0.52" d="M175.932 244.762C176.702 244.892 177.492 244.737 178.155 244.325C183.153 241.48 189.371 242.321 186.722 247.008C180.803 257.464 181.333 276.592 187.045 275.878C188.116 275.256 187.759 272.424 187.759 272.424C186.658 262.682 190.048 252.969 196.972 246.029C196.833 245.695 196.672 245.384 196.511 245.073C192.607 237.669 184.431 238.705 175.932 244.762H175.932Z" fill="#35A5F9"/>
<path opacity="0.52" d="M224.644 299.624C225.231 326.732 241.526 326.755 239.258 323.877C236.199 319.735 234.163 314.929 233.316 309.85C229.043 261.345 248.897 259.319 246.398 250.405C244.405 243.323 236.344 241.434 228.456 243.818C233.143 244.21 239.972 245.903 238.671 252.547C236.77 262.531 224.045 272.562 224.644 299.624Z" fill="#35A5F9"/>
<path opacity="0.52" d="M157.737 252.501C159.43 253.653 161.929 254.804 160.915 256.532C159.05 259.745 160.063 274.543 162.539 274.186C162.805 273.197 162.948 272.18 162.965 271.157C161.549 257.418 168.723 251.004 168.723 251.004C165 250.169 161.101 250.7 157.737 252.501H157.737Z" fill="#35A5F9"/>
<path opacity="0.52" d="M214.418 272.401C213.366 263.017 216.29 253.621 222.479 246.49C220.176 239.005 211.942 239.292 204.595 242.056C207.889 243.369 211.505 245.108 210.111 248.505C207.082 256.175 207.152 272.228 214.153 274.635C214.775 274.865 214.418 272.401 214.418 272.401Z" fill="#35A5F9"/>
<path opacity="0.52" d="M247.227 350.674C230.103 395.448 240.697 426.828 214.176 428.982C187.655 431.135 214.775 450.378 190.523 451.806C169.794 453.015 150.724 449.376 145.542 460.743C156.689 460.961 232.095 462.366 247.941 460.743C235.273 336.268 280.416 315.171 278.469 305.186C271.951 308.676 259.238 319.259 247.227 350.674Z" fill="#35A5F9"/>
<path fill-rule="evenodd" clip-rule="evenodd" d="M233.316 309.85C233.316 309.85 271.122 294.269 277.894 303.839C284.665 313.409 234.744 330.533 247.952 460.708C230.828 462.493 144.171 460.708 144.171 460.708C149.515 454.95 168.539 369.514 154.87 337.304C136.859 294.868 142.628 245.891 168.781 251.004C179.836 239.592 192.319 235.308 196.949 246.006C204.802 240.663 219.301 236.137 222.514 246.49C231.784 240.732 243.91 241.492 246.409 250.405C248.908 259.319 229.043 261.345 233.316 309.85Z" stroke="#1E1E1E" stroke-width="1.24"/>
<path d="M168.769 251.004C168.769 251.004 161.549 257.418 163.011 271.157" stroke="#1E1E1E" stroke-width="1.24" stroke-linecap="round"/>
<path d="M196.937 246.006C190.013 252.946 186.623 262.659 187.724 272.401" stroke="#1E1E1E" stroke-width="1.24" stroke-linecap="round"/>
<path d="M222.502 246.49C216.313 253.621 213.389 263.017 214.441 272.401" stroke="#1E1E1E" stroke-width="1.24" stroke-linecap="round"/>
<path d="M338.882 456.182V542.494" stroke="#1E1E1E" stroke-width="1.24" stroke-linecap="round"/>
<path d="M280.749 426.471H365.633V464.278H280.749V426.471Z" fill="white" stroke="#1E1E1E" stroke-width="1.24"/>
<path d="M115.98 175.045C118.149 175.045 119.907 173.287 119.907 171.119C119.907 168.95 118.149 167.192 115.98 167.192C113.812 167.192 112.054 168.95 112.054 171.119C112.054 173.287 113.812 175.045 115.98 175.045Z" fill="#35A5F9" stroke="#1E1E1E" stroke-width="1.24" stroke-linecap="round"/>
<path d="M134.982 175.045C137.15 175.045 138.909 173.287 138.909 171.119C138.909 168.95 137.15 167.192 134.982 167.192C132.813 167.192 131.055 168.95 131.055 171.119C131.055 173.287 132.813 175.045 134.982 175.045Z" fill="#35A5F9" stroke="#1E1E1E" stroke-width="1.24" stroke-linecap="round"/>
<path d="M153.983 175.045C156.152 175.045 157.91 173.287 157.91 171.119C157.91 168.95 156.152 167.192 153.983 167.192C151.814 167.192 150.056 168.95 150.056 171.119C150.056 173.287 151.814 175.045 153.983 175.045Z" fill="#35A5F9" stroke="#1E1E1E" stroke-width="1.24" stroke-linecap="round"/>
<path opacity="0.65" d="M134.982 244.659C145.476 244.659 153.983 236.152 153.983 225.658C153.983 215.164 145.476 206.656 134.982 206.656C124.488 206.656 115.98 215.164 115.98 225.658C115.98 236.152 124.488 244.659 134.982 244.659Z" fill="white"/>
<path fill-rule="evenodd" clip-rule="evenodd" d="M131.066 238.383C141.56 238.383 150.067 229.876 150.067 219.382C150.067 208.887 141.56 200.38 131.066 200.38C120.572 200.38 112.065 208.887 112.065 219.382C112.065 229.876 120.572 238.383 131.066 238.383Z" stroke="#1E1E1E" stroke-width="1.24" stroke-linecap="round"/>
<path d="M517.688 171.119H537.645H517.688Z" fill="white"/>
<path d="M517.688 171.119H537.645" stroke="#1E1E1E" stroke-width="1.24" stroke-linecap="round"/>
<path d="M221.247 552.489H360.336V631.661H221.247L221.247 552.489Z" fill="#1E1E1E" stroke="#1E1E1E" stroke-width="1.24"/>
<path d="M213.762 542.494H352.85V621.665H213.762L213.762 542.494Z" fill="#F97AA1"/>
<path opacity="0.52" d="M214.671 621.677H352.862V542.494H310.829C309.873 548.482 310.518 555.691 319.155 555.691C333.895 555.691 343.638 574.243 334.609 578.285C325.581 582.327 343.638 610.622 320.571 613.236C297.505 615.85 217.504 608.48 213.762 617.278V620.433C213.992 620.897 214.299 621.317 214.671 621.677Z" fill="#A997FF"/>
<path fill-rule="evenodd" clip-rule="evenodd" d="M213.762 542.494H352.85V621.665H213.762L213.762 542.494Z" stroke="#1E1E1E" stroke-width="1.24"/>
<path d="M213.762 542.494H352.85V555.691H213.762L213.762 542.494Z" fill="white" stroke="#1E1E1E" stroke-width="1.24"/>
<path opacity="0.27" d="M352.85 542.494H310.829C309.873 548.482 310.518 555.691 319.155 555.691H352.85V542.494Z" fill="#35A5F9"/>
<path opacity="0.52" d="M245.511 607.109C255.318 607.109 263.268 599.159 263.268 589.352C263.268 579.545 255.318 571.594 245.511 571.594C235.704 571.594 227.753 579.545 227.753 589.352C227.753 599.159 235.704 607.109 245.511 607.109Z" fill="#A997FF"/>
<path d="M241.239 604.253C251.046 604.253 258.996 596.303 258.996 586.496C258.996 576.689 251.046 568.738 241.239 568.738C231.431 568.738 223.481 576.689 223.481 586.496C223.481 596.303 231.431 604.253 241.239 604.253Z" fill="white" stroke="#1E1E1E" stroke-width="1.24"/>
<path d="M269.752 572.965H303.044H269.752Z" fill="white"/>
<path d="M269.752 572.965H303.044" stroke="#1E1E1E" stroke-width="1.24" stroke-linecap="round"/>
<path d="M269.752 586.496H341.334H269.752Z" fill="white"/>
<path d="M269.752 586.496H341.334" stroke="#1E1E1E" stroke-width="1.24" stroke-linecap="round"/>
<path d="M269.752 600.038H341.334H269.752Z" fill="white"/>
<path d="M269.752 600.038H341.334" stroke="#1E1E1E" stroke-width="1.24" stroke-linecap="round"/>
<path d="M287.049 435.546H326.755" stroke="#1E1E1E" stroke-width="1.24" stroke-linecap="round"/>
<path d="M287.049 443.664H358.378" stroke="#1E1E1E" stroke-width="1.24" stroke-linecap="round"/>
<path d="M287.049 451.795H358.378" stroke="#1E1E1E" stroke-width="1.24" stroke-linecap="round"/>
<path d="M468.965 198.342L464.692 197.835C463.588 197.7 462.468 197.888 461.468 198.377L465.763 198.883C466.86 199.014 467.972 198.826 468.965 198.342Z" fill="#3E8FC6"/>
<path d="M461.468 150.344H683.068V301.766H461.468V150.344Z" fill="#1E1E1E" stroke="#1E1E1E" stroke-width="1.24"/>
<path d="M433.519 139.841H666.047V282.373H433.519V139.841Z" fill="#93DDF9"/>
<path opacity="0.5" d="M666.047 139.841H617.243C619.235 144.033 618.89 148.904 613.259 154.064C596.618 169.334 646.413 160.754 649.568 193.816C652.723 226.878 615.159 218.195 621.343 242.264C627.527 266.332 439.703 262.992 433.519 282.373H666.047V139.841Z" fill="#35A5F9"/>
<path fill-rule="evenodd" clip-rule="evenodd" d="M433.519 139.841H666.047V282.373H433.519V139.841Z" stroke="#1E1E1E" stroke-width="1.24"/>
<path d="M433.519 130.951H666.047V154.064H433.519V130.951Z" fill="white"/>
<path opacity="0.27" d="M613.259 154.064H666.047V130.917H608.952C616.103 136.03 623.634 144.551 613.259 154.064Z" fill="#35A5F9"/>
<path fill-rule="evenodd" clip-rule="evenodd" d="M433.519 130.951H666.047V154.064H433.519V130.951Z" stroke="#1E1E1E" stroke-width="1.24"/>
<path d="M451.081 146.429C453.249 146.429 455.008 144.67 455.008 142.502C455.008 140.333 453.249 138.575 451.081 138.575C448.912 138.575 447.154 140.333 447.154 142.502C447.154 144.67 448.912 146.429 451.081 146.429Z" fill="#F9DD12" stroke="#1E1E1E" stroke-width="1.24" stroke-linecap="round"/>
<path d="M470.082 146.429C472.251 146.429 474.009 144.67 474.009 142.502C474.009 140.333 472.251 138.575 470.082 138.575C467.913 138.575 466.155 140.333 466.155 142.502C466.155 144.67 467.913 146.429 470.082 146.429Z" fill="#F9DD12" stroke="#1E1E1E" stroke-width="1.24" stroke-linecap="round"/>
<path d="M489.083 146.429C491.252 146.429 493.01 144.67 493.01 142.502C493.01 140.333 491.252 138.575 489.083 138.575C486.914 138.575 485.156 140.333 485.156 142.502C485.156 144.67 486.914 146.429 489.083 146.429Z" fill="#F9DD12" stroke="#1E1E1E" stroke-width="1.24" stroke-linecap="round"/>
<path d="M472.373 247.227L466.212 249.76C467.857 250.961 470.008 251.219 471.89 250.44L478.039 247.918C476.395 246.73 474.255 246.469 472.373 247.227Z" fill="#E5396E"/>
<path d="M524.655 222.836C525.777 218.664 525.193 214.217 523.033 210.476C520.873 206.734 517.314 204.005 513.14 202.891C510.505 202.169 507.73 202.133 505.078 202.787C505.286 202.787 505.505 202.868 505.712 202.925C512.894 204.854 517.855 211.406 517.763 218.843C517.67 226.279 512.548 232.706 505.32 234.456C513.84 236.403 522.376 231.273 524.655 222.836Z" fill="#E5396E"/>
<path d="M506.725 255.795L505.447 255.956C503.326 256.15 501.474 257.469 500.599 259.411L497.144 267.276C496.685 268.323 495.933 269.215 494.979 269.844L497.674 270.57C500.484 271.33 503.426 269.913 504.583 267.241L508.038 259.376C508.56 258.164 509.483 257.168 510.652 256.555C509.47 255.856 508.083 255.588 506.725 255.795Z" fill="#E5396E"/>
<path d="M531.761 240.813C531.3 241.446 530.828 242.045 530.344 242.632C528.968 244.256 528.572 246.496 529.308 248.494L532.36 256.555C533.397 259.276 532.279 262.347 529.734 263.764L525.98 265.848C527.827 267.308 530.372 267.512 532.429 266.366L537.173 263.729C539.718 262.312 540.836 259.242 539.799 256.52L536.747 248.459C536.009 246.461 536.405 244.221 537.784 242.597C538.267 242.01 538.739 241.446 539.2 240.778C539.8 239.968 540.592 239.319 541.503 238.889L537.254 238.394C535.12 238.143 533.017 239.069 531.761 240.813Z" fill="#E5396E"/>
<path d="M490.73 179.283C492.041 180.975 494.163 181.829 496.28 181.517L497.547 181.356C498.329 181.28 499.089 181.049 499.781 180.677C499.159 180.306 498.612 179.822 498.169 179.249L492.964 172.374C491.187 170.066 487.99 169.405 485.444 170.819L484.454 171.372C484.857 171.67 485.218 172.023 485.525 172.42L490.73 179.283Z" fill="#E5396E"/>
<path d="M522.26 174.389L521.304 182.899C521.062 185.028 521.992 187.122 523.734 188.369C524.08 188.623 524.414 188.887 524.748 189.152C526.419 190.489 528.683 190.82 530.667 190.016L532.44 189.279C532.36 189.279 532.267 189.175 532.187 189.106C531.853 188.853 531.519 188.588 531.162 188.335C529.426 187.083 528.502 184.991 528.744 182.865L529.745 174.354C530.092 171.463 528.262 168.755 525.45 167.998L520.153 166.616C518.534 166.18 516.806 166.461 515.408 167.387L517.953 168.078C520.754 168.824 522.586 171.509 522.26 174.389Z" fill="#E5396E"/>
<path d="M557.625 222.917L549.76 219.462C547.82 218.579 546.502 216.725 546.305 214.602C546.221 213.835 546.117 213.067 545.994 212.299C545.62 210.202 546.408 208.065 548.056 206.714L554.735 201.302C556.993 199.47 557.566 196.259 556.082 193.759L553.318 189.083C551.83 186.582 548.733 185.548 546.04 186.653L544.278 187.379C544.928 187.84 545.474 188.432 545.879 189.118L548.643 193.793C550.128 196.297 549.555 199.512 547.296 201.348L540.616 206.76C538.971 208.108 538.182 210.24 538.555 212.334C538.682 213.094 538.785 213.854 538.866 214.637C539.031 216.793 540.354 218.69 542.321 219.589L550.186 223.044C552.857 224.201 554.275 227.143 553.514 229.953L552.098 235.193C551.65 236.844 550.507 238.218 548.965 238.959L553.18 239.454C556.072 239.8 558.779 237.971 559.537 235.158L560.953 229.919C561.766 227.08 560.34 224.079 557.625 222.917Z" fill="#E5396E"/>
<path d="M502.487 242.528C491.241 239.449 483.663 228.945 484.286 217.301C484.91 205.657 493.567 196.023 505.078 194.162C495.442 192.767 485.881 197.147 480.645 205.357C475.409 213.566 475.468 224.082 480.797 232.232C486.125 240.382 495.734 244.654 505.355 243.15C504.388 242.999 503.43 242.791 502.487 242.528Z" fill="#FC5480"/>
<path d="M517.216 222.882C518.338 218.709 517.755 214.26 515.595 210.517C513.435 206.774 509.875 204.043 505.7 202.925C505.493 202.925 505.274 202.833 505.067 202.787C497.838 204.534 492.714 210.96 492.619 218.396C492.523 225.832 497.482 232.387 504.664 234.318L505.309 234.456C511.092 233.059 515.656 228.624 517.216 222.882Z" fill="#FC5480"/>
<path fill-rule="evenodd" clip-rule="evenodd" d="M553.549 229.861L552.098 235.101C551.675 236.745 550.562 238.126 549.046 238.889L544.751 238.371C543.658 238.251 542.553 238.439 541.561 238.912L537.311 238.417C535.185 238.175 533.093 239.1 531.841 240.836C531.414 241.456 530.976 241.986 530.529 242.529C530.494 242.571 530.46 242.613 530.425 242.655C529.048 244.279 528.652 246.519 529.388 248.517L532.44 256.578C533.478 259.299 532.359 262.37 529.815 263.787L526.06 265.871C525.666 265.571 525.31 265.223 525.001 264.835L519.796 258.04C518.484 256.348 516.363 255.495 514.245 255.806C514.129 255.822 514.013 255.84 513.896 255.859C513.587 255.907 513.277 255.956 512.967 255.956C512.185 256.042 511.427 256.276 510.733 256.647C509.556 255.932 508.169 255.647 506.806 255.841L505.528 256.002C503.407 256.196 501.555 257.516 500.679 259.457L497.225 267.322C496.766 268.369 496.014 269.261 495.06 269.89L492.503 269.199C489.694 268.437 487.867 265.733 488.208 262.842L489.221 254.332C489.463 252.203 488.533 250.11 486.791 248.862C486.446 248.609 486.1 248.355 485.766 248.091C484.095 246.754 481.831 246.423 479.847 247.227L477.993 247.964C476.348 246.776 474.209 246.515 472.327 247.273L466.166 249.806C465.525 249.335 464.985 248.74 464.577 248.056L461.802 243.45C460.314 240.944 460.893 237.726 463.161 235.895L469.84 230.483C471.481 229.127 472.269 226.995 471.901 224.898C471.763 224.126 471.659 223.355 471.579 222.595C471.385 220.474 470.065 218.622 468.124 217.746L460.259 214.292C457.588 213.134 456.17 210.192 456.931 207.382L458.29 202.131C458.734 200.481 459.879 199.11 461.422 198.377L465.763 198.895C466.86 199.025 467.972 198.837 468.965 198.354L473.203 198.86C475.324 199.105 477.414 198.19 478.673 196.465C479.133 195.797 479.605 195.233 480.101 194.646C481.475 193.02 481.867 190.78 481.125 188.784L478.074 180.723C477.043 178.005 478.16 174.941 480.699 173.525L484.454 171.441C484.857 171.739 485.218 172.092 485.525 172.489L490.73 179.283C492.038 180.943 494.131 181.781 496.223 181.483L497.49 181.322C498.272 181.245 499.031 181.014 499.724 180.642C500.906 181.353 502.297 181.633 503.662 181.437L504.929 181.287C507.066 181.084 508.925 179.74 509.788 177.775L513.243 169.921C513.714 168.864 514.487 167.97 515.466 167.353L518.011 168.044C520.821 168.796 522.652 171.5 522.306 174.389L521.304 182.899C521.081 185.007 522.004 187.072 523.723 188.312C524.068 188.565 524.402 188.83 524.736 189.095L524.736 189.095C526.408 190.432 528.671 190.762 530.655 189.959L532.429 189.222C534.071 190.416 536.213 190.677 538.094 189.912L544.255 187.391C544.905 187.851 545.451 188.444 545.856 189.129L548.62 193.805C550.105 196.309 549.532 199.523 547.273 201.359L540.593 206.772C538.948 208.119 538.159 210.251 538.532 212.345C538.659 213.117 538.762 213.877 538.843 214.649C539.055 216.779 540.397 218.632 542.355 219.497L550.221 222.951C552.892 224.109 554.309 227.051 553.549 229.861ZM505.309 243.116C517.729 244.933 529.546 237.177 532.82 225.059C535.006 216.953 532.939 208.291 527.328 202.045C521.717 195.8 513.326 192.819 505.032 194.127C495.396 192.732 485.835 197.112 480.599 205.322C475.363 213.532 475.422 224.047 480.751 232.197C486.079 240.347 495.688 244.62 505.309 243.116Z" fill="#FC5480"/>
<path fill-rule="evenodd" clip-rule="evenodd" d="M508.936 234.87C517.923 234.87 525.208 227.585 525.208 218.598C525.208 209.612 517.923 202.326 508.936 202.326C499.95 202.326 492.664 209.612 492.664 218.598C492.664 227.585 499.95 234.87 508.936 234.87Z" stroke="#231F20"/>
<path d="M509.788 177.775L509.331 177.573L509.331 177.574L509.788 177.775ZM504.929 181.287L504.881 180.789L504.87 180.79L504.929 181.287ZM503.662 181.437L503.603 180.94L503.596 180.941L503.589 180.942L503.662 181.437ZM498.111 179.214L497.712 179.515L497.717 179.521L498.111 179.214ZM492.964 172.374L493.363 172.073L493.36 172.069L492.964 172.374ZM485.444 170.819L485.201 170.382L485.196 170.385L485.444 170.819ZM480.699 173.525L480.943 173.962L480.947 173.96L480.699 173.525ZM478.074 180.723L478.541 180.546L478.541 180.545L478.074 180.723ZM481.125 188.784L481.594 188.61L481.593 188.607L481.125 188.784ZM480.101 194.645L479.719 194.323L479.718 194.323L480.101 194.645ZM478.673 196.465L479.077 196.76L479.084 196.749L478.673 196.465ZM473.203 198.86L473.143 199.357L473.145 199.357L473.203 198.86ZM464.692 197.847L464.633 198.343L464.633 198.343L464.692 197.847ZM458.336 202.142L458.818 202.272L458.818 202.272L458.336 202.142ZM456.919 207.393L456.436 207.263L456.436 207.265L456.919 207.393ZM460.259 214.303L460.46 213.845L460.458 213.844L460.259 214.303ZM468.124 217.758L468.33 217.302L468.325 217.3L468.124 217.758ZM471.579 222.606L471.081 222.651L471.082 222.659L471.579 222.606ZM471.901 224.909L472.394 224.823L472.393 224.821L471.901 224.909ZM469.84 230.494L470.155 230.883L470.158 230.88L469.84 230.494ZM463.161 235.907L463.475 236.296L463.476 236.295L463.161 235.907ZM461.802 243.461L461.372 243.716L461.374 243.719L461.802 243.461ZM464.577 248.068L465.008 247.814L465.005 247.809L464.577 248.068ZM471.844 250.497L471.655 250.035L471.652 250.035L471.844 250.497ZM479.847 247.227L479.66 246.763L479.658 246.764L479.847 247.227ZM485.766 248.091L485.454 248.481L485.456 248.482L485.766 248.091ZM486.791 248.862L486.496 249.265L486.5 249.269L486.791 248.862ZM489.221 254.332L489.718 254.391L489.718 254.389L489.221 254.332ZM488.208 262.842L487.711 262.783L487.711 262.784L488.208 262.842ZM492.503 269.199L492.372 269.682L492.373 269.682L492.503 269.199ZM497.754 270.616L497.885 270.133L497.885 270.133L497.754 270.616ZM504.664 267.287L504.206 267.086L504.205 267.089L504.664 267.287ZM508.119 259.422L507.664 259.215L507.661 259.221L508.119 259.422ZM512.967 255.967V255.467H512.943L512.92 255.47L512.967 255.967ZM514.245 255.818L514.312 256.313L514.318 256.312L514.245 255.818ZM519.796 258.052L520.193 257.748L520.191 257.745L519.796 258.052ZM525.001 264.846L525.398 264.542L525.398 264.542L525.001 264.846ZM532.509 266.401L532.266 265.964L532.266 265.964L532.509 266.401ZM537.254 263.764L537.497 264.201L537.497 264.2L537.254 263.764ZM539.879 256.555L539.412 256.732L539.412 256.733L539.879 256.555ZM536.828 248.494L536.359 248.667L536.36 248.671L536.828 248.494ZM537.864 242.632L538.245 242.956L538.25 242.95L537.864 242.632ZM539.281 240.813L538.875 240.52L538.869 240.529L539.281 240.813ZM544.751 238.383L544.81 237.886L544.806 237.886L544.751 238.383ZM553.261 239.396L553.32 238.9L553.32 238.9L553.261 239.396ZM559.618 235.101L559.135 234.97L559.135 234.971L559.618 235.101ZM561.034 229.861L560.551 229.73L560.551 229.73L561.034 229.861ZM557.706 222.951L557.505 223.409L557.507 223.41L557.706 222.951ZM549.841 219.497L549.633 219.952L549.64 219.954L549.841 219.497ZM546.386 214.637L546.884 214.591L546.883 214.582L546.386 214.637ZM546.075 212.334L546.569 212.255L546.567 212.246L546.075 212.334ZM548.136 206.749L547.821 206.36L547.819 206.362L548.136 206.749ZM554.815 201.336L555.13 201.725L555.131 201.724L554.815 201.336ZM556.163 193.793L555.732 194.048L555.733 194.048L556.163 193.793ZM553.399 189.118L553.829 188.863L553.829 188.862L553.399 189.118ZM546.121 186.688L546.311 187.151L546.311 187.15L546.121 186.688ZM538.198 189.935L538.386 190.399L538.388 190.398L538.198 189.935ZM532.279 189.072L532.591 188.681L532.581 188.673L532.279 189.072ZM531.254 188.3L530.962 188.706L530.965 188.708L531.254 188.3ZM528.836 182.83L528.339 182.772L528.339 182.774L528.836 182.83ZM529.838 174.32L529.341 174.26L529.341 174.261L529.838 174.32ZM525.542 167.963L525.672 167.48L525.663 167.478L525.542 167.963ZM520.153 166.616L520.022 167.099L520.031 167.101L520.153 166.616ZM515.351 194.68L515.481 194.197L515.481 194.197L515.351 194.68ZM512.786 169.72L509.331 177.573L510.246 177.976L513.701 170.122L512.786 169.72ZM509.331 177.574C508.54 179.373 506.838 180.603 504.881 180.789L504.976 181.785C507.294 181.565 509.31 180.107 510.246 177.976L509.331 177.574ZM504.87 180.79L503.603 180.94L503.721 181.933L504.987 181.784L504.87 180.79ZM503.589 180.942C501.651 181.23 499.709 180.452 498.506 178.907L497.717 179.521C499.142 181.351 501.441 182.272 503.735 181.931L503.589 180.942ZM498.511 178.914L493.363 172.073L492.564 172.674L497.712 179.515L498.511 178.914ZM493.36 172.069C491.432 169.565 487.963 168.848 485.201 170.382L485.687 171.256C488.016 169.962 490.942 170.567 492.568 172.679L493.36 172.069ZM485.196 170.385L480.452 173.091L480.947 173.96L485.692 171.253L485.196 170.385ZM480.456 173.089C477.7 174.626 476.488 177.95 477.606 180.9L478.541 180.545C477.598 178.059 478.621 175.257 480.943 173.962L480.456 173.089ZM477.606 180.9L480.658 188.961L481.593 188.607L478.541 180.546L477.606 180.9ZM480.657 188.958C481.336 190.784 480.977 192.835 479.719 194.323L480.482 194.968C481.974 193.205 482.399 190.774 481.594 188.61L480.657 188.958ZM479.718 194.323C479.224 194.91 478.737 195.491 478.261 196.181L479.084 196.749C479.529 196.103 479.987 195.556 480.483 194.968L479.718 194.323ZM478.269 196.17C477.116 197.75 475.203 198.588 473.26 198.364L473.145 199.357C475.446 199.622 477.711 198.63 479.076 196.76L478.269 196.17ZM473.262 198.364L464.751 197.35L464.633 198.343L473.143 199.357L473.262 198.364ZM464.752 197.35C461.613 196.975 458.675 198.96 457.853 202.012L458.818 202.272C459.511 199.7 461.988 198.027 464.633 198.343L464.752 197.35ZM457.853 202.012L456.436 207.263L457.402 207.524L458.818 202.272L457.853 202.012ZM456.436 207.265C455.624 210.316 457.164 213.502 460.059 214.762L460.458 213.844C458.016 212.782 456.718 210.095 457.402 207.522L456.436 207.265ZM460.058 214.761L467.923 218.216L468.325 217.3L460.46 213.845L460.058 214.761ZM467.919 218.214C469.695 219.015 470.904 220.71 471.081 222.651L472.077 222.56C471.867 220.26 470.435 218.251 468.33 217.302L467.919 218.214ZM471.082 222.659C471.163 223.428 471.268 224.212 471.409 224.997L472.393 224.821C472.258 224.063 472.156 223.304 472.076 222.553L471.082 222.659ZM471.409 224.995C471.745 226.915 471.024 228.868 469.522 230.109L470.158 230.88C471.938 229.41 472.792 227.097 472.394 224.823L471.409 224.995ZM469.525 230.106L462.846 235.518L463.476 236.295L470.155 230.883L469.525 230.106ZM462.847 235.518C460.385 237.504 459.757 240.997 461.372 243.716L462.232 243.206C460.871 240.914 461.4 237.97 463.475 236.296L462.847 235.518ZM461.374 243.719L464.149 248.326L465.005 247.809L462.23 243.203L461.374 243.719ZM464.146 248.321C465.751 251.044 469.116 252.17 472.035 250.959L471.652 250.035C469.193 251.055 466.359 250.107 465.008 247.814L464.146 248.321ZM472.033 250.96L480.036 247.69L479.658 246.764L471.655 250.035L472.033 250.96ZM480.035 247.69C481.851 246.955 483.924 247.257 485.454 248.481L486.079 247.7C484.266 246.25 481.811 245.892 479.66 246.763L480.035 247.69ZM485.456 248.482C485.798 248.754 486.151 249.013 486.496 249.265L487.087 248.459C486.74 248.205 486.402 247.957 486.077 247.699L485.456 248.482ZM486.5 249.269C488.095 250.411 488.946 252.327 488.724 254.276L489.718 254.389C489.98 252.079 488.972 249.809 487.082 248.456L486.5 249.269ZM488.725 254.273L487.711 262.783L488.704 262.901L489.718 254.391L488.725 254.273ZM487.711 262.784C487.341 265.92 489.324 268.855 492.372 269.682L492.634 268.717C490.064 268.02 488.392 265.545 488.704 262.901L487.711 262.784ZM492.373 269.682L497.624 271.098L497.885 270.133L492.633 268.716L492.373 269.682ZM497.624 271.098C500.674 271.923 503.867 270.385 505.123 267.486L504.205 267.089C503.147 269.532 500.455 270.828 497.885 270.133L497.624 271.098ZM505.122 267.489L508.576 259.623L507.661 259.221L504.206 267.086L505.122 267.489ZM508.574 259.629C509.381 257.856 511.074 256.649 513.014 256.465L512.92 255.47C510.623 255.687 508.619 257.116 507.664 259.215L508.574 259.629ZM512.967 256.467C513.438 256.467 513.939 256.364 514.312 256.313L514.178 255.322C513.699 255.387 513.348 255.467 512.967 255.467V256.467ZM514.318 256.312C516.257 256.027 518.2 256.809 519.401 258.358L520.191 257.745C518.769 255.911 516.469 254.985 514.172 255.323L514.318 256.312ZM519.399 258.356L524.604 265.15L525.398 264.542L520.193 257.748L519.399 258.356ZM524.604 265.15C526.525 267.658 529.994 268.376 532.753 266.837L532.266 265.964C529.941 267.261 527.017 266.655 525.398 264.542L524.604 265.15ZM532.752 266.838L537.497 264.201L537.011 263.327L532.266 265.964L532.752 266.838ZM537.497 264.2C540.259 262.663 541.472 259.33 540.347 256.377L539.412 256.733C540.361 259.222 539.338 262.031 537.011 263.327L537.497 264.2ZM540.347 256.378L537.295 248.317L536.36 248.671L539.412 256.732L540.347 256.378ZM537.297 248.32C536.621 246.492 536.983 244.441 538.245 242.956L537.483 242.308C535.987 244.069 535.558 246.5 536.359 248.667L537.297 248.32ZM538.25 242.95C538.73 242.367 539.217 241.785 539.692 241.096L538.869 240.529C538.423 241.175 537.966 241.722 537.478 242.314L538.25 242.95ZM539.686 241.105C540.832 239.513 542.746 238.663 544.695 238.88L544.806 237.886C542.498 237.629 540.231 238.636 538.875 240.52L539.686 241.105ZM544.692 238.879L553.202 239.893L553.32 238.9L544.81 237.886L544.692 238.879ZM553.201 239.893C556.34 240.268 559.278 238.283 560.1 235.231L559.135 234.971C558.442 237.543 555.965 239.216 553.32 238.9L553.201 239.893ZM560.1 235.231L561.517 229.991L560.551 229.73L559.135 234.97L560.1 235.231ZM561.517 229.992C562.342 226.942 560.804 223.749 557.905 222.493L557.507 223.41C559.951 224.469 561.247 227.16 560.551 229.73L561.517 229.992ZM557.907 222.494L550.042 219.039L549.64 219.954L557.505 223.409L557.907 222.494ZM550.048 219.042C548.271 218.233 547.064 216.534 546.884 214.591L545.888 214.683C546.101 216.984 547.53 218.994 549.633 219.952L550.048 219.042ZM546.883 214.582C546.798 213.806 546.693 213.031 546.569 212.255L545.581 212.413C545.703 213.172 545.805 213.932 545.889 214.692L546.883 214.582ZM546.567 212.246C546.224 210.326 546.946 208.372 548.453 207.135L547.819 206.362C546.032 207.828 545.176 210.146 545.583 212.422L546.567 212.246ZM548.451 207.137L555.13 201.725L554.501 200.948L547.822 206.36L548.451 207.137ZM555.131 201.724C557.581 199.736 558.203 196.252 556.593 193.538L555.733 194.048C557.09 196.336 556.566 199.272 554.5 200.948L555.131 201.724ZM556.593 193.539L553.829 188.863L552.969 189.372L555.732 194.048L556.593 193.539ZM553.829 188.862C552.213 186.147 548.853 185.026 545.931 186.225L546.311 187.15C548.775 186.139 551.608 187.085 552.969 189.373L553.829 188.862ZM545.931 186.225L538.008 189.473L538.388 190.398L546.311 187.151L545.931 186.225ZM538.01 189.472C536.194 190.208 534.122 189.905 532.591 188.681L531.967 189.462C533.78 190.912 536.234 191.27 538.386 190.399L538.01 189.472ZM532.581 188.673C532.258 188.429 531.909 188.152 531.543 187.892L530.965 188.708C531.313 188.955 531.631 189.208 531.977 189.47L532.581 188.673ZM531.547 187.895C529.957 186.748 529.111 184.834 529.332 182.887L528.339 182.774C528.076 185.08 529.079 187.348 530.962 188.706L531.547 187.895ZM529.332 182.889L530.334 174.378L529.341 174.261L528.339 182.772L529.332 182.889ZM530.334 174.379C530.71 171.241 528.724 168.303 525.672 167.48L525.412 168.446C527.984 169.139 529.658 171.615 529.341 174.26L530.334 174.379ZM525.663 167.478L520.274 166.131L520.031 167.101L525.421 168.448L525.663 167.478ZM520.283 166.133C517.241 165.31 514.054 166.835 512.786 169.72L513.701 170.122C514.771 167.69 517.457 166.405 520.022 167.098L520.283 166.133ZM532.337 224.929C529.78 234.411 521.762 241.42 512.022 242.686L512.151 243.677C522.292 242.359 530.64 235.062 533.303 225.189L532.337 224.929ZM512.022 242.686C502.282 243.951 492.739 239.225 487.843 230.711L486.976 231.209C492.074 240.074 502.01 244.995 512.151 243.677L512.022 242.686ZM487.843 230.711C482.947 222.197 483.662 211.571 489.655 203.79L488.863 203.18C482.623 211.282 481.878 222.344 486.976 231.209L487.843 230.711ZM489.655 203.79C495.648 196.008 505.738 192.603 515.22 195.163L515.481 194.197C505.608 191.533 495.102 195.078 488.863 203.18L489.655 203.79ZM515.22 195.163C528.162 198.662 535.822 211.983 532.337 224.929L533.303 225.189C536.931 211.71 528.955 197.841 515.481 194.197L515.22 195.163Z" fill="#231F20"/>
<path d="M572.608 178.42H613.259" stroke="#1E1E1E" stroke-linecap="round"/>
<path d="M642.037 142.536H652.965" stroke="#1E1E1E" stroke-linecap="round"/>
<path d="M572.608 197.801H647.507" stroke="#1E1E1E" stroke-linecap="round"/>
<path d="M572.608 217.182H647.507" stroke="#1E1E1E" stroke-linecap="round"/>
<path d="M572.608 236.563H647.507" stroke="#1E1E1E" stroke-linecap="round"/>
<path d="M572.608 255.944H647.507" stroke="#1E1E1E" stroke-linecap="round"/>
<path d="M233.131 307.489C233.268 311.722 234.309 315.876 236.183 319.673" stroke="#1E1E1E" stroke-linecap="round"/>
<path d="M616.587 341.588C616.587 341.588 601.616 352.413 610.287 374.397C616.518 390.196 591.39 395.471 592.104 422.763C592.818 450.056 620.986 468.769 647.737 442.018C674.488 415.266 633.112 367.925 638.11 349.891C643.108 331.857 622.172 331.097 616.587 341.588Z" fill="#1E1E1E" stroke="#1E1E1E" stroke-linecap="round"/>
<path d="M390.599 507.9C390.599 507.9 372.888 511.182 374.016 518.264C375.145 525.347 404.741 530.678 405.34 518.264C405.938 505.85 390.599 507.9 390.599 507.9Z" fill="#1E1E1E" stroke="#1E1E1E"/>
<path d="M820.176 448.939C818.748 421.658 798.779 411.673 777.912 407.389C757.046 403.106 766.316 355.856 753.222 345.757L753.038 345.618C743.514 354.382 725.193 373.878 717.892 399.904L763.644 471.233C791.996 484.454 821.604 476.22 820.176 448.939Z" fill="#F7500F"/>
<path d="M754.547 436.548C754.547 436.548 755.111 403.67 746.946 404.131C737.204 404.672 746.889 435.385 735.235 437.527C723.58 439.668 754.547 436.548 754.547 436.548Z" fill="#1E1E1E"/>
<path opacity="0.61" d="M777.912 407.389C757.046 403.106 766.316 355.856 753.222 345.757L753.038 345.618C740.002 335.749 725.78 345.687 712.825 344.974C693.501 344.052 694.399 299.186 661.429 290.146C661.498 290.146 689.137 305.393 691.14 348.371C693.144 391.348 744.263 337.431 750.931 356.213C757.598 374.995 747.119 404.038 777.797 419.953C808.475 435.868 768.043 435.385 774.941 451.553C777.901 458.462 782.749 469.299 789.163 477.394C807.243 477.59 821.166 467.848 820.176 448.939C818.748 421.658 798.837 411.673 777.912 407.389Z" fill="#E0290B"/>
<path d="M442.202 512.276C421.301 487.16 435.292 442.179 457.829 428.97C473.514 420.587 466.915 414 464.738 415.232C462.562 416.464 455.457 417.374 440.659 417.201C426.16 417.028 371.564 433.323 383.989 520.682C403.783 524.634 424.334 521.666 442.202 512.276Z" fill="#F9DD12"/>
<path opacity="0.57" d="M384.035 520.682C402.69 524.388 422.043 521.965 439.208 513.773C439.507 512.299 439.761 510.802 439.956 509.282C430.099 494.933 430.11 475.402 435.845 458.762C435.845 458.29 435.845 457.852 435.845 457.495C435.914 455.998 436.893 454.213 438.494 452.244C443.158 442.075 450.01 433.588 457.863 428.97C473.548 420.587 466.949 414 464.773 415.232C465.602 420.529 459.89 426.114 438.459 432.793C384.427 443.434 415.669 504.341 401.885 507.785C393.57 509.858 387.502 515.961 384.001 520.452C384.003 520.53 384.015 520.607 384.035 520.682Z" fill="#F78B14"/>
<path fill-rule="evenodd" clip-rule="evenodd" d="M442.202 512.276C421.301 487.16 435.292 442.179 457.829 428.97C473.514 420.587 466.915 414 464.738 415.232C462.562 416.464 455.457 417.374 440.659 417.201C426.16 417.028 371.564 433.323 383.989 520.682C403.783 524.634 424.334 521.666 442.202 512.276V512.276Z" stroke="#1E1E1E" stroke-width="1.24"/>
<path d="M668.062 421.335C668.062 421.335 605.658 407.574 564.996 466.765C542.033 500.23 503.224 527.88 472.339 526.786C464.366 526.636 456.617 524.119 450.079 519.554C447.147 517.482 444.499 515.035 442.202 512.276C424.347 521.655 403.815 524.623 384.035 520.683C380.658 520.06 377.314 519.268 374.016 518.31C377.218 548.252 408.046 622.345 454.961 636.578C462.064 641.594 469.653 645.884 477.613 649.384C477.613 649.384 635.611 570.926 632.755 524.563C629.899 478.201 668.062 421.335 668.062 421.335Z" fill="#35A5F9"/>
<path opacity="0.66" d="M531.853 619.5C580.035 568.75 626.41 471.786 610.886 478.765C610.886 478.765 592.818 465.038 563.556 486.768C535.043 507.934 506.034 599.221 469.886 610.149C433.738 621.078 406.388 596.33 406.388 596.33C419.389 614.974 435.834 630.728 454.961 636.532C461.948 641.449 469.386 645.691 477.176 649.2L477.878 649.257C480.458 647.979 503.915 636.141 531.853 619.5Z" fill="#1788C1"/>
<path fill-rule="evenodd" clip-rule="evenodd" d="M668.062 421.335C668.062 421.335 605.658 407.574 564.996 466.765C542.033 500.23 503.224 527.88 472.339 526.786C464.366 526.636 456.617 524.119 450.079 519.554C447.147 517.482 444.499 515.035 442.202 512.276C424.347 521.655 403.815 524.623 384.035 520.683C380.658 520.06 377.314 519.268 374.016 518.31C377.218 548.252 408.046 622.345 454.961 636.578C462.064 641.594 469.653 645.884 477.613 649.384C477.613 649.384 635.611 570.926 632.755 524.563C629.899 478.201 668.062 421.335 668.062 421.335V421.335Z" stroke="#1E1E1E" stroke-width="1.24"/>
<path d="M698.384 821.27C694.33 822.854 690.189 824.208 685.981 825.323C736.847 851.326 775.448 861.863 783.935 849.507C790.683 839.66 777.026 817.262 749.733 789.313C734.787 803.111 717.364 813.954 698.384 821.27Z" fill="#1E1E1E" stroke="#1E1E1E" stroke-width="1.24"/>
<path d="M603.873 475.69C543.599 490.661 571.41 530.966 565.353 554.505C556.508 597.942 526.199 616.69 499.712 625.903C479.306 632.997 461.122 634.471 456.654 637.235C464.082 664.297 520.682 719.389 597.148 771.855C625.602 791.533 655.272 809.391 685.981 825.323C690.196 824.223 694.344 822.885 698.407 821.316C717.384 813.977 734.8 803.11 749.733 789.29C835.284 710.775 841.054 547.457 807.773 484.177C768.78 409.992 672.012 422.118 672.012 422.118" fill="#35A5F9"/>
<path opacity="0.66" d="M597.182 771.82C625.624 791.509 655.283 809.379 685.981 825.323C690.196 824.223 694.344 822.885 698.407 821.316C717.384 813.977 734.8 803.11 749.733 789.29C835.284 710.775 841.054 547.457 807.773 484.177C768.78 409.992 672.012 422.118 672.012 422.118L651.491 438.24C646.372 454.477 642.503 471.082 639.918 487.908C639.918 487.908 662.385 501.244 685.21 466.765C699.501 445.173 724.433 477.671 742.628 456.182C760.823 434.694 812.494 475.299 815.062 553.756C817.631 632.214 786.273 728.325 685.981 710.602C585.69 692.879 573.575 685.912 573.575 714.057C573.575 741.373 469.805 634.759 457.506 636.832C457.222 636.953 456.945 637.092 456.677 637.246C464.082 664.262 520.682 719.377 597.182 771.82Z" fill="#1788C1"/>
<path d="M623.312 347.472C623.312 347.472 600.13 413.631 639.918 417.017C636.878 436.099 623.508 481.747 642.762 487.989C662.017 494.231 692.879 418.445 691.129 414.161C689.378 409.877 688.826 342.129 670.262 334.817C651.698 327.504 629.369 330.533 623.312 347.472Z" fill="#F9DD12"/>
<path d="M603.873 475.69C543.599 490.661 571.41 530.966 565.353 554.505C556.508 597.942 526.199 616.69 499.712 625.903C479.306 632.997 461.122 634.471 456.654 637.235C464.082 664.297 520.682 719.389 597.148 771.855C625.602 791.533 655.272 809.391 685.981 825.323C690.196 824.223 694.344 822.885 698.407 821.316C717.384 813.977 734.8 803.11 749.733 789.29C835.284 710.775 841.054 547.457 807.773 484.177C768.78 409.992 672.012 422.118 672.012 422.118" stroke="#1E1E1E" stroke-width="1.24" stroke-linecap="round"/>
<path d="M623.312 347.472C623.312 347.472 600.13 413.631 639.918 417.017C636.878 436.099 623.508 481.747 642.762 487.989C662.017 494.231 692.879 418.445 691.129 414.161C689.378 409.877 688.826 342.129 670.262 334.817C651.698 327.504 629.369 330.533 623.312 347.472Z" fill="#F9DD12" stroke="#1E1E1E" stroke-width="1.24"/>
<path d="M666.082 349.96C666.082 349.96 654.946 374.04 666.082 384.738C677.218 395.436 677.218 404.948 674.604 416.844C671.989 428.74 678.173 443.711 701.228 448.939C724.283 454.167 757.817 442.029 747.119 404.718C748.075 397.106 677.69 326.963 673.89 329.105C670.089 331.247 666.082 349.96 666.082 349.96Z" fill="#F7500F"/>
<path opacity="0.61" d="M747.119 404.718C747.143 404.421 747.103 404.123 747.004 403.843C744.965 402.357 742.397 402.023 740.831 407.297C737.849 417.282 722.153 444.862 696.242 432.736C670.331 420.61 692.787 395.563 662.984 380.339C663.736 381.974 664.787 383.454 666.082 384.703C677.218 395.413 677.218 404.914 674.604 416.809C671.989 428.705 678.173 443.676 701.228 448.904C724.283 454.132 757.817 442.041 747.119 404.718Z" fill="#E0290B"/>
<path d="M753.038 345.618C740.002 335.749 725.78 345.688 712.825 344.974C690.588 343.96 695.194 284.342 643.637 288.811C592.081 293.279 599.877 357.641 640.332 355.672C680.788 353.703 675.617 333.918 675.617 333.918L717.949 399.904C725.193 373.901 743.561 354.382 753.038 345.618Z" fill="#F7500F"/>
<path opacity="0.61" d="M710.982 344.743C710.498 344.639 710.021 344.504 709.554 344.34L709.289 344.248C708.828 344.077 708.378 343.877 707.942 343.649L707.746 343.546C707.32 343.315 706.906 343.05 706.491 342.774L706.399 342.705C705.984 342.405 705.57 342.083 705.178 341.738L704.948 341.542C704.568 341.196 704.199 340.839 703.796 340.39L703.543 340.125C703.186 339.734 702.829 339.331 702.483 338.905L702.299 338.663C701.992 338.264 701.681 337.849 701.366 337.419L701.171 337.143C700.86 336.682 700.537 336.21 700.226 335.726C700.134 335.565 700.031 335.415 699.927 335.254C699.639 334.793 699.351 334.321 699.075 333.826C698.948 333.63 698.833 333.423 698.718 333.216C698.487 332.824 698.269 332.433 698.05 332.064C697.831 331.696 697.658 331.35 697.463 330.982L697.059 330.233C689.597 316.023 682.319 295.87 661.36 290.123C661.429 290.123 689.067 305.37 691.071 348.348C692.822 385.843 731.872 349.683 746.278 352.194C748.754 349.591 751.046 347.369 752.969 345.595C739.933 335.726 725.711 345.664 712.756 344.95C712.218 344.927 711.683 344.861 711.155 344.755L710.982 344.743Z" fill="#E0290B"/>
<path d="M666.082 349.96C666.082 349.96 654.946 374.04 666.082 384.738C677.218 395.436 677.218 404.948 674.604 416.844C671.989 428.74 678.173 443.71 701.228 448.939C724.283 454.167 757.817 442.029 747.119 404.718" stroke="#1E1E1E" stroke-width="1.24" stroke-linecap="round"/>
<path d="M389.759 456.182C387.869 460.794 386.273 465.522 384.98 470.335C382.607 479.007 437.135 619.776 553.583 647.115C556.478 644.299 558.436 640.661 559.192 636.693L432.517 525.968L389.759 456.182Z" fill="#1E1E1E" stroke="#1E1E1E" stroke-width="1.24" stroke-linecap="round"/>
<path d="M675.617 333.918C675.617 333.918 680.868 353.714 640.39 355.672C599.912 357.629 592.161 293.267 643.695 288.811C695.228 284.354 690.588 343.96 712.825 344.973C725.838 345.687 740.129 335.646 753.222 345.757C766.316 355.867 757.046 403.106 777.912 407.389C798.779 411.673 818.748 421.658 820.176 448.939C820.901 462.758 813.658 471.683 802.66 475.425" stroke="#1E1E1E" stroke-width="1.24" stroke-linecap="round"/>
<path d="M389.759 456.182C389.759 456.182 486.803 417.996 490.373 419.251C493.943 420.506 536.344 514.268 579.644 540.536C571.767 587.141 558.581 639.146 558.581 639.146C558.581 639.146 441.845 603.067 389.759 456.182Z" fill="#CDEAFC" stroke="#1E1E1E" stroke-width="1.24" stroke-linecap="round"/>
<path fill-rule="evenodd" clip-rule="evenodd" d="M389.759 456.182C389.759 456.182 486.803 417.996 490.373 419.251C493.943 420.506 536.344 514.268 579.644 540.536C571.767 587.141 558.581 639.146 558.581 639.146C558.581 639.146 441.845 603.067 389.759 456.182Z" stroke="#1E1E1E" stroke-width="1.24" stroke-linecap="round"/>
<path d="M392.96 464.877L495.002 426.529C492.549 422.153 490.949 419.504 490.396 419.308C486.826 418.053 389.782 456.24 389.782 456.24C390.795 459.119 391.866 461.975 392.96 464.877Z" fill="#67BDE8"/>
<path d="M450.528 432.793C422.406 443.33 389.759 456.182 389.759 456.182C436.087 586.795 533.442 629.772 554.493 637.707C556.267 637.72 557.99 637.113 559.364 635.991C559.629 634.931 559.94 633.688 560.32 632.122C479.709 605.635 425.907 519.911 410.211 481.045C401.942 460.558 425.965 443.929 450.528 432.793Z" fill="white"/>
<path d="M470.301 474.181L490.154 463.598" stroke="#67BDE8"/>
<path d="M475.149 481.045L505.159 465.038" stroke="#67BDE8"/>
<path d="M479.997 487.908L510.007 471.901" stroke="#67BDE8"/>
<path d="M484.845 494.772L514.855 478.765" stroke="#67BDE8"/>
<path d="M506.599 492.618L519.704 485.617" stroke="#67BDE8"/>
<path fill-rule="evenodd" clip-rule="evenodd" d="M389.759 456.182C389.759 456.182 486.803 417.996 490.373 419.251C493.943 420.506 536.344 514.268 579.644 540.536C571.767 587.141 558.581 639.146 558.581 639.146C558.581 639.146 441.845 603.067 389.759 456.182Z" stroke="#1E1E1E"/>
<path d="M448.017 514.142C451.253 520.89 457.23 525.013 461.353 523.354C465.475 521.696 466.282 514.89 463.092 508.153C459.902 501.417 453.879 497.282 449.699 498.941C445.518 500.599 444.758 507.405 448.017 514.142Z" fill="#67BDE8"/>
<path fill-rule="evenodd" clip-rule="evenodd" d="M436.674 483.198L434.175 476.611C433.323 474.366 433.715 472.316 434.958 471.775L437.538 470.773C438.954 470.243 440.901 471.383 442.144 473.467L445.783 479.605C446.496 480.975 447.748 481.986 449.238 482.392L449.964 482.542C450.52 482.693 451.114 482.603 451.6 482.294C452.087 481.985 452.42 481.486 452.52 480.918L453.867 475.759C454.328 474.009 455.952 473.537 457.656 474.688L460.846 476.807C462.65 478.128 463.759 480.194 463.863 482.427L463.944 488.576C464.039 490.254 464.687 491.854 465.786 493.125C465.81 493.154 465.833 493.182 465.857 493.211C466.215 493.644 466.581 494.088 466.938 494.553C467.699 495.762 469.021 496.504 470.45 496.522L474.861 495.889C476.369 495.705 478.235 497.167 479.248 499.344L481.137 503.42C482.15 505.608 481.966 507.854 480.815 508.695L477.291 511.193C476.45 511.815 476.116 513.232 476.45 514.879C476.577 515.489 476.68 516.053 476.784 516.64C477.058 518.3 477.867 519.825 479.087 520.982L483.843 525.277C485.472 526.777 486.339 528.929 486.204 531.139L485.72 534.697C485.739 535.5 485.301 536.243 484.589 536.615C483.878 536.986 483.017 536.922 482.369 536.448L477.429 533.788C476.966 533.45 476.384 533.319 475.821 533.426C475.258 533.533 474.765 533.868 474.458 534.352C474.343 534.544 474.216 534.74 474.078 534.939C473.409 536.246 473.379 537.788 473.997 539.119L476.416 545.706C477.233 547.941 476.865 550.002 475.54 550.543L473.087 551.534C471.763 552.075 469.886 550.923 468.677 548.85L465.095 542.712C464.404 541.354 463.184 540.342 461.721 539.914L461.007 539.776C460.464 539.624 459.881 539.716 459.41 540.028C458.939 540.339 458.627 540.84 458.554 541.4L457.345 546.559C456.931 548.309 455.388 548.781 453.706 547.63L450.585 545.499C448.793 544.167 447.67 542.119 447.511 539.891L447.28 533.742C447.153 532.06 446.487 530.465 445.38 529.193C445.225 528.998 445.065 528.802 444.903 528.602C444.681 528.329 444.455 528.051 444.229 527.765C443.477 526.574 442.182 525.835 440.774 525.796L436.444 526.429C434.97 526.613 433.093 525.151 432.022 522.974L430.03 518.898C428.947 516.71 429.039 514.464 430.191 513.623L433.646 511.124C434.509 510.503 434.786 509.086 434.406 507.439C434.373 507.281 434.34 507.126 434.308 506.973C434.215 506.535 434.125 506.113 434.049 505.677C433.728 504.009 432.881 502.487 431.63 501.336L426.736 497.04C425.056 495.566 424.134 493.412 424.226 491.179L424.64 487.62C424.905 485.709 426.356 484.972 428.095 485.87L433.185 488.53C433.658 488.867 434.248 488.997 434.819 488.891C435.39 488.784 435.893 488.451 436.214 487.966C436.34 487.77 436.467 487.574 436.605 487.379C437.296 486.077 437.321 484.523 436.674 483.198ZM464.381 529.699C470.669 527.177 471.878 516.813 467.053 506.553V506.587C462.205 496.315 453.027 490.016 446.635 492.526C440.244 495.037 439.139 505.401 444.09 515.673C449.042 525.945 458.094 532.221 464.381 529.699Z" fill="#67BDE8"/>
<path d="M554.021 576.408L534.202 610.149" stroke="#67BDE8" stroke-width="1.24" stroke-linecap="round"/>
<path d="M515.235 537.358L483.613 560.401" stroke="#67BDE8" stroke-width="1.24" stroke-linecap="round"/>
<path d="M559.525 580.749L539.718 614.491" stroke="#67BDE8" stroke-width="1.24" stroke-linecap="round"/>
<path d="M534.686 530.298L481.195 573.402C481.195 573.402 506.219 605.174 525.98 607.673C531.83 600.165 554.297 561.207 554.297 561.207L534.686 530.298Z" fill="#67BDE8"/>
<path d="M450.079 423.143C450.079 423.143 468.285 431.884 471.141 442.812C472.569 450.309 461.122 439.576 461.122 439.576C461.122 439.576 466.224 443.722 464.577 447.822C462.93 451.921 453.51 443.215 453.51 443.215C453.51 443.215 459.464 449.491 458.025 451.196C455.722 453.96 447.799 449.699 444.471 445.438C447.776 448.685 447.925 452.566 446.083 453.096C444.24 453.626 424.318 433.911 417.903 441.523" fill="#F9DD12"/>
<path opacity="0.57" d="M471.141 442.812C468.285 431.884 450.079 423.143 450.079 423.143L449.077 423.707C452.094 426.425 464.52 438.356 460.443 447.568C461.529 448.108 462.696 448.465 463.898 448.628C464.206 448.44 464.444 448.157 464.577 447.822C465.89 444.597 463.023 441.361 461.733 440.118C464.036 442.19 472.373 449.273 471.141 442.812Z" fill="#F78B14"/>
<path d="M450.079 423.143C450.079 423.143 468.285 431.884 471.141 442.812C472.569 450.309 461.122 439.576 461.122 439.576C461.122 439.576 466.224 443.722 464.577 447.822C462.93 451.921 453.51 443.215 453.51 443.215C453.51 443.215 459.464 449.491 458.025 451.196C455.721 453.96 447.799 449.699 444.47 445.438C447.776 448.685 447.925 452.566 446.083 453.096C444.24 453.626 424.318 433.911 417.903 441.523" stroke="#1E1E1E" stroke-width="1.24" stroke-linecap="round"/>
<path d="M452.336 431.504L461.122 439.576L452.336 431.504Z" fill="#F9DD12"/>
<path d="M452.336 431.504L461.122 439.576" stroke="#1E1E1E" stroke-width="1.24" stroke-linecap="round"/>
<path d="M443.964 433.599L453.971 443.664L443.964 433.599Z" fill="#F9DD12"/>
<path d="M443.964 433.599L453.971 443.664" stroke="#1E1E1E" stroke-width="1.24" stroke-linecap="round"/>
<path d="M432.505 435.546C432.505 435.546 440.567 440.359 444.447 445.426L432.505 435.546Z" fill="#F9DD12"/>
<path d="M432.505 435.546C432.505 435.546 440.567 440.359 444.447 445.426" stroke="#1E1E1E" stroke-width="1.24" stroke-linecap="round"/>
<path d="M696.242 504.722C704.441 509.051 733.334 566.734 689.102 576.719C667.475 581.601 621.343 561.691 579.39 540.513C578.561 553.722 575.256 590.941 563.556 611.197L549.737 622.437C549.737 622.437 656.65 727.438 724.41 712.698C725.135 712.537 725.803 712.376 726.459 712.203C738.269 710.83 749.543 706.51 759.245 699.639C855.783 632.594 800.702 490.419 800.702 490.419" fill="#35A5F9"/>
<path opacity="0.66" d="M800.979 491.064C792.664 506.99 795.578 598.714 775.77 603.919C753.303 609.804 771.486 674.005 696.242 671.149C647.645 669.306 601.42 629.83 570.143 595.754C568.491 601.125 566.283 606.308 563.556 611.22L549.737 622.46C549.737 622.46 656.65 727.438 724.41 712.698C725.135 712.537 725.803 712.376 726.459 712.203C738.269 710.83 749.543 706.51 759.245 699.639C852.051 635.185 804.767 501.301 800.979 491.064V491.064Z" fill="#1788C1"/>
<path fill-rule="evenodd" clip-rule="evenodd" d="M769.333 691.889C730.789 672.416 710.383 702.253 704.222 713.85C710.971 714.461 717.774 714.072 724.41 712.698C725.135 712.537 725.803 712.376 726.459 712.203C738.269 710.83 749.543 706.51 759.245 699.639C762.827 697.163 766.166 694.561 769.333 691.889V691.889Z" stroke="white"/>
<path d="M696.242 504.618C704.441 508.948 733.334 566.631 689.102 576.615C667.475 581.498 621.343 561.644 579.39 540.409C578.561 553.618 575.256 590.837 563.556 611.094L549.737 622.333C549.737 622.333 656.604 727.312 724.364 712.594C725.089 712.433 725.757 712.272 726.413 712.099C738.223 710.727 749.497 706.406 759.199 699.535C855.737 632.49 800.656 490.315 800.656 490.315" stroke="#1E1E1E" stroke-linecap="round"/>
<path d="M554.827 621.377C558.429 618.603 561.404 615.099 563.556 611.094C559.249 606.395 555.138 601.812 551.234 597.401C546.985 614.744 546.455 627.354 554.827 621.377Z" fill="#1E1E1E" stroke="#1E1E1E"/>
<path d="M574.116 537.726C532.498 516.445 496.303 494.898 494.38 496.73C490.453 500.472 505.078 515.097 505.078 515.097C505.078 515.097 462.47 511.884 463 517.239C463.529 522.594 488.853 522.767 488.853 522.767C488.853 522.767 454.305 524.368 454.973 528.525C455.641 532.682 490.995 534.283 490.995 534.283C490.995 534.283 465.314 537.496 465.314 539.453C465.314 541.411 495.094 544.624 495.094 544.624C495.094 544.624 476.392 545.948 477.083 548.942C477.774 551.937 494.357 552.57 509.121 553.042C513.531 553.192 529.055 572.354 551.234 597.367C555.138 601.777 559.295 606.361 563.556 611.059C575.256 590.803 578.527 553.583 579.39 540.375L574.116 537.726Z" fill="#F9DD12"/>
<path fill-rule="evenodd" clip-rule="evenodd" d="M574.116 537.726C532.498 516.445 496.303 494.899 494.38 496.73C490.453 500.472 505.078 515.097 505.078 515.097C505.078 515.097 462.47 511.885 463 517.239C463.529 522.594 488.853 522.767 488.853 522.767C488.853 522.767 454.305 524.368 454.973 528.525C455.641 532.682 490.995 534.283 490.995 534.283C490.995 534.283 465.314 537.496 465.314 539.453C465.314 541.411 495.094 544.624 495.094 544.624C495.094 544.624 476.392 545.948 477.083 548.943C477.774 551.937 494.357 552.57 509.121 553.042C513.531 553.192 529.055 572.354 551.234 597.367C555.138 601.777 559.295 606.361 563.556 611.059C575.256 590.803 578.527 553.583 579.39 540.375L574.116 537.726Z" stroke="#1E1E1E" stroke-width="1.24"/>
<path d="M500.954 733.848C505.033 729.068 490.508 709.974 468.511 691.201C446.515 672.427 425.376 661.082 421.297 665.862C417.217 670.641 431.742 689.735 453.739 708.509C475.736 727.283 496.875 738.627 500.954 733.848Z" fill="#1E1E1E" stroke="#1E1E1E" stroke-width="1.24"/>
<path d="M460.167 342.774H482.323V455.019" stroke="#1E1E1E" stroke-width="1.24" stroke-linecap="round"/>
<path d="M639.918 417.017C639.918 417.017 657.929 418.836 662.385 411.512" stroke="#1E1E1E" stroke-width="1.24" stroke-linecap="round"/>
<path d="M639.918 417.017C639.918 417.017 657.929 418.836 662.385 411.512C662.973 414.967 661.786 428.487 636.705 433.6C638.766 422.994 639.918 417.017 639.918 417.017Z" fill="#1E1E1E" stroke="#1E1E1E" stroke-width="1.24" stroke-linecap="round"/>
<path d="M482.323 459.153C484.651 459.153 486.538 457.266 486.538 454.939C486.538 452.611 484.651 450.724 482.323 450.724C479.995 450.724 478.108 452.611 478.108 454.939C478.108 457.266 479.995 459.153 482.323 459.153Z" fill="#1E1E1E" stroke="#1E1E1E" stroke-width="1.24"/>
<path opacity="0.57" d="M563.556 611.128C566.267 606.239 568.466 601.083 570.12 595.743C557.34 581.734 545.348 567.025 534.202 551.683C516.928 528.133 465.314 539.384 465.314 539.384L467.525 540.444C474.435 542.321 495.094 544.555 495.094 544.555C495.094 544.555 476.392 545.948 477.083 548.942C477.774 551.937 494.357 552.57 509.121 553.042C513.531 553.192 529.055 572.354 551.234 597.367C555.138 601.812 559.307 606.395 563.556 611.128Z" fill="#F78B14"/>
<path d="M419.838 459.994C419.838 459.994 412.468 464.451 414.46 475.506C416.452 486.561 429.108 456.159 419.838 459.994Z" fill="white"/>
<path d="M626.341 348.371C626.341 348.371 614.928 341.381 613.5 331.097C612.072 320.813 622.805 317.704 624.452 323.888C626.099 330.072 624.199 339.342 633.665 339.814C643.131 340.287 636.083 354.071 626.341 348.371Z" fill="white"/>
<path d="M618.487 314.606C618.487 314.606 613.731 315.32 616.587 307.95C619.443 300.58 630.141 315.32 618.487 314.606Z" fill="white"/>
<path d="M670.803 357.157C670.803 357.157 664.861 371.667 670.803 378.323C676.745 384.98 670.089 369.111 672.231 365.495C674.373 361.879 674.845 351.699 670.803 357.157Z" fill="white"/>
<path d="M675.076 383.77C675.076 383.77 679.003 381.652 680.246 385.221C681.49 388.791 673.89 389.459 675.076 383.77Z" fill="white"/>
<path d="M582.649 576.408C582.649 576.408 582.822 552.72 591.563 557.176C600.303 561.633 619.719 565.387 613.938 569.66C608.157 573.932 590.135 563.66 591.563 568.98C592.991 574.3 584.642 583.145 582.649 576.408H582.649Z" fill="white"/>
<path d="M622.241 574.657C622.241 574.657 621.527 568.232 626.847 570.374C632.168 572.515 630.544 579.644 622.241 574.657Z" fill="white"/>
<path d="M591.551 448.939C591.551 448.939 609.504 430.156 619.604 431.815C629.703 433.473 609.239 438.597 612.591 443.227C615.942 447.856 584.25 457.622 591.551 448.939Z" fill="white"/>
<path d="M582.822 455.019C582.822 455.019 589.34 452.014 590.423 456.171C591.505 460.328 577.732 460.017 582.822 455.019Z" fill="white"/>
<path d="M380.258 529.181C380.258 529.181 378.83 523.953 388.319 525.726C397.808 527.5 389.344 534.179 380.258 529.181Z" fill="white"/>
<path d="M441.845 419.965C441.845 419.965 429.488 419.827 426.632 424.226C423.777 428.625 438.275 421.37 441.016 423.155C443.757 424.94 447.234 419.619 441.845 419.965Z" fill="white"/>
<path d="M423.189 425.158C423.189 425.158 419.481 425.4 419.366 427.07C419.251 428.74 424.053 428.613 423.189 425.158Z" fill="white"/>
<path d="M517.746 516.779C517.746 516.779 504.768 505.862 505.159 504.618C505.551 503.374 540.11 523.838 539.707 526.682C539.304 529.527 519.577 523.504 517.746 516.779Z" fill="white"/>
<path d="M151.645 265.272C151.645 265.272 144.736 288.557 152.359 307.489C159.983 326.421 154.374 289.34 157.737 288.454C161.1 287.567 156.125 255.288 151.645 265.272Z" fill="white"/>
<path d="M155.388 321.262C155.388 321.262 154.904 315.504 157.691 316.806C160.478 318.107 160.996 330.36 158.843 328.575C156.689 326.79 155.388 321.262 155.388 321.262Z" fill="white"/>
<path d="M178.039 246.006C178.039 246.006 171.614 249.392 171.441 256.37C171.268 263.349 175.898 251.027 178.039 251.2C180.181 251.373 180.7 244.014 178.039 246.006Z" fill="white"/>
<path d="M202.108 245.661C202.108 245.661 195.198 250.463 195.866 254.217C196.534 257.971 208.533 243.185 202.108 245.661Z" fill="white"/>
<path d="M226.809 246.49C226.809 246.49 221.374 249.76 223.688 252.075C226.003 254.39 228.502 246.605 226.809 246.49Z" fill="white"/>
<path d="M172.512 263.349C172.512 263.349 167.698 265.272 169.656 268.831C171.614 272.389 174.677 263.936 172.512 263.349V263.349Z" fill="white"/>
<path d="M257.672 306.821C257.672 306.821 267.195 301.8 268.98 303.77C270.765 305.739 258.812 308.572 259.883 310.679C260.954 312.787 250.014 309.965 257.672 306.821Z" fill="white"/>
<path d="M138.909 261.046C136.974 260.804 117.765 263.464 113.723 274.151C109.681 284.838 125.136 268.566 128.936 271.122C132.736 273.679 146.498 262.002 138.909 261.046Z" fill="white"/>
<path d="M112.054 280.082C112.054 280.082 107.067 280.312 108.012 284.216C108.956 288.12 113.965 282.028 112.054 280.082Z" fill="white"/>
<path d="M298.945 266.527C298.945 266.527 310.115 243.196 312.487 244.647C314.859 246.098 306.073 256.083 309.159 258.466C312.245 260.85 294.949 274.462 298.945 266.527Z" fill="white"/>
<path d="M315.021 298.3C315.021 298.3 318.199 309.033 323.588 309.32C328.978 309.608 335.738 310.334 333.734 307.363C331.73 304.392 325.362 306.361 323.646 301.708C321.93 297.056 313.178 293.693 315.021 298.3Z" fill="white"/>
<path d="M338.375 306.879C338.375 306.879 345.054 304.783 345.618 307.616C346.183 310.449 333.722 309.412 338.375 306.879Z" fill="white"/>
<path d="M293.498 274.635C293.498 274.635 296.492 271.422 298.334 273.483C300.177 275.544 291.275 279.091 293.498 274.635Z" fill="white"/>
<path d="M662.949 587.371C659.495 586.657 656.27 585.793 653.357 584.895" stroke="white"/>
<path d="M683.056 589.018C679.655 589.19 676.245 589.125 672.853 588.822" stroke="white"/>
<path d="M719.527 519.462C725.285 537.576 730.571 567.379 709.796 580.749C705.042 583.797 699.816 586.034 694.33 587.371" stroke="white"/>
<path d="M713.838 504.572C713.838 504.572 714.99 507.013 716.567 511.055" stroke="white"/>
<path d="M548.228 530.298L571.767 542.494" stroke="white"/>
<path d="M595.466 485.605C599.018 484.413 602.685 483.595 606.407 483.164" stroke="white"/>
<path d="M573.909 511.147C574.64 502.713 579.132 495.056 586.139 490.304" stroke="white"/>
<path d="M392.43 556.163C398.015 570.235 407.781 589.202 423.189 602.157" stroke="white"/>
<path d="M386.304 537.358C386.304 537.358 387.133 540.974 388.999 546.662" stroke="white"/>
<path d="M635.772 295.951C644.052 292.917 653.216 293.429 661.107 297.367" stroke="white"/>
<path d="M625.776 301.766C626.902 300.772 628.112 299.879 629.392 299.094" stroke="white"/>
<path d="M505.182 633.446C505.182 633.446 483.302 643.58 465.349 640.183" stroke="white"/>
<path d="M685.901 404.994C686.837 408.052 687.375 411.219 687.501 414.414" stroke="white"/>
<path d="M680.385 391.693C680.385 391.693 681.536 393.789 682.964 396.979" stroke="white"/>
<path d="M161.722 426.621C161.249 428.245 160.754 429.88 160.224 431.504" stroke="white"/>
<path d="M166.616 359.553C168.263 375.018 168.804 396.76 163.599 419.297" stroke="white"/>
<path d="M164.888 347.058C165.153 348.636 165.441 350.386 165.718 352.286" stroke="white"/>
<path d="M162.781 336.958C162.781 336.958 163.299 338.87 164.002 342.325" stroke="white"/>
<path d="M262.048 263.349H286.818" stroke="white"/>
<path d="M248.47 263.349H254.931" stroke="white"/>
<path d="M331.914 241.665L337.338 241.4C339.469 241.308 341.622 241.25 343.695 241.216C351.307 241.089 357.906 241.434 359.391 242.839" stroke="white"/>
<path d="M316.057 242.839C316.057 242.839 319.512 242.517 324.429 242.16" stroke="white"/>
<path d="M349.891 306.822H362.063" stroke="white"/>
<path d="M627.769 368.765C627.538 369.917 625.385 380.109 622.31 384.496C619.235 388.884 627.112 387.559 630.44 387.179" stroke="#141414"/>
<path d="M642.722 369.609C647.48 369.269 651.234 367.542 651.106 365.754C650.978 363.965 647.017 362.79 642.259 363.13C637.501 363.471 633.748 365.197 633.876 366.986C634.004 368.775 637.965 369.949 642.722 369.609Z" fill="white" stroke="#141414"/>
<path d="M639.204 363.537C636.014 364.228 633.791 365.564 633.883 366.992C633.976 368.42 636.371 369.387 639.641 369.617C641.403 369.019 642.601 367.763 642.509 366.382C642.417 365 641.069 363.86 639.204 363.537Z" fill="#141414"/>
<path d="M614.566 372.473C619.324 372.133 623.077 370.407 622.949 368.618C622.821 366.829 618.861 365.655 614.103 365.995C609.345 366.335 605.592 368.061 605.719 369.85C605.847 371.639 609.808 372.813 614.566 372.473Z" fill="white" stroke="#141414" stroke-width="1.24"/>
<path d="M611.047 366.393C607.846 367.096 605.635 368.431 605.727 369.848C605.819 371.264 608.215 372.232 611.485 372.473C613.247 371.875 614.445 370.608 614.353 369.226C614.26 367.844 612.878 366.739 611.047 366.393Z" fill="#141414"/>
<path d="M634.01 405.247C636.866 405.247 639.181 402.933 639.181 400.077C639.181 397.221 636.866 394.906 634.01 394.906C631.154 394.906 628.839 397.221 628.839 400.077C628.839 402.933 631.154 405.247 634.01 405.247Z" fill="#1E1E1E" stroke="#1E1E1E" stroke-width="1.24" stroke-linecap="round"/>
<path d="M495.463 333.446H522.433H495.463Z" fill="#1E1E1E"/>
<path d="M495.463 333.446H522.433" stroke="#1E1E1E" stroke-width="1.24" stroke-linecap="round"/>
<path d="M495.463 353.507H522.433H495.463Z" fill="#1E1E1E"/>
<path d="M495.463 353.507H522.433" stroke="#1E1E1E" stroke-width="1.24" stroke-linecap="round"/>
<path d="M495.463 373.556H522.433H495.463Z" fill="#1E1E1E"/>
<path d="M495.463 373.556H522.433" stroke="#1E1E1E" stroke-width="1.24" stroke-linecap="round"/>
<path d="M825.323 678.139C824.033 682.227 822.628 686.315 821.074 690.392" stroke="#1E1E1E" stroke-width="1.24" stroke-linecap="round"/>
<path d="M831.599 653.967C831.093 656.378 830.548 658.8 829.964 661.234" stroke="#1E1E1E" stroke-width="1.24" stroke-linecap="round"/>
<path d="M837.472 569.936C839.098 595.239 837.667 620.646 833.211 645.607" stroke="#1E1E1E" stroke-width="1.24" stroke-linecap="round"/>
<path d="M733.691 331.961C733.691 331.961 757.046 326.606 762.573 340.874" stroke="#1E1E1E" stroke-width="1.24" stroke-linecap="round"/>
<path d="M727.438 729.246C743.561 726.817 763.137 719.504 776.818 699.835" stroke="#1E1E1E" stroke-width="1.24" stroke-linecap="round"/>
<path d="M699.098 729.258C703.97 730.048 708.903 730.398 713.838 730.306" stroke="#1E1E1E" stroke-width="1.24" stroke-linecap="round"/>
<path d="M384.012 586.496C384.012 586.496 400.227 623.197 435.177 637.707" stroke="#1E1E1E" stroke-width="1.24" stroke-linecap="round"/>
<path d="M141.154 516.779H148.755" stroke="#1E1E1E" stroke-width="1.24" stroke-linecap="round"/>
<path d="M77.506 483.302V500.576C77.5029 504.884 79.2123 509.017 82.2577 512.065C85.3032 515.112 89.4349 516.825 93.7434 516.825H131.066" stroke="#1E1E1E" stroke-width="1.24" stroke-linecap="round"/>
<path d="M610.034 120.115H649.568" stroke="#1E1E1E" stroke-width="1.24" stroke-linecap="round"/>
<path d="M579.39 120.115H592.081" stroke="#1E1E1E" stroke-width="1.24" stroke-linecap="round"/>
<path d="M828.928 442.018C828.928 442.018 833.384 466.489 816.364 480.999" stroke="#1E1E1E" stroke-width="1.24" stroke-linecap="round"/>
</svg>
