<svg width="1000" height="1000" viewBox="0 0 1000 1000" fill="none" xmlns="http://www.w3.org/2000/svg">
<path d="M650.851 834.86C639.218 836.013 33.6584 896.081 10.9685 586.644C-11.7213 277.206 382.7 390.644 363.065 272.26C336.444 111.874 695.562 115.656 749.208 320.591C802.855 525.526 909.882 438.076 968.97 533.989C996.376 578.469 1061.27 793.654 650.851 834.86Z" fill="#F2F0F0"/>
<path d="M469.182 315.841C388.476 307.413 304.115 353.565 276.641 439.644C265.111 475.615 246.295 497.544 228.217 510.907C203.06 529.504 164.69 532.432 164.69 532.432C164.69 535.361 164.805 538.197 164.955 540.837C169.567 625.002 230.742 590.483 266.864 589.618C304.115 588.777 416.815 404.145 488.251 399.694C559.688 395.244 604.917 550.649 610.279 472.918C615.64 395.186 549.934 324.269 469.182 315.841Z" fill="#A997FF"/>
<path d="M607.65 436.484C594.311 374.226 537.055 322.931 469.182 315.841C389.133 307.482 305.603 352.735 277.355 437.384C279.99 441.755 283.462 445.563 287.571 448.59C287.571 448.59 308.473 344.238 431.388 330.518C554.303 316.798 598.865 408.03 607.65 436.484Z" fill="#6C15B7"/>
<path d="M568.393 520.292C568.393 520.292 503.055 546.268 507.817 473.701C488.217 497.786 463.913 502.225 463.913 502.225C463.913 502.225 481.207 562.293 449.386 571.678C417.565 581.063 358.511 548.816 379.921 502.502C417.899 420.412 524.742 431.792 540.445 440.866C556.148 449.939 528.247 515.392 568.393 520.292Z" fill="#8878F9" stroke="#191919" stroke-width="1.15"/>
<path d="M668.56 519.958C621.97 511.968 633.28 483.974 557.878 392.604C482.475 301.233 315.137 364.656 283.247 486.234C274.565 519.254 260.338 535.43 245.2 542.267C214.301 556.218 179.482 531.452 179.482 531.452C171.711 533.263 171.043 533.263 164.725 534.911C166.293 564.323 172.795 606.728 183.529 645.663L198.898 638.849L270.922 606.924L413.748 543.604C384.59 522.851 391.52 463.36 459.024 448.129C503.263 438.145 532.455 458.16 555.871 483.236C562.316 490.154 568.312 497.464 574.065 504.635C589.203 523.486 602.6 541.402 617.807 548.885C620.84 550.386 623.99 551.635 627.227 552.62C633.152 554.46 639.385 555.092 645.559 554.477C670.324 551.802 682.637 527.244 668.56 519.958Z" fill="#A997FF"/>
<path opacity="0.67" d="M645.397 554.499C653.677 553.706 661.437 550.11 667.396 544.307C668.445 534.484 632.75 553.992 631.735 543.408C630.721 532.824 620.206 520.488 620.206 520.488C602.912 509.258 598.461 524.834 617.658 548.908C620.69 550.408 623.841 551.658 627.077 552.643C632.998 554.482 639.228 555.113 645.397 554.499Z" fill="#6C15B7"/>
<path opacity="0.67" d="M635.459 503.194C619.652 485.634 607.662 452.937 557.854 392.604C512.486 337.666 433.925 338.704 371.528 374.698C363.791 380.844 357.162 389.906 357.692 402.819C359.03 432.795 448.452 342.497 509.454 375.413C565.718 405.736 608.734 493.255 635.459 503.194Z" fill="#6C15B7"/>
<path d="M380.405 369.845C376.777 371.712 373.192 373.688 369.648 375.771" stroke="#191919" stroke-width="1.15" stroke-linecap="round"/>
<path d="M413.621 543.627C384.464 522.874 391.393 463.383 458.897 448.152C503.136 438.168 532.328 458.183 555.745 483.259C562.189 490.177 568.185 497.487 573.938 504.658C589.076 523.508 602.473 541.425 617.68 548.908C620.713 550.408 623.863 551.658 627.1 552.643C633.025 554.483 639.259 555.115 645.432 554.5C670.358 551.802 682.672 527.244 668.594 519.911C622.004 511.921 633.314 483.928 557.912 392.557C516.856 342.843 448.602 338.957 389.767 365.336" stroke="#191919" stroke-width="1.15" stroke-linecap="round"/>
<path d="M805.449 407.696C805.451 392.832 815.181 379.721 829.407 375.413C813.887 370.744 797.241 377.777 789.773 392.161C782.305 406.544 786.129 424.206 798.877 434.213L792.443 486.199H811.963L818.408 434.283C810.212 427.898 805.429 418.084 805.449 407.696Z" fill="#606060" stroke="#191919" stroke-width="1.15"/>
<path opacity="0.46" d="M530.968 409.252C530.968 409.252 584.234 443.979 582.263 477.518C576.175 487.779 547.282 417.565 510.907 415.178C474.532 412.791 501.153 392.465 530.968 409.252Z" fill="white"/>
<path d="M610.578 465.838C611.651 390.897 547.478 324.027 469.182 315.841C388.476 307.413 304.115 353.565 276.641 439.644C265.111 475.615 246.295 497.544 228.217 510.907C203.06 529.504 164.69 532.432 164.69 532.432C164.69 535.361 164.805 538.197 164.955 540.837" stroke="#191919" stroke-width="1.15"/>
<path d="M804.123 526.61V544.896C804.123 547.509 803.084 550.015 801.235 551.862C799.386 553.709 796.879 554.745 794.265 554.742H783.958L783.266 560.333H802.785L806.959 526.61L804.123 526.61Z" fill="#606060" stroke="#191919" stroke-width="1.15"/>
<path d="M852.397 554.742H833.488C828.051 554.742 823.642 550.333 823.642 544.896V526.61H806.959L802.786 560.333H856.028L855.291 554.304C854.354 554.596 853.378 554.743 852.397 554.742Z" fill="#191919" stroke="#191919" stroke-width="1.15"/>
<path d="M840.418 434.282C850.319 426.526 855.078 413.902 852.763 401.54C850.448 389.177 841.444 379.131 829.407 375.482C817.372 379.134 808.371 389.181 806.058 401.544C803.746 413.906 808.507 426.527 818.408 434.282L811.963 486.269H846.851L840.418 434.282Z" fill="#191919" stroke="#191919" stroke-width="1.15"/>
<path d="M846.851 486.234H548.089V526.587H771.76V544.872C771.76 550.31 776.168 554.719 781.606 554.719H794.288C796.902 554.722 799.409 553.686 801.258 551.839C803.107 549.992 804.146 547.486 804.146 544.872V526.61H823.665V544.896C823.665 550.333 828.074 554.742 833.511 554.742H852.42C853.401 554.743 854.377 554.596 855.314 554.304L846.851 486.234Z" fill="#FCC822"/>
<path opacity="0.67" d="M780.049 517.629C779.715 504.646 653.917 515.968 639.275 516.291C624.633 516.614 628.956 499.32 607.65 501.303C593.077 502.675 581.628 492.679 575.852 486.222H568.288C562.927 494.823 553.208 512.463 553.692 526.575H771.725V544.861C771.725 550.299 776.133 554.707 781.571 554.707H794.253C773.881 553.923 780.384 530.611 780.049 517.629Z" fill="#F78926"/>
<path fill-rule="evenodd" clip-rule="evenodd" d="M846.851 486.234H548.089V526.587H771.76V544.872C771.76 550.31 776.168 554.719 781.606 554.719H794.288C796.902 554.722 799.409 553.686 801.258 551.839C803.107 549.992 804.146 547.486 804.146 544.872V526.61H823.665V544.896C823.665 550.333 828.074 554.742 833.511 554.742H852.42C853.401 554.743 854.377 554.596 855.314 554.304L846.851 486.234Z" stroke="#191919" stroke-width="1.15"/>
<path d="M517.94 595.394C549.873 595.394 575.76 554.667 575.76 504.427C575.76 454.188 549.873 413.46 517.94 413.46C486.007 413.46 460.12 454.188 460.12 504.427C460.12 554.667 486.007 595.394 517.94 595.394Z" fill="#FCC822"/>
<g opacity="0.67">
<path d="M528.12 501.314C490.846 508.866 517.467 439.644 496.576 440.624C488.505 440.993 484.654 436.98 483.029 431.93C469.113 448.533 460.12 474.831 460.12 504.427C460.12 532.156 468.017 556.967 480.446 573.604C521.099 560.345 569.799 523.105 574.272 511.483C575.107 509.46 575.606 507.315 575.748 505.131C575.748 504.912 575.748 504.693 575.748 504.473C575.425 494.235 559.469 494.973 528.12 501.314Z" fill="#F78926"/>
<path d="M486.026 437.13C486.026 437.13 491.849 441.293 500 431.931C508.151 422.569 563.769 414.567 568.393 507.31C553.75 525.503 478.463 550.245 474.14 541.645C469.816 533.044 458.586 470.566 486.026 437.13Z" fill="#F78926"/>
</g>
<path fill-rule="evenodd" clip-rule="evenodd" d="M517.94 595.394C549.873 595.394 575.76 554.667 575.76 504.427C575.76 454.188 549.873 413.46 517.94 413.46C486.007 413.46 460.12 454.188 460.12 504.427C460.12 554.667 486.007 595.394 517.94 595.394Z" stroke="#191919" stroke-width="1.15"/>
<path opacity="0.67" d="M835.621 531.452C833.846 525.215 823.642 526.61 823.642 526.61V544.896C823.642 550.334 828.05 554.742 833.488 554.742H837.95C834.353 549.646 837.074 536.56 835.621 531.452Z" fill="#F78926"/>
<path d="M517.94 576.532C543.251 576.532 563.769 544.25 563.769 504.427C563.769 464.605 543.251 432.323 517.94 432.323C492.629 432.323 472.11 464.605 472.11 504.427C472.11 544.25 492.629 576.532 517.94 576.532Z" fill="#FCC822"/>
<path opacity="0.67" d="M528.12 501.314C490.857 508.866 517.456 439.678 496.587 440.624C482.037 452.695 472.11 476.734 472.11 504.427C472.11 531.683 481.726 555.41 495.907 567.666C521.087 556.552 546.821 539.004 561.717 525.814C563.095 518.769 563.782 511.606 563.769 504.427C563.769 501.822 563.677 499.239 563.504 496.703C555.56 496.403 543.812 498.155 528.12 501.314Z" fill="#F78926"/>
<path fill-rule="evenodd" clip-rule="evenodd" d="M517.94 576.532C543.251 576.532 563.769 544.25 563.769 504.427C563.769 464.605 543.251 432.323 517.94 432.323C492.629 432.323 472.11 464.605 472.11 504.427C472.11 544.25 492.629 576.532 517.94 576.532Z" stroke="#191919" stroke-width="1.15"/>
<path d="M228.194 510.907C211.35 483.755 194.817 468.825 182.434 472.445C168.599 476.457 162.834 502.663 164.921 540.837C164.771 538.151 164.679 535.361 164.656 532.432C164.667 532.432 203.037 529.504 228.194 510.907Z" fill="#191919" stroke="#191919" stroke-width="1.15"/>
<path d="M225.704 755.342C245.684 792.743 266.229 814.58 280.929 810.303C293.762 806.555 299.642 783.6 298.754 749.681C274.023 756.921 249.512 759.504 225.704 755.342H225.704Z" fill="#191919" stroke="#191919" stroke-width="1.15"/>
<path d="M573.904 504.612C537.009 504.716 491.318 539.915 450.539 549.277C435.205 552.793 422.649 550.061 413.576 543.581L270.795 606.947L183.402 645.686C184.232 648.668 185.086 651.673 185.962 654.702C197.33 693.66 211.327 728.49 225.704 755.342C249.512 759.504 274.035 756.921 298.754 749.681C426.731 712.245 559.941 550.222 627.066 552.643C614.141 516.51 595.498 504.612 573.904 504.612V504.612Z" fill="#A997FF"/>
<path d="M214.267 632.012C210.9 573.558 281.944 522.333 285.853 462.714C290.465 391.52 354.557 330.541 426.327 316.417C360.379 324.995 299.25 368.784 276.595 439.644C265.065 475.615 246.249 497.544 228.171 510.907C203.014 529.504 164.644 532.432 164.644 532.432V534.9H164.529C164.598 536.375 164.702 537.897 164.806 539.431V540.803C164.99 544.261 165.278 547.432 165.647 550.464C168.872 582.627 174.769 614.466 183.276 645.651L198.644 638.837L214.267 632.012Z" fill="#6C15B7"/>
<path d="M408.134 693.694C394.956 696.311 270.703 740.873 225.704 667.004C218.371 654.979 214.912 643.334 214.267 631.966L183.402 645.686C184.232 648.668 185.086 651.673 185.962 654.702C197.33 693.66 211.327 728.49 225.704 755.342C249.512 759.504 274.035 756.922 298.754 749.681C335.337 738.97 372.358 718.067 408.134 693.694Z" fill="#6C15B7"/>
<path d="M225.704 755.342C372.681 781.041 546.971 549.726 627.065 552.643C614.141 516.51 595.498 504.612 573.903 504.612C537.009 504.716 491.318 539.915 450.539 549.277C435.205 552.793 422.649 550.061 413.575 543.581" stroke="#191919" stroke-width="1.15"/>
<path d="M298.754 749.681C299.653 783.601 293.762 806.556 280.93 810.303C255.692 817.658 213.183 748.044 185.962 654.656C158.741 561.267 157.138 479.754 182.365 472.399C194.747 468.778 211.292 483.709 228.148 510.884" stroke="#191919" stroke-width="1.15"/>
<path d="M151.514 721.332C161.242 718.596 161.225 688.282 151.477 653.625C141.729 618.968 125.941 593.091 116.213 595.827C106.485 598.564 106.502 628.877 116.25 663.534C125.998 698.191 141.786 724.068 151.514 721.332Z" fill="#191919" stroke="#191919" stroke-width="1.15"/>
<path opacity="0.34" d="M837.95 554.742H852.397C853.378 554.743 854.354 554.596 855.29 554.304L846.851 486.28H838.204C839.991 495.204 850.252 549.576 837.95 554.742H837.95Z" fill="#191919"/>
<path d="M573.131 546.187C552.159 551.802 533.135 576.336 538.831 595.567C562.466 578.273 583.934 564.438 602.369 557.52C598 551.456 588.557 542.059 573.131 546.187Z" fill="white" stroke="#191919" stroke-width="1.15"/>
<path d="M217.333 709.628C221.244 716.262 226.064 722.316 231.653 727.614" stroke="#191919" stroke-width="1.15" stroke-linecap="round"/>
<path d="M177.176 564.772C177.176 564.772 184.889 637.961 207.003 689.29" stroke="#191919" stroke-width="1.15" stroke-linecap="round"/>
<path d="M492.679 453.56C485.82 463.604 481.597 475.213 480.4 487.318" stroke="#191919" stroke-width="1.15" stroke-linecap="round"/>
<path d="M503.989 440.612C501.959 442.338 500.066 444.219 498.328 446.238" stroke="#191919" stroke-width="1.15" stroke-linecap="round"/>
<path d="M763.401 520.488C763.401 520.488 776.083 517.629 776.717 523.947C777.08 529.571 777.08 535.213 776.717 540.837" stroke="#191919" stroke-width="1.15" stroke-linecap="round"/>
<path opacity="0.46" d="M579.149 397.93C579.149 397.93 592.466 435.654 594.68 430.097C596.893 424.54 593.792 408.583 579.149 397.93Z" fill="white"/>
<path opacity="0.46" d="M480.4 405.459C480.4 405.459 475.027 420.551 463.429 417.449C451.83 414.348 458.379 396.305 480.4 402.657" fill="white"/>
<path d="M532.098 354.891C532.098 354.891 557.462 365.544 570.145 392.165" stroke="white" stroke-width="1.15" stroke-linecap="round"/>
<path opacity="0.63" d="M518.274 445.535C518.274 445.535 532.778 456.223 530.783 470.45C528.789 484.678 550.752 490.166 548.077 470.45C545.403 450.735 515.08 434.34 518.274 445.535Z" fill="white"/>
<path opacity="0.63" d="M627.065 492.183C627.065 492.183 712.487 486.845 716.476 494.581C720.465 502.318 649.26 497.936 649.605 503.955C649.951 509.973 609.529 498.144 627.065 492.183Z" fill="white"/>
<path opacity="0.63" d="M738.774 493.002C738.774 493.002 730.461 492.287 730.795 497.464C731.13 502.64 759.746 502.675 759.411 498.006C759.077 493.336 738.774 493.002 738.774 493.002Z" fill="white"/>
<path d="M463.394 637.488C425.232 667.649 369.199 706.192 316.463 720.961" stroke="white" stroke-width="1.15" stroke-linecap="round"/>
<path d="M491.676 614.072C487.652 617.531 483.063 621.485 477.967 625.705" stroke="white" stroke-width="1.15" stroke-linecap="round"/>
<path d="M510.204 597.366C510.204 597.366 506.549 600.825 500 606.739" stroke="white" stroke-width="1.15" stroke-linecap="round"/>
<path opacity="0.46" d="M434.282 559.953C434.282 559.953 479.881 553.612 507.171 535.81C534.462 518.009 562.074 507.321 568.404 516.833C574.734 526.345 411.316 598.496 434.282 559.953Z" fill="white"/>
<path opacity="0.46" d="M579.15 513.224C579.15 513.224 593.976 510.261 595.291 516.775C596.605 523.29 568.231 519.197 579.15 513.224Z" fill="white"/>
<path d="M398.76 549.438C390.782 541.933 383.507 530.761 383.357 514.965C383.023 479.685 411.316 459.716 411.316 459.716" stroke="#191919" stroke-width="1.15" stroke-linecap="round"/>
<path d="M419.536 562.42C415.817 561.027 412.248 559.261 408.883 557.151" stroke="#191919" stroke-width="1.15" stroke-linecap="round"/>
</svg>
