<svg width="1000" height="1000" viewBox="0 0 1000 1000" fill="none" xmlns="http://www.w3.org/2000/svg">
<path opacity="0.79" d="M769.212 195.866C769.212 195.866 562.766 131.416 459.071 175.735C355.375 220.054 258.678 125.375 148.929 214.002C39.1809 302.628 166.051 377.143 51.2407 483.882C-63.5692 590.621 70.3795 860.513 344.295 706.4C541.679 621.808 436.946 889.717 684.678 842.354C932.411 794.992 742.671 506.007 863.926 459.682C985.181 413.357 1000.83 266.368 769.212 195.866Z" fill="#A997FF"/>
<path d="M173.798 112.796H793.885V585.606H173.798L173.798 112.796Z" fill="#F964B2"/>
<path opacity="0.47" d="M793.885 585.595V112.796H739.42C739.777 124.176 743.628 135.452 757.509 135.452C785.572 135.452 749.566 489.405 763.666 535.246C777.767 581.087 291.871 572.509 173.798 561.429V585.641L793.885 585.595Z" fill="#88B2FC"/>
<path fill-rule="evenodd" clip-rule="evenodd" d="M173.798 112.796H793.885V585.606H173.798L173.798 112.796Z" stroke="#141414" stroke-width="1.31" stroke-linecap="round"/>
<path d="M173.798 605.84H339.038V657.895H173.798V605.84Z" fill="#F9DF8C" stroke="#141414" stroke-width="1.31" stroke-linecap="round"/>
<path d="M742.348 169.994H990V401.862H742.348V169.994Z" fill="#141414"/>
<path d="M173.798 112.796H793.885V135.452H173.798L173.798 112.796Z" fill="white" stroke="#141414" stroke-width="1.31" stroke-linecap="round"/>
<path d="M726.737 151.87H974.389V383.738H726.737L726.737 151.87Z" fill="#88B2FC"/>
<path opacity="0.38" d="M974.389 151.87H893.476C893.476 151.87 898.526 176.992 930.047 173.591C961.568 170.19 961.176 207.73 944.747 257.94C928.318 308.151 969.109 367.573 890.052 370.594C810.994 373.615 729.585 365.683 726.737 383.738H974.389V151.87Z" fill="#890952"/>
<path fill-rule="evenodd" clip-rule="evenodd" d="M726.737 151.87H974.389V383.738H726.737L726.737 151.87Z" stroke="#141414" stroke-width="1.31" stroke-linecap="round"/>
<path d="M726.737 151.87H974.389V173.591H726.737L726.737 151.87Z" fill="white" stroke="#141414" stroke-width="1.31" stroke-linecap="round"/>
<path opacity="0.47" d="M218.117 194.563H603.972V532.225H218.117L218.117 194.563Z" fill="#88B2FC"/>
<path opacity="0.39" d="M937.126 173.591H974.389V151.87H893.476C893.476 151.87 897.315 170.916 919.129 173.591H930.047C932.399 173.326 934.774 173.326 937.126 173.591Z" fill="#81D9FC"/>
<path fill-rule="evenodd" clip-rule="evenodd" d="M726.737 151.869H974.389V173.591H726.737L726.737 151.869Z" stroke="#141414"/>
<path d="M206.415 180.336H592.27V517.998H206.415V180.336Z" fill="white" stroke="#141414"/>
<path d="M632.865 581.582C632.865 581.582 634.387 563.55 639.713 580.879C644.867 597.654 648.672 639.218 647.265 645.167C645.859 651.116 621.209 627.988 621.209 628.265C621.209 628.542 632.865 581.582 632.865 581.582Z" fill="#141414" stroke="#141414"/>
<path d="M288.85 236.888H601.724" stroke="#141414"/>
<path d="M220.366 261.48H601.724" stroke="#141414"/>
<path d="M220.366 286.084H601.724" stroke="#141414"/>
<path d="M220.366 310.676H601.724" stroke="#141414"/>
<path d="M220.366 335.279H601.724" stroke="#141414"/>
<path d="M220.366 359.872H601.724" stroke="#141414"/>
<path d="M220.366 384.464H367.02" stroke="#141414"/>
<path d="M385.847 384.464H411.028" stroke="#141414"/>
<path d="M734.82 166.662C736.991 166.662 738.751 164.902 738.751 162.73C738.751 160.559 736.991 158.799 734.82 158.799C732.648 158.799 730.888 160.559 730.888 162.73C730.888 164.902 732.648 166.662 734.82 166.662Z" fill="#5CC9FF" stroke="#141414"/>
<path d="M757.509 166.662C759.681 166.662 761.441 164.902 761.441 162.73C761.441 160.559 759.681 158.799 757.509 158.799C755.338 158.799 753.578 160.559 753.578 162.73C753.578 164.902 755.338 166.662 757.509 166.662Z" fill="#5CC9FF" stroke="#141414"/>
<path d="M780.211 166.662C782.382 166.662 784.142 164.902 784.142 162.73C784.142 160.559 782.382 158.799 780.211 158.799C778.04 158.799 776.279 160.559 776.279 162.73C776.279 164.902 778.04 166.662 780.211 166.662Z" fill="#5CC9FF" stroke="#141414"/>
<path d="M252.602 547.328H763.666" stroke="white"/>
<path d="M261.203 160.574H516.729" stroke="white"/>
<path d="M204.651 558.408H763.666" stroke="white"/>
<path opacity="0.53" d="M220.366 417.922H358.834V493.175H220.366V417.922Z" fill="#F9DF8C"/>
<path opacity="0.53" d="M220.366 203.66H256.407V220.216H220.366V203.66Z" fill="#81D9FC"/>
<path fill-rule="evenodd" clip-rule="evenodd" d="M215.028 410.071H353.496V485.323H215.028V410.071Z" stroke="#141414" stroke-width="1.31" stroke-linecap="round"/>
<path fill-rule="evenodd" clip-rule="evenodd" d="M370.271 410.071H508.739V485.323H370.271V410.071Z" stroke="#141414" stroke-width="1.31" stroke-linecap="round"/>
<path opacity="0.53" d="M376.059 417.922H514.527V493.175H376.059V417.922Z" fill="#F9DF8C"/>
<path d="M204.651 569.488H763.666" stroke="white" stroke-width="1.31" stroke-linecap="round"/>
<path d="M632.669 613.034C630.686 594.034 634.133 578.227 634.756 573.512C597.228 582.735 568.588 574.273 547.49 560.287C561.256 514.481 608.861 441.408 605.056 431.515C600.029 418.43 519.462 380.567 485.727 403.026C485.727 403.026 423.295 477.333 421.784 561.925C420.966 607.512 448.095 640.071 497.533 653.56C534.6 663.672 584.188 663.072 643.956 649.191C637.694 638.066 633.848 625.746 632.669 613.034Z" fill="#C10865"/>
<path opacity="0.56" d="M634.756 573.512C597.228 582.735 568.588 574.273 547.49 560.287C549.882 552.598 552.688 545.043 555.895 537.655C540.549 537.298 527.855 537.39 522.194 537.252C501.257 536.756 559.999 433.279 549.38 409.068C547.487 404.9 544.235 401.497 540.157 399.418C519.738 394.702 499.078 394.149 485.738 403.026C485.738 403.026 484.943 403.96 483.548 405.747C484.193 413.08 509.973 424.194 493.544 442.088C476.422 460.719 434.375 554.88 466.599 592.893C498.824 630.905 597.516 589.122 605.068 617.104C612.619 645.086 643.991 649.225 643.991 649.225C637.721 638.102 633.867 625.782 632.68 613.069C630.686 594.034 634.133 578.227 634.756 573.512Z" fill="#7C034B"/>
<path fill-rule="evenodd" clip-rule="evenodd" d="M632.669 613.034C630.686 594.034 634.133 578.227 634.756 573.512C597.228 582.735 568.588 574.273 547.49 560.287C561.256 514.481 608.861 441.408 605.056 431.515C600.029 418.43 519.462 380.567 485.727 403.026C485.727 403.026 423.295 477.333 421.784 561.925C420.966 607.512 448.095 640.071 497.533 653.56C534.6 663.672 584.188 663.072 643.956 649.191C637.694 638.066 633.848 625.746 632.669 613.034V613.034Z" stroke="#141414" stroke-width="1.31" stroke-linecap="round"/>
<path d="M447.115 197.526C447.115 197.526 451.957 191.877 458.967 201.7C465.492 210.843 472.744 210.923 471.465 214.705C470.185 218.487 448.291 217.679 445.178 210.693C442.065 203.706 447.115 197.526 447.115 197.526Z" fill="#141414" stroke="#141414" stroke-width="1.31" stroke-linecap="round"/>
<path d="M486.73 264.224C475.2 267.256 467.13 264.466 464.074 257.79C461.019 251.115 462.921 240.75 471.361 228.379C472.237 227.226 473.067 226.211 473.886 225.231C458.828 221.542 452.822 214.267 449.674 206.784C448.515 203.865 447.564 200.867 446.826 197.814C410.382 231.365 403.153 258.713 403.153 258.713C396.685 278.843 399.694 300.668 417.276 314.78C420.459 311.425 445.477 311.656 454.044 304.254C467.026 293.047 466.565 272.801 486.73 264.224Z" fill="#F9DF8C"/>
<path opacity="0.52" d="M452.729 223.629C459.52 237.037 418.406 307.078 442.572 302.259C449.551 294.483 457.092 287.23 465.135 280.561C470.076 276.251 474.227 271.113 477.402 265.377C470.842 265.204 466.207 262.437 464.086 257.744C461.077 251.126 462.933 240.704 471.372 228.333C472.249 227.18 473.079 226.165 473.897 225.185C458.84 221.496 452.833 214.221 449.686 206.738C448.527 203.819 447.575 200.821 446.838 197.768C446.62 206.744 448.645 215.633 452.729 223.629Z" fill="#F9B121"/>
<path d="M486.73 264.224C475.2 267.256 467.13 264.466 464.074 257.79C461.019 251.115 462.921 240.75 471.361 228.379C472.237 227.226 473.067 226.211 473.886 225.231C458.828 221.542 452.822 214.267 449.674 206.784C448.515 203.865 447.564 200.867 446.826 197.814C410.382 231.365 403.153 258.713 403.153 258.713C396.685 278.843 399.694 300.668 417.276 314.78" stroke="#141414" stroke-width="1.31" stroke-linecap="round"/>
<path d="M734.289 161.946C736.492 168.312 736.072 175.293 733.122 181.349C730.172 187.405 724.934 192.039 718.563 194.229L378.445 311.425L362.639 290.119L361.912 263.451L702.03 146.255C708.389 144.057 715.36 144.476 721.41 147.419C727.46 150.362 732.092 155.587 734.289 161.946Z" fill="#F73737"/>
<path opacity="0.74" d="M718.563 194.206C728.103 190.909 734.781 182.269 735.567 172.206C736.352 162.143 731.096 152.572 722.183 147.834C726.634 156.32 732.041 169.948 725.711 177.303C716.084 188.51 685.958 166.016 687.434 181.327C688.909 196.638 554.038 209.943 504.393 243.69C454.747 277.436 421.381 265.861 377.166 291.41C374.006 293.396 370.594 294.948 367.02 296.022L378.422 311.39L718.563 194.206Z" fill="#CC2323"/>
<path fill-rule="evenodd" clip-rule="evenodd" d="M734.289 161.946C736.492 168.312 736.072 175.293 733.122 181.349C730.172 187.405 724.934 192.039 718.563 194.229L378.445 311.425L362.639 290.119L361.912 263.451L702.03 146.255C708.389 144.057 715.36 144.476 721.41 147.419C727.46 150.362 732.092 155.587 734.289 161.946Z" stroke="#141414" stroke-width="1.31"/>
<path d="M686.615 178.376C688.818 184.742 688.398 191.723 685.448 197.779C682.498 203.835 677.26 208.469 670.889 210.658L378.422 311.402L362.616 290.096L361.889 263.428L654.367 162.661C660.728 160.468 667.698 160.892 673.746 163.839C679.794 166.786 684.423 172.015 686.615 178.376Z" fill="#F9B121"/>
<path opacity="0.74" d="M670.889 210.623C682.993 206.445 690.085 193.899 687.422 181.373C688.575 196.661 556.206 211.004 506.618 244.716C457.03 278.428 413.979 262.806 377.166 291.41C374.111 293.585 370.667 295.151 367.02 296.022L378.422 311.39L670.889 210.623Z" fill="#F47119"/>
<path opacity="0.47" d="M630.847 414.106H720.558V532.225H630.847V414.106Z" fill="#88B2FC"/>
<path fill-rule="evenodd" clip-rule="evenodd" d="M686.615 178.376C688.818 184.742 688.398 191.723 685.448 197.779C682.498 203.835 677.26 208.469 670.889 210.658L378.422 311.402L362.616 290.096L361.889 263.428L654.367 162.661C660.728 160.468 667.698 160.892 673.746 163.839C679.794 166.786 684.423 172.015 686.615 178.376V178.376Z" stroke="#141414" stroke-width="1.31"/>
<path d="M378.734 297.936L687.999 189.456L378.734 297.936Z" fill="white"/>
<path d="M378.734 297.936L687.999 189.456" stroke="#141414" stroke-width="1.31" stroke-linecap="round"/>
<path d="M473.897 225.197C489.554 206.3 494.904 214.278 495.354 219.663C495.826 225.324 502.271 224.274 498.812 212.295C502.928 220.792 504.439 224.482 505.949 219.663C506.998 216.331 505.465 212.814 504.416 210.969C503.908 210.174 503.597 209.655 503.597 209.655C503.892 210.079 504.165 210.518 504.416 210.969C506.387 214.013 511.23 221.15 511.898 218.533C512.682 215.224 509.224 207.292 509.224 207.292C509.224 207.292 515.08 217.207 516.21 215.881C517.34 214.555 513.374 204.836 513.374 204.836C513.374 204.836 524.327 206.45 523.751 202.53C523.289 199.29 493.048 180.624 449.651 206.773C452.833 214.232 458.84 221.565 473.897 225.197Z" fill="#81D9FC" stroke="#141414" stroke-width="1.31"/>
<path d="M622.189 403.026H711.899V521.145H622.189V403.026Z" fill="#81D9FC" stroke="#141414" stroke-width="1.31" stroke-linecap="round"/>
<path opacity="0.34" d="M738.244 352.504H882.627V367.239H738.244V352.504Z" fill="white"/>
<path opacity="0.34" d="M900.785 352.504H959.286V367.239H900.785V352.504Z" fill="white"/>
<path opacity="0.34" d="M622.189 220.343H711.899V385.675H622.189V220.343Z" fill="white"/>
<path d="M417.242 314.78C437.038 330.702 475.327 336.801 539.269 319.484C591.463 285.242 579.887 228.344 579.887 228.344C579.887 228.344 531.544 226.177 463.002 282.256C462.944 289.531 454.759 296.195 454.759 296.195L417.242 314.78Z" fill="#F9DF8C"/>
<path opacity="0.52" d="M417.242 314.78C417.94 314.214 418.762 313.819 419.64 313.627L417.242 314.78C437.038 330.702 475.327 336.801 539.269 319.484C563.481 303.585 573.996 282.786 578.273 265.077C571.136 255.254 558.35 251.241 554.961 254.274C554.961 254.274 543.8 243.159 506.618 293.047C481.449 326.828 442.215 333.608 417.588 315.057" fill="#F9B121"/>
<path d="M367.366 286.083L685.197 175.067L367.366 286.083Z" fill="white"/>
<path d="M367.366 286.083L685.197 175.067" stroke="#141414" stroke-width="1.31" stroke-linecap="round"/>
<path d="M554.188 601.205C561.244 554.373 634.744 480.4 634.744 480.4C634.744 440.151 546.383 398.806 546.383 398.806C546.383 398.806 472.871 480.585 457.872 567.447C457.865 567.493 457.865 567.54 457.872 567.585C448.118 617.923 459.543 677.23 490.776 759.308C505.21 757.866 519.29 753.967 532.409 747.779C548.723 740.079 563.077 728.777 574.388 714.724C569.51 702.623 565.371 690.236 561.994 677.634C554.315 648.96 551.214 621.093 554.188 601.205Z" fill="#88B2FC"/>
<path opacity="0.49" d="M554.188 601.205C561.244 554.373 634.744 480.4 634.744 480.4C634.744 479.777 634.721 479.155 634.675 478.532C634.675 478.313 634.675 478.094 634.617 477.875C634.617 477.472 634.548 477.068 634.491 476.665C634.433 476.261 634.41 476.169 634.375 475.915C634.341 475.661 634.26 475.166 634.191 474.762C634.122 474.359 634.064 474.22 634.006 473.955C633.949 473.69 633.856 473.252 633.764 472.894C633.672 472.537 633.614 472.341 633.534 472.064C633.453 471.788 633.338 471.373 633.234 471.038C633.13 470.704 633.038 470.462 632.946 470.173C632.853 469.885 632.727 469.505 632.6 469.17L632.254 468.294C632.127 467.971 632 467.649 631.862 467.326C631.724 467.003 631.597 466.726 631.458 466.426L631.02 465.469C630.87 465.17 630.72 464.87 630.559 464.57C630.398 464.27 630.248 463.936 630.086 463.625L629.579 462.702C629.406 462.403 629.245 462.103 629.06 461.792C628.876 461.48 628.691 461.169 628.495 460.858L627.953 459.97C627.757 459.659 627.538 459.336 627.331 459.025L626.754 458.148C626.547 457.837 626.316 457.514 626.097 457.203C625.878 456.892 625.694 456.626 625.486 456.35L624.771 455.381L624.137 454.551L623.376 453.571L622.719 452.764L621.9 451.784L621.243 451C620.955 450.666 620.667 450.331 620.367 450.009L619.698 449.248L618.764 448.233L618.096 447.507L617.104 446.481L616.436 445.789L615.398 444.74L614.741 444.094L613.588 443.022L612.931 442.411L611.778 441.327L611.144 440.739L609.933 439.644L609.322 439.102L608.031 437.949L607.466 437.476L606.105 436.323L605.575 435.885L604.157 434.732L603.661 434.34L602.174 433.187L601.736 432.841L600.168 431.608C600.04 431.518 599.916 431.422 599.799 431.319L598.138 430.063L597.85 429.844L596.098 428.541L595.902 428.391C595.291 427.941 594.68 427.492 594.057 427.053L593.942 426.973L592.005 425.578C571.482 413.772 551.121 405.678 539.2 407.246C538.704 407.834 538.197 408.468 537.667 409.125L537.517 409.31L535.799 411.443C547.593 418.925 591.048 448.417 598.219 481.161C606.52 519.116 545.08 527.048 527.463 575.391C514.654 610.521 525.157 681.773 557.255 731.983C560.771 729.102 564.12 726.023 567.286 722.76C567.966 722.056 568.6 721.376 569.223 720.708L569.338 720.569C569.926 719.947 570.491 719.324 570.998 718.725L571.194 718.505C571.69 717.94 572.14 717.353 572.589 716.88C572.67 716.764 572.774 716.661 572.854 716.557C573.362 715.946 573.846 715.404 574.296 714.781C569.418 702.68 565.279 690.294 561.901 677.691C554.315 648.96 551.214 621.093 554.188 601.205Z" fill="#C10865"/>
<path fill-rule="evenodd" clip-rule="evenodd" d="M554.188 601.205C561.244 554.373 634.744 480.4 634.744 480.4C634.744 440.151 546.383 398.806 546.383 398.806C546.383 398.806 472.871 480.585 457.872 567.447C457.865 567.493 457.865 567.54 457.872 567.585C448.118 617.923 459.543 677.23 490.776 759.308C505.21 757.866 519.29 753.967 532.409 747.779C548.723 740.079 563.077 728.777 574.388 714.724C569.51 702.623 565.371 690.236 561.994 677.634C554.315 648.96 551.214 621.093 554.188 601.205V601.205Z" stroke="#141414" stroke-width="1.31" stroke-linecap="round"/>
<path d="M417.242 314.78C437.038 330.702 475.327 336.801 539.269 319.484C591.463 285.242 579.887 228.344 579.887 228.344C579.887 228.344 531.544 226.177 463.002 282.256C463.002 282.256 445.016 296.863 442.526 302.259" stroke="#141414" stroke-width="1.31" stroke-linecap="round"/>
<path d="M541.621 257.94C541.621 257.94 541.863 312.186 495.042 381.166C516.187 383.934 603.292 416.666 646.078 468.79C662.438 458.218 694.916 358.015 662.219 273.678C646.862 238.432 598.749 225.001 579.899 228.356" fill="#F9DF8C"/>
<path opacity="0.52" d="M674.682 325.503C673.613 324.764 672.286 324.502 671.016 324.776C679.582 348.688 664.974 447.38 645.34 429.452C612.308 389.272 517.778 380.832 496.207 379.403C495.815 379.991 495.446 380.556 495.054 381.167C516.199 383.934 603.304 416.666 646.089 468.79C659.175 460.328 682.545 394.61 674.682 325.503Z" fill="#F9B121"/>
<path d="M541.621 257.94C541.621 257.94 541.863 312.186 495.042 381.166C516.187 383.934 603.292 416.666 646.078 468.79C662.438 458.218 694.916 358.015 662.219 273.678C646.862 238.432 598.749 225.001 579.899 228.356" stroke="#141414" stroke-width="1.31" stroke-linecap="round"/>
<path d="M490.477 404.882C490.477 404.882 471.857 407.915 473.102 392.292C474.393 375.92 504.358 364.091 589.445 407.903C674.532 451.715 662.715 483.179 638.791 481.415C614.868 479.651 582.654 401.816 490.477 404.882Z" fill="#F9DF8C"/>
<path opacity="0.52" d="M653.514 458.264C653.514 458.264 640.832 479.097 614.879 448.129C588.926 417.161 515.08 384.406 482.026 404.571C484.808 405.132 487.665 405.221 490.477 404.836C582.654 401.816 614.879 479.605 638.791 481.369C651.762 482.325 661.17 473.505 653.514 458.264Z" fill="#F9B121"/>
<path fill-rule="evenodd" clip-rule="evenodd" d="M490.477 404.882C490.477 404.882 471.857 407.915 473.102 392.292C474.393 375.92 504.358 364.091 589.445 407.903C674.532 451.715 662.715 483.179 638.791 481.415C614.868 479.651 582.654 401.816 490.477 404.882Z" stroke="#141414" stroke-width="1.31"/>
<path d="M532.87 379.598C532.87 379.598 535.384 400.178 546.152 399.417C556.921 398.657 566.675 376.001 551.975 369.21C537.275 362.42 532.87 379.598 532.87 379.598Z" fill="#141414" stroke="#141414" stroke-width="1.31" stroke-linecap="round"/>
<path d="M542.832 352.009C516.879 358.338 506.272 368.15 504.704 369.014C502.398 370.34 506.122 373.626 513.005 372.612C506.595 378.653 501.683 390.448 503.378 392.719C505.073 394.99 511.968 385.167 511.968 385.167C511.968 385.167 504.231 399.417 506.491 401.308C508.751 403.199 516.695 387.715 516.695 387.715C516.695 387.715 510.273 402.438 514.619 403.003C518.966 403.568 521.226 389.318 521.226 389.318C521.226 389.318 521.226 403.026 524.627 403.026C531.983 403.026 518.862 381.547 550.049 389.099L551.202 389.306C554.315 376.059 547.605 360.725 542.832 352.009Z" fill="#81D9FC" stroke="#141414" stroke-width="1.31" stroke-linecap="round"/>
<path d="M621.174 298.812C634.006 310.134 645.847 345.379 586.932 346.636C579.541 346.797 572.739 347.247 566.502 347.916C558.531 348.744 550.623 350.099 542.832 351.974C547.605 360.69 554.361 376.071 551.156 389.272C550.297 392.986 548.584 396.448 546.152 399.383C556.529 403.407 653.376 397.792 674.129 387.934C706.204 377.316 725.146 355.006 713.329 315.46C673.103 204.202 591.659 223.629 591.659 223.629" fill="#F9DF8C"/>
<path opacity="0.52" d="M713.386 315.483C686.396 240.9 640.901 225.024 613.841 222.718C604.364 237.153 596.674 272.029 601.724 269.539C601.724 269.539 618.407 269.919 621.174 246.261C623.941 222.602 673.541 260.603 696.196 298.143C718.851 335.683 679.075 358.315 652.384 358.822C625.694 359.33 651.623 380.279 611.593 384.522C571.563 388.764 554.811 362.085 546.948 360.575C550.545 369.072 553.45 379.794 551.156 389.398C550.297 393.112 548.584 396.574 546.152 399.51C556.529 403.534 653.376 397.919 674.129 388.061C706.238 377.339 725.181 355.029 713.386 315.483Z" fill="#F9B121"/>
<path d="M621.174 298.812C634.006 310.134 645.847 345.379 586.932 346.636C579.541 346.797 572.739 347.247 566.502 347.916C558.531 348.744 550.623 350.099 542.832 351.974C547.605 360.69 554.361 376.071 551.156 389.272C550.297 392.986 548.584 396.448 546.152 399.383C556.529 403.407 653.376 397.792 674.129 387.934C706.204 377.316 725.146 355.006 713.329 315.46C673.103 204.202 591.659 223.629 591.659 223.629" stroke="#141414" stroke-width="1.31" stroke-linecap="round"/>
<path d="M374.399 269.239L674.106 164.021L374.399 269.239Z" fill="white"/>
<path d="M374.399 269.239L674.106 164.021" stroke="#141414" stroke-width="1.31" stroke-linecap="round"/>
<path d="M582.585 270.081C582.585 270.081 549.542 246.284 583.438 213.333C606.878 190.551 643.288 213.529 635.321 227.168C626.097 225.185 615.029 227.733 614.845 239.066C614.66 250.4 612.297 268.051 599.361 270.127" fill="#F9DF8C"/>
<path d="M390.759 259.67C390.759 259.67 385.594 260.338 385.847 266.587C386.101 272.836 404.144 260.373 406.404 266.115C408.664 271.856 426.8 266.61 423.03 255.242C419.26 243.874 390.759 259.67 390.759 259.67Z" fill="white"/>
<path d="M436.323 250.123C436.323 250.123 427.238 250.999 428.252 257.836C429.267 264.673 451.173 250.169 436.323 250.123Z" fill="white"/>
<path opacity="0.52" d="M577.362 223.029C577.362 223.029 619.422 199.97 636.162 225.173C639.921 211.488 605.805 191.611 583.45 213.333C579.92 216.701 576.79 220.465 574.123 224.551C575.231 224.106 576.312 223.598 577.362 223.029Z" fill="#F9B121"/>
<path d="M582.585 270.081C582.585 270.081 549.542 246.284 583.438 213.333C606.878 190.551 643.288 213.529 635.321 227.168C626.097 225.185 615.029 227.733 614.844 239.067C614.66 250.4 612.296 268.052 599.36 270.127" stroke="#141414" stroke-width="1.31" stroke-linecap="round"/>
<path d="M564.784 186.562C564.784 186.562 553.704 235.896 579.887 228.344C580.637 249.996 580.637 261.33 596.248 257.052C611.858 252.775 595.74 196.119 584.718 183.264C573.696 170.409 564.565 181.523 564.784 186.562Z" fill="#81D9FC" stroke="#141414" stroke-width="1.31"/>
<path d="M588.062 195.116C588.062 195.116 585.329 195.301 586.182 203.902C587.036 212.503 581.836 196.754 583.254 190.066C584.672 183.379 555.964 200.166 545.115 190.066C534.265 179.967 539.534 159.952 552.666 161.243C565.798 162.534 571.171 171.446 574.941 164.356C578.711 157.265 600.721 160.021 601.666 173.902C602.612 187.784 593.354 191.738 599.015 194.759C604.676 197.78 598 207.73 593.63 204.271C589.261 200.812 590.713 194.932 588.062 195.116Z" fill="#DB2323" stroke="#141414" stroke-width="1.31"/>
<path d="M610.037 167.549C614.628 167.549 618.349 163.828 618.349 159.237C618.349 154.646 614.628 150.924 610.037 150.924C605.446 150.924 601.724 154.646 601.724 159.237C601.724 163.828 605.446 167.549 610.037 167.549Z" fill="#DB2323" stroke="#141414" stroke-width="1.31"/>
<path d="M504.393 210.969C504.142 210.518 503.869 210.079 503.574 209.655C503.574 209.655 503.885 210.174 504.393 210.969Z" fill="white" stroke="#141414" stroke-width="1.31"/>
<path d="M602.612 766.699C591.693 751.952 582.136 733.886 574.388 714.747C563.077 728.8 548.723 740.102 532.409 747.802C553.335 766.249 572.762 778.412 582.205 786.864C591.378 783.062 598.701 775.826 602.612 766.699Z" fill="#81D9FC"/>
<path fill-rule="evenodd" clip-rule="evenodd" d="M602.612 766.698C591.693 751.952 582.136 733.886 574.388 714.747C563.077 728.8 548.723 740.102 532.409 747.802C553.335 766.249 572.762 778.412 582.205 786.863C591.378 783.062 598.701 775.825 602.612 766.698V766.698Z" stroke="#141414" stroke-width="1.31" stroke-linecap="round"/>
<path d="M585.421 790.022C602.543 809.161 582.401 854.472 583.911 858.507C585.421 862.542 617.139 800.595 614.625 780.96C610.304 776.482 606.291 771.717 602.612 766.698C598.701 775.826 591.378 783.062 582.205 786.863C583.332 787.859 584.406 788.913 585.421 790.022Z" fill="#141414" stroke="#141414" stroke-width="1.31" stroke-linecap="round"/>
<path d="M667.038 613.565C658.437 613.657 646.17 613.622 632.669 613.023C633.855 625.736 637.709 638.056 643.979 649.179C652.453 647.208 661.135 644.994 670.013 642.481C673.414 631.378 669.552 619.502 667.038 613.565Z" fill="#81D9FC" stroke="#141414" stroke-width="1.31" stroke-linecap="round"/>
<path d="M712.314 683.283C713.248 673.587 682.476 613.034 682.476 613.034C682.476 613.034 674.797 613.484 667.038 613.576C669.551 619.502 673.414 631.378 670.013 642.492C694.686 660.616 711.542 691.204 712.314 683.283Z" fill="#141414" stroke="#141414" stroke-width="1.31" stroke-linecap="round"/>
<path d="M372.15 290.096C359.03 288.205 377.246 275.557 374.041 267.717C370.836 259.877 362.028 263.82 361.244 263.659L321.144 295.664C324.545 298.432 329.918 304.081 328.12 311.172L377.788 311.667C392.292 304.069 385.271 291.975 372.15 290.096Z" fill="#B5F4EF"/>
<path opacity="0.51" d="M325.675 300.414C328.076 303.445 328.975 307.401 328.12 311.171L377.788 311.667C390.298 305.118 386.793 295.226 377.166 291.41C359.468 302.386 347.028 294.777 325.675 300.414H325.675Z" fill="#1CA4E8"/>
<path fill-rule="evenodd" clip-rule="evenodd" d="M372.15 290.096C359.03 288.205 377.246 275.557 374.041 267.717C370.836 259.877 362.028 263.82 361.244 263.659L321.144 295.664C324.545 298.431 329.918 304.081 328.12 311.171L377.788 311.667C392.292 304.069 385.271 291.975 372.15 290.096V290.096Z" stroke="#141414"/>
<path d="M321.144 295.664L302.028 310.918L328.12 311.171C329.918 304.081 324.545 298.431 321.144 295.664Z" fill="#141414" stroke="#141414"/>
<path d="M684.678 665.136C684.678 665.136 675.789 672.33 679.72 676.815C683.652 681.3 684.678 665.136 684.678 665.136Z" fill="white" stroke="white"/>
<path d="M680.458 660.974C680.458 660.974 669.298 658.529 668.249 664.433C667.2 670.336 680.458 660.974 680.458 660.974Z" fill="white" stroke="white"/>
<path d="M581.513 811.778C581.513 811.778 570.133 812.931 570.964 818.846C571.794 824.76 581.513 811.778 581.513 811.778Z" fill="white" stroke="white"/>
<path d="M580.256 805.991C580.256 805.991 572.255 797.828 568.162 802.174C564.069 806.521 580.256 805.991 580.256 805.991Z" fill="white" stroke="white"/>
<path d="M579.887 228.344C579.887 228.344 588.258 226.211 589.768 223.444C591.278 220.677 591.52 232.76 580.141 235.458C580.037 232.437 579.887 228.344 579.887 228.344H579.887Z" fill="#141414" stroke="#141414"/>
<path d="M199.924 130.298C202.535 130.298 204.651 128.181 204.651 125.571C204.651 122.96 202.535 120.844 199.924 120.844C197.313 120.844 195.197 122.96 195.197 125.571C195.197 128.181 197.313 130.298 199.924 130.298Z" fill="#5CC9FF" stroke="#141414" stroke-linecap="round"/>
<path d="M227.226 130.298C229.836 130.298 231.953 128.181 231.953 125.571C231.953 122.96 229.836 120.844 227.226 120.844C224.615 120.844 222.499 122.96 222.499 125.571C222.499 128.181 224.615 130.298 227.226 130.298Z" fill="#5CC9FF" stroke="#141414" stroke-linecap="round"/>
<path d="M254.527 130.298C257.138 130.298 259.254 128.181 259.254 125.571C259.254 122.96 257.138 120.844 254.527 120.844C251.917 120.844 249.8 122.96 249.8 125.571C249.8 128.181 251.917 130.298 254.527 130.298Z" fill="#5CC9FF" stroke="#141414" stroke-linecap="round"/>
<path d="M870.913 318.274C902.82 318.274 928.687 292.407 928.687 260.5C928.687 228.592 902.82 202.726 870.913 202.726C839.005 202.726 813.139 228.592 813.139 260.5C813.139 292.407 839.005 318.274 870.913 318.274Z" fill="#F9DF8C" stroke="#141414"/>
<path d="M854.022 264.892C854.022 264.892 845.329 261.214 845.329 252.717C845.329 244.22 855.533 237.233 859.971 236.853C864.41 236.472 854.022 264.892 854.022 264.892Z" fill="#141414" stroke="#141414" stroke-linecap="round"/>
<path d="M870.913 318.273C880.142 318.28 889.237 316.066 897.43 311.817C895.067 286.452 888.391 238.213 875.421 238.352C858.622 238.548 856.732 246.849 856.732 246.849C856.732 246.849 835.183 294.062 863.177 295.353C861.92 302.755 860.744 310.503 859.718 317.167C863.404 317.901 867.154 318.271 870.913 318.273Z" fill="#81D9FC" stroke="#141414" stroke-linecap="round"/>
<path d="M877.531 228.817C877.531 228.817 859.775 229.289 852.604 238.351C845.433 247.414 857.32 267.625 877.715 267.809C881.301 269.7 878.096 282.913 880.021 282.913C881.946 282.913 883.042 265.353 886.062 265.918C889.083 266.483 891.827 271.614 891.827 271.614C891.827 271.614 900.751 228.817 877.531 228.817V228.817Z" fill="#DB2323" stroke="#141414" stroke-linecap="round"/>
<path d="M900.785 236.841C905.338 236.841 909.029 233.15 909.029 228.598C909.029 224.045 905.338 220.354 900.785 220.354C896.233 220.354 892.542 224.045 892.542 228.598C892.542 233.15 896.233 236.841 900.785 236.841Z" fill="#DB2323" stroke="#141414" stroke-linecap="round"/>
<path d="M863.177 295.353C863.177 295.353 874.06 296.391 880.471 292.24C880.471 296.956 871.708 304.196 861.609 305.003C862.473 299.527 863.177 295.353 863.177 295.353Z" fill="#141414" stroke="#141414" stroke-linecap="round"/>
<path d="M870.336 383.53V481.438H673.414" stroke="#141414"/>
<path d="M173.798 355.237H147.361V631.113H173.798" stroke="#141414" stroke-linecap="round"/>
<path d="M673.979 491.941C679.926 491.941 684.747 487.12 684.747 481.173C684.747 475.225 679.926 470.404 673.979 470.404C668.032 470.404 663.21 475.225 663.21 481.173C663.21 487.12 668.032 491.941 673.979 491.941Z" fill="white" stroke="#141414"/>
<path d="M759.642 210.474H795.141" stroke="white"/>
<path d="M933.229 232.379H956.265" stroke="white"/>
<path d="M738.244 232.379H795.141" stroke="white"/>
<path d="M738.244 254.285H795.141" stroke="white"/>
<path d="M738.244 276.18H795.141" stroke="white"/>
<path d="M738.244 298.086H795.141" stroke="white"/>
<path d="M738.244 319.992H795.141" stroke="white"/>
<path fill-rule="evenodd" clip-rule="evenodd" d="M944.747 217.391C951.108 217.391 956.265 212.235 956.265 205.873C956.265 199.512 951.108 194.355 944.747 194.355C938.386 194.355 933.229 199.512 933.229 205.873C933.229 212.235 938.386 217.391 944.747 217.391Z" stroke="white"/>
<path d="M944.747 162.73H961.107H944.747Z" fill="#5CC9FF"/>
<path d="M944.747 162.73H961.107" stroke="#141414" stroke-linecap="round"/>
<path d="M761.441 124.118H777.801H761.441Z" fill="#5CC9FF"/>
<path d="M761.441 124.118H777.801" stroke="#141414" stroke-linecap="round"/>
<path fill-rule="evenodd" clip-rule="evenodd" d="M204.651 155.847H244.036V168.495H204.651V155.847Z" stroke="white"/>
<path d="M199.071 177.303H211.223V189.455H199.071V177.303Z" fill="#141414" stroke="#141414" stroke-linecap="round"/>
<path d="M198.414 515.069H210.566V527.221H198.414V515.069Z" fill="#141414" stroke="#141414" stroke-linecap="round"/>
<path d="M601.805 886.858C677.432 886.858 738.74 883.467 738.74 879.283C738.74 875.1 677.432 871.708 601.805 871.708C526.178 871.708 464.87 875.1 464.87 879.283C464.87 883.467 526.178 886.858 601.805 886.858Z" fill="#141414" stroke="#141414" stroke-linecap="round"/>
<path d="M202.945 650.194C213.063 650.194 221.265 641.991 221.265 631.873C221.265 621.755 213.063 613.553 202.945 613.553C192.827 613.553 184.624 621.755 184.624 631.873C184.624 641.991 192.827 650.194 202.945 650.194Z" fill="white" stroke="#141414" stroke-linecap="round"/>
<path d="M231.572 620.713H282.175" stroke="#141414" stroke-linecap="round"/>
<path d="M231.572 631.113H328.419" stroke="#141414" stroke-linecap="round"/>
<path d="M231.572 641.512H328.419" stroke="#141414" stroke-linecap="round"/>
<path d="M548.781 187.945C548.781 187.945 541.587 183.414 542.832 176.047C544.077 168.679 546.717 185.109 549.749 181.996C552.782 178.883 554.442 190.966 548.781 187.945Z" fill="white"/>
<path d="M452.729 300.668C452.729 300.668 467.268 281.403 476.33 281.968C485.392 282.532 461.976 294.062 467.833 297.936C473.69 301.81 443.091 315.253 452.729 300.668Z" fill="white"/>
<path d="M480.273 279.131C480.273 279.131 482.89 271.971 485.727 273.666C488.563 275.361 481.242 283.27 480.273 279.131Z" fill="white"/>
<path d="M432.853 219.478C432.853 219.478 441.557 204.836 443.368 207.764C445.178 210.693 439.528 216.723 443.368 217.622C447.207 218.521 429.463 229.105 432.853 219.478Z" fill="white"/>
<path d="M555.964 355.421C555.964 355.421 574.088 347.489 576.175 355.421C578.262 363.354 578.619 353.116 582.585 358.258C586.551 363.4 539.35 366.19 555.964 355.421Z" fill="white"/>
<path d="M585.652 356.551C585.652 356.551 583.346 350.706 589.388 351.086C595.429 351.467 595.141 357.693 585.652 356.551Z" fill="white"/>
<path d="M601.724 353.876C601.724 353.876 631.112 350.89 638.86 328.984C646.608 307.078 629.867 295.007 629.867 295.007" stroke="white" stroke-width="1.31" stroke-linecap="round"/>
<path d="M491.929 271.971C491.929 271.971 509.869 256.983 528.374 250.065" stroke="white" stroke-width="1.31" stroke-linecap="round"/>
<path d="M454.943 209.113C454.943 209.113 478.175 195.116 496.449 197.757" stroke="white" stroke-width="1.31" stroke-linecap="round"/>
<path d="M570.502 171.47C571.843 171.433 573.124 170.913 574.111 170.005" stroke="white" stroke-width="1.31" stroke-linecap="round"/>
<path d="M544.965 170.005C544.965 170.005 547.052 161.692 555.537 165.855C558.512 167.296 561.175 168.679 563.608 169.705" stroke="white" stroke-width="1.31" stroke-linecap="round"/>
<path d="M536.894 314.78C532.663 328.292 526.172 343.073 516.28 355.041" stroke="white" stroke-width="1.31" stroke-linecap="round"/>
<path d="M541.321 297.936C540.745 300.668 540.065 303.585 539.269 306.617" stroke="white" stroke-width="1.31" stroke-linecap="round"/>
<path d="M478.394 398.357C476.676 395.696 476.308 392.382 477.402 389.41C479.305 384.498 485.911 382.423 485.162 386.205C484.412 389.986 481.38 395.521 484.597 396.051C487.813 396.581 483.732 402.577 478.394 398.357Z" fill="white"/>
<path d="M488.563 388.084C488.563 388.084 487.986 383.253 493.094 384.256C498.201 385.259 489.877 391.301 488.563 388.084Z" fill="white"/>
<path d="M466.565 624.368C466.565 624.368 456.5 596.697 466.565 583.577C476.63 570.456 478.717 645.513 466.565 624.368Z" fill="white"/>
<path d="M468.525 573.35C468.525 573.35 464.916 564.945 468.525 558.362C472.133 551.779 481.08 567.286 468.525 573.35Z" fill="white"/>
<path d="M473.644 670.486C476.076 683.267 479.174 695.913 482.925 708.371" stroke="white" stroke-width="1.31" stroke-linecap="round"/>
<path d="M470.969 654.171C471.261 656.254 471.572 658.353 471.903 660.466" stroke="white" stroke-width="1.31" stroke-linecap="round"/>
<path d="M469.182 638.503C469.355 640.405 469.539 642.319 469.747 644.268" stroke="white" stroke-width="1.31" stroke-linecap="round"/>
<path d="M477.518 538.508C476.749 541.414 475.98 544.381 475.212 547.409" stroke="white" stroke-width="1.31" stroke-linecap="round"/>
<path d="M482.96 521.018C482.129 523.324 481.322 525.803 480.538 528.259" stroke="white" stroke-width="1.31" stroke-linecap="round"/>
<path d="M524.419 446.757C514.908 458.045 498.697 480.193 486.084 512.579" stroke="white" stroke-width="1.31" stroke-linecap="round"/>
<path d="M532.398 438.064C532.398 438.064 531.245 439.102 529.365 441.166" stroke="white" stroke-width="1.31" stroke-linecap="round"/>
<path d="M428.702 575.022C428.702 575.022 424.736 553.497 430.593 539.143C436.45 524.788 428.702 553.312 435.504 552.551C442.307 551.79 431.538 589.745 428.702 575.022Z" fill="white"/>
<path d="M434.179 528.247C434.179 528.247 434.64 519.877 437.718 515.911C440.796 511.945 435.873 534.565 434.179 528.247Z" fill="white"/>
<path d="M446.55 487.375C451.749 474.947 460.062 456.615 466.922 448.51" stroke="white" stroke-width="1.31" stroke-linecap="round"/>
<path d="M441.546 499.873C441.546 499.873 442.261 497.982 443.483 494.893" stroke="white" stroke-width="1.31" stroke-linecap="round"/>
<path d="M853.204 210.474C853.204 210.474 824.841 225.024 825.602 243.69C826.363 262.356 841.086 218.717 857.884 217.391C874.683 216.065 864.145 203.383 853.204 210.474Z" fill="white"/>
<path d="M824.092 252.844C820.329 254.164 817.98 257.91 818.431 261.872C818.996 268.939 833.534 255.069 824.092 252.844V252.844Z" fill="white"/>
<path d="M479.259 238.651L554.453 213.24" stroke="white" stroke-width="1.31" stroke-linecap="round"/>
<path d="M463.798 243.874L470.358 241.661" stroke="white" stroke-width="1.31" stroke-linecap="round"/>
<path d="M622.016 189.432L659.44 176.785" stroke="white" stroke-width="1.31" stroke-linecap="round"/>
<path d="M606.566 194.655L613.115 192.441" stroke="white" stroke-width="1.31" stroke-linecap="round"/>
<path d="M445.293 250.123L453.306 247.414" stroke="white" stroke-width="1.31" stroke-linecap="round"/>
<path d="M349.518 281.956C349.518 281.956 331.071 288.608 333.665 293.554C336.259 298.501 357.958 284.181 349.518 281.956Z" fill="white"/>
<path d="M354.822 279.05C354.822 279.05 358.223 271.349 360.794 275.096C363.365 278.843 358.096 281.518 354.822 279.05Z" fill="white"/>
<path d="M683.041 164.022C683.041 164.022 697.58 156.228 702.307 160.563C707.034 164.898 688.898 165.071 692.668 169.982C696.438 174.894 676.965 166.743 683.041 164.022Z" fill="white"/>
<path d="M706.642 157.161C706.642 157.161 711.369 153.391 714.954 155.086C718.54 156.781 702.918 162.822 706.642 157.161Z" fill="white"/>
<path d="M574.111 235.458C574.111 235.458 568.854 251.253 585.191 265.861" stroke="white"/>
<path d="M569.315 202.161C569.315 202.922 569.188 209.471 567.804 212.537C566.421 215.604 571.136 213.863 573.154 213.229" stroke="#141414"/>
<path d="M675.87 653.572C675.87 653.572 685.001 652.419 684.678 642.803" stroke="white"/>
<path d="M681.704 658.103C681.704 658.103 690.835 656.95 690.512 647.346" stroke="white"/>
<path d="M687.537 662.646C687.537 662.646 696.657 661.493 696.346 651.877" stroke="white"/>
<path d="M585.998 804.803C585.998 804.803 591.636 812.078 599.753 806.89" stroke="white"/>
<path d="M585.076 812.136C585.076 812.136 590.713 819.4 598.83 814.211" stroke="white"/>
<path d="M584.165 819.469C584.165 819.469 589.803 826.732 597.919 821.544" stroke="white"/>
<path d="M571.782 218.752C571.392 218.852 571.074 219.132 570.925 219.506C570.777 219.88 570.817 220.303 571.033 220.643C572.329 222.728 574.831 223.729 577.208 223.114C579.586 222.498 581.288 220.409 581.409 217.956C581.429 217.557 581.258 217.173 580.949 216.92C580.639 216.668 580.228 216.577 579.841 216.677L571.782 218.752Z" fill="white" stroke="#141414"/>
<path d="M576.78 201.499C579.476 201.152 581.556 200.046 581.425 199.029C581.294 198.012 579.002 197.469 576.305 197.817C573.609 198.164 571.529 199.27 571.66 200.287C571.791 201.304 574.083 201.846 576.78 201.499Z" fill="white" stroke="#141414"/>
<path d="M574.584 198.137C572.785 198.633 571.563 199.463 571.667 200.247C571.771 201.031 573.154 201.527 575.022 201.561C576.002 201.158 576.648 200.408 576.544 199.624C576.44 198.84 575.633 198.264 574.584 198.137V198.137Z" fill="#141414"/>
<path d="M560.863 204.031C563.559 203.684 565.639 202.578 565.508 201.561C565.377 200.544 563.085 200.001 560.388 200.349C557.692 200.696 555.612 201.802 555.743 202.819C555.874 203.836 558.166 204.378 560.863 204.031Z" fill="white" stroke="#141414" stroke-width="1.31"/>
<path d="M558.662 200.685C556.863 201.181 555.641 202.011 555.745 202.795C555.848 203.579 557.232 204.075 559.1 204.098C560.08 203.706 560.725 202.945 560.622 202.161C560.37 201.287 559.571 200.685 558.662 200.685Z" fill="#141414"/>
</svg>
