<svg width="136" height="135" viewBox="0 0 136 135" fill="none" xmlns="http://www.w3.org/2000/svg">
<mask id="mask0_0_6517" style="mask-type:alpha" maskUnits="userSpaceOnUse" x="1" y="0" width="134" height="134">
<circle cx="67.8652" cy="67.0967" r="66.7784" fill="white"/>
</mask>
<g mask="url(#mask0_0_6517)">
<path d="M26.8341 148.055L34.0429 117.687C62.4646 105.871 93.6123 102.191 124.005 107.059C124.005 107.059 148.488 266.227 148.488 274.043C106.783 287.234 61.8488 285.976 20.9473 270.472C15.8227 262.006 40.6226 239.914 26.8341 148.055Z" fill="#F897A2"/>
<mask id="mask1_0_6517" style="mask-type:alpha" maskUnits="userSpaceOnUse" x="20" y="104" width="129" height="180">
<path fill-rule="evenodd" clip-rule="evenodd" d="M26.8341 148.055L34.0429 117.688C62.4646 105.871 93.6123 102.192 124.005 107.059C124.005 107.059 148.488 266.227 148.488 274.043C106.783 287.234 61.8488 285.976 20.9473 270.472C15.8227 262.006 40.6226 239.915 26.8341 148.055Z" fill="white"/>
</mask>
<g mask="url(#mask1_0_6517)">
<ellipse cx="76.6373" cy="112.964" rx="29.9067" ry="29.596" fill="#7F7BDD"/>
<ellipse cx="76.6373" cy="107.68" rx="27.2052" ry="29.596" fill="#7F7BDD"/>
</g>
<path d="M82.2302 106.801C107.599 109.403 119.959 100.947 119.959 100.947C98.4923 86.6361 121.26 75.5776 107.598 62.5678C93.9359 49.558 105.437 29.6457 82.2285 26.4656L79.3011 35.5724C87.4324 60.291 74.0972 87.124 74.0972 87.124L82.2302 106.801Z" fill="#F1D366"/>
<path d="M54.0585 114.229L59.4623 74.6016L87.1893 79.3179C87.7117 90.087 88.7973 100.821 90.442 111.477" fill="#7F7BDD"/>
<mask id="mask2_0_6517" style="mask-type:alpha" maskUnits="userSpaceOnUse" x="54" y="74" width="37" height="41">
<path fill-rule="evenodd" clip-rule="evenodd" d="M54.0585 114.229L59.4623 74.6016L87.1893 79.3179C87.7116 90.087 88.7973 100.821 90.4419 111.477" fill="white"/>
</mask>
<g mask="url(#mask2_0_6517)">
<path d="M54.4063 88.6095C71.4962 109.728 86.3426 100.976 90.4419 111.477C94.5413 121.978 90.4419 79.3179 90.4419 79.3179L77.974 77.6423L56.7398 85.1093" fill="#505AA8"/>
</g>
<path d="M92.4746 60.9414C104.346 53.6231 106.623 69.9668 90.442 79.3178L92.4746 60.9414Z" fill="#7F7BDD"/>
<path d="M79.3024 35.5718C79.3024 35.5718 56.5345 35.8973 65.641 57.3636C72.1757 72.7669 62.6369 83.6486 63.6941 95.2959C65.6107 96.3997 67.8563 96.789 70.0325 96.3946C91.9043 93.0757 94.1828 74.6365 93.4906 53.2914C79.4951 50.194 79.3024 35.5718 79.3024 35.5718Z" fill="#7F7BDD"/>
<mask id="mask3_0_6517" style="mask-type:alpha" maskUnits="userSpaceOnUse" x="63" y="35" width="31" height="62">
<path fill-rule="evenodd" clip-rule="evenodd" d="M79.3024 35.572C79.3024 35.572 56.5345 35.8975 65.641 57.3638C72.1757 72.7671 62.6369 83.6488 63.6941 95.2961C65.6107 96.3999 67.8563 96.7892 70.0325 96.3949C91.9043 93.076 94.1828 74.6367 93.4906 53.2916C79.4951 50.1942 79.3024 35.572 79.3024 35.572Z" fill="white"/>
</mask>
<g mask="url(#mask3_0_6517)">
<ellipse opacity="0.27" cx="90.4143" cy="73.0355" rx="7.8378" ry="5.96822" transform="rotate(-2.5189 90.4143 73.0355)" fill="#505AA8"/>
<rect x="58.465" y="55.3936" width="5.57302" height="10.2791" rx="2.78651" transform="rotate(1.5954 58.465 55.3936)" fill="#082658"/>
<rect x="79.9024" y="55.1187" width="5.57302" height="10.2791" rx="2.78651" transform="rotate(1.5948 79.9024 55.1187)" fill="#082658"/>
<path d="M60.7382 48.8868C55.0076 50.3862 56.4868 53.5283 60.1305 52.8244C63.7742 52.1205 64.4825 47.9068 60.7382 48.8868Z" fill="#082658"/>
<path d="M82.7086 48.4081C88.3472 50.2244 87.1324 53.0534 83.5326 52.1479C79.9329 51.2425 79.025 47.2215 82.7086 48.4081Z" fill="#082658"/>
<path d="M74.9439 67.399C74.9278 69.2833 73.3212 68.5225 71.3311 68.5053C69.341 68.4881 67.7217 69.2215 67.7379 67.3379C67.8602 65.4264 69.4546 63.9435 71.37 63.9599C73.2853 63.9762 74.8542 65.4861 74.9439 67.3994V67.399Z" fill="#505AA8"/>
<path d="M63.6032 77.8909C66.9993 91.2818 79.414 84.7979 79.1043 76.3626C79.0813 75.9263 78.7878 75.5509 78.3699 75.4232C73.6594 74.2019 68.6723 74.6358 64.2435 76.6524C63.7518 76.8486 63.4789 77.3763 63.6032 77.8909Z" fill="#505AA8"/>
<mask id="mask4_0_6517" style="mask-type:alpha" maskUnits="userSpaceOnUse" x="63" y="74" width="17" height="12">
<path fill-rule="evenodd" clip-rule="evenodd" d="M63.6032 77.8912C66.9993 91.2821 79.414 84.7981 79.1043 76.3629C79.0813 75.9265 78.7878 75.5512 78.3699 75.4235C73.6594 74.2021 68.6723 74.6361 64.2435 76.6527C63.7518 76.8488 63.4789 77.3765 63.6032 77.8912Z" fill="white"/>
</mask>
<g mask="url(#mask4_0_6517)">
<ellipse opacity="0.29" cx="73.7758" cy="84.7421" rx="6.92481" ry="6.18076" transform="rotate(-22.8319 73.7758 84.7421)" fill="#082658"/>
<path d="M65.8408 75.5537C65.8497 76.3503 66.0286 77.1359 66.3655 77.8579C67.9222 79.0964 74.8464 77.8898 75.7319 77.0287C75.8657 75.9909 75.8772 74.9409 75.7662 73.9004L66.8613 74.9761" fill="white"/>
</g>
</g>
<path d="M81.1514 29.8208L82.2302 26.4652C70.8462 16.3825 45.1505 24.1887 42.2247 47.606C39.299 71.0232 18.1555 61.9167 25.6372 77.854C33.1189 93.7912 16.1805 101.64 16.1805 101.64C16.1805 101.64 56.5345 113.631 71.4952 109.728C67.1743 106.068 64.389 100.916 63.6928 95.2958C62.6356 83.6485 72.1737 72.7668 65.6396 57.3635C56.5331 35.8972 79.3011 35.5717 79.3011 35.5717C79.3011 35.5717 79.4937 50.1939 93.4892 53.2889C94.0125 53.4049 94.5118 53.5406 95.0749 53.6223" fill="#F1D366"/>
<path d="M126.354 136.33C128.531 163.276 131.504 199.499 131.976 202.335C132.736 206.89 106.544 253.501 106.544 253.501C109.96 267.624 126.707 279.631 126.707 279.631C126.707 279.631 167.278 217.52 168.417 201.577C169.555 185.634 151.899 97.05 122.291 107.299" fill="#B044BF"/>
<path d="M34.8127 117.688C6.41713 120.812 6.50434 156.669 9.54167 223.476C9.54167 223.476 5.739 241.772 33.5114 252.489C43.6538 252.489 40.497 221.693 40.497 221.693C40.497 221.693 38.682 208.027 37.5019 206.889C36.5748 205.994 39.2399 175.329 40.4242 162.235" fill="#F897A2"/>
<mask id="mask5_0_6517" style="mask-type:alpha" maskUnits="userSpaceOnUse" x="8" y="117" width="33" height="136">
<path fill-rule="evenodd" clip-rule="evenodd" d="M34.8127 117.688C6.41713 120.812 6.50434 156.669 9.54167 223.476C9.54167 223.476 5.739 241.772 33.5114 252.489C43.6538 252.489 40.497 221.693 40.497 221.693C40.497 221.693 38.682 208.027 37.5019 206.889C36.5748 205.994 39.2399 175.329 40.4242 162.235" fill="white"/>
</mask>
<g mask="url(#mask5_0_6517)">
<path d="M-7.30442 119.166C22.1872 145.928 -12.1595 166.212 -11.5277 122.81L-7.30442 119.166Z" fill="#B044BF"/>
<path d="M-8.17551 115.533C20.0223 75.5789 31.4983 113.129 -5.77408 119.951L-8.17551 115.533Z" fill="#B044BF"/>
<path d="M-7.06098 117.002C33.7298 107.674 17.5597 148.569 -8.34959 122.702L-7.06098 117.002Z" fill="#B044BF"/>
</g>
</g>
</svg>
