<svg width="136" height="136" viewBox="0 0 136 136" fill="none" xmlns="http://www.w3.org/2000/svg">
<mask id="mask0_0_6334" style="mask-type:alpha" maskUnits="userSpaceOnUse" x="1" y="1" width="134" height="134">
<circle cx="67.8652" cy="68.0966" r="66.7784" fill="white"/>
</mask>
<g mask="url(#mask0_0_6334)">
<ellipse cx="22.2788" cy="72.9952" rx="29.9513" ry="17.4425" fill="#B044BF"/>
<path d="M79.2087 84.9593C67.7379 113.471 66.4633 123.869 66.4633 123.869L28.8658 116.49L49.2859 65.4429L82.7144 81.9405" fill="#7F7BDD"/>
<ellipse cx="93.5068" cy="45.0752" rx="20.7501" ry="14.0556" fill="#B044BF"/>
<path d="M93.1146 34.7082C91.4466 32.2207 88.9682 30.388 86.1012 29.5218C86.0669 29.5126 86.0326 29.5108 85.9982 29.5023C79.4486 25.9889 72.1197 24.1811 64.6875 24.2458C44.9026 24.2458 28.8634 36.1603 28.8634 50.8559C28.8634 65.5516 44.9026 77.4661 64.6875 77.4661C84.4724 77.4661 100.512 65.5516 100.512 50.8559C100.364 44.687 97.6894 38.8494 93.1146 34.7082Z" fill="#B044BF"/>
<path d="M70.199 88.3666C102.868 106.244 113.547 72.2817 96.8208 44.9114C98.0827 57.606 89.2206 73.1555 61.3885 72.1052C60.3584 77.6411 59.8777 81.4919 59.8777 81.4919" fill="#7F7BDD"/>
<path d="M62.0014 82.3182C36.8296 77.287 40.3356 36.6995 72.7567 66.2175L66.874 74.8107" fill="#7F7BDD"/>
<path d="M26.5035 111.259C7.79605 125.468 -34.0141 192.6 -34.0141 192.6L-17.8997 194.624L22.2802 121.497L26.5035 111.259Z" fill="#B044BF"/>
<path d="M59.0427 114.327C62.7419 112.493 67.0067 112.157 70.9472 113.391C114.21 160.671 122.629 168.393 104.628 185.713C89.0139 200.735 121.25 272.078 118.637 277.87C116.023 283.662 25.87 263.125 16.0706 268.917L19.9904 242.06L37.847 145.69L59.0427 114.327Z" fill="#7F7BDD"/>
<path d="M31.4523 107.713L35.5818 98.8216L39.6094 87.6155C39.6094 87.6155 70.0761 101.168 70.9472 115.995L61.3655 123.682L31.4523 107.713Z" fill="#F3CF57"/>
<path d="M5.4008 266.436C39.056 281.55 76.5578 285.903 112.78 278.898C92.8382 161.513 73.8705 114.037 73.8705 114.037C73.8705 114.037 38.8482 102.508 35.5818 98.8215C-45.9513 149.468 21.9506 217.285 5.4008 266.436Z" fill="#F2C040"/>
<path d="M163.043 198.305C163.043 198.305 172.054 225.698 164.588 237.856L82.3889 257.552C73.3455 259.811 63.9657 255.369 59.9814 246.943L18.3058 156.792C15.4907 150.497 15.407 143.317 18.0746 136.958C20.7423 130.599 25.9233 125.627 32.3872 123.224C45.1169 118.146 59.5554 124.323 64.6737 137.037L94.7748 214.277L163.043 198.305Z" fill="#B044BF"/>
<rect x="93.7147" y="63.5183" width="4.61162" height="8.50631" rx="2.30581" transform="rotate(-7.161 93.7147 63.5183)" fill="#082658"/>
<path d="M97.5549 56.6802C90.6054 57.2419 89.427 60.2999 93.7942 60.2322C98.1613 60.1646 102.095 56.3149 97.5549 56.6802Z" fill="#082658"/>
<path d="M102.927 68.2778C110.442 73.2417 107.139 81.1194 101.905 79.1499L102.927 68.2778Z" fill="#7F7BDD"/>
<circle opacity="0.27" cx="81.2713" cy="77.987" r="7.74406" fill="#505AA8"/>
<path d="M91.23 78.9216C92.1275 80.6639 93.5975 82.0441 95.3928 82.8301" stroke="#013344" stroke-width="2.57517" stroke-linecap="round" stroke-linejoin="round"/>
</g>
</svg>
