<svg width="134" height="136" viewBox="0 0 134 136" fill="none" xmlns="http://www.w3.org/2000/svg">
<mask id="mask0_0_6023" style="mask-type:alpha" maskUnits="userSpaceOnUse" x="0" y="1" width="134" height="134">
<circle cx="67.1059" cy="68.0966" r="66.7784" fill="white"/>
</mask>
<g mask="url(#mask0_0_6023)">
<path d="M94.3485 113.042C94.3485 113.042 94.0443 85.0641 110.486 70.4055L67.6464 62.0681V109.41L94.3485 113.042Z" fill="#FB98A3"/>
<mask id="mask1_0_6023" style="mask-type:alpha" maskUnits="userSpaceOnUse" x="67" y="62" width="44" height="52">
<path fill-rule="evenodd" clip-rule="evenodd" d="M94.3485 113.042C94.3485 113.042 94.0443 85.0641 110.486 70.4055L67.6464 62.0681V109.41L94.3485 113.042Z" fill="white"/>
</mask>
<g mask="url(#mask1_0_6023)">
<path d="M87.7488 69.6733C88.7906 77.9448 90.3903 81.5665 96.0529 84.391C101.716 87.2154 91.0451 99.8911 91.0451 99.8911L111.394 91.8566L108.242 74.3416L87.7488 69.6733Z" fill="#EB5F76"/>
</g>
<path d="M74.7219 70.5075C63.0571 59.8704 59.1517 44.3404 66.0007 35.8203C72.8496 27.3003 87.8556 29.016 99.5208 39.6528C111.186 50.2897 115.091 65.82 108.242 74.3404C104.237 79.3236 97.4408 80.8051 90.1544 79.0485" fill="#FB98A3"/>
<path d="M36.5465 69.6735C36.3295 76.4577 30.6613 81.7857 23.8767 81.5828C17.1315 81.6819 11.524 76.4119 11.2048 69.6735C11.2002 66.379 12.5598 63.2296 14.9605 60.9734C17.3612 58.7172 20.5888 57.5555 23.8767 57.7642C30.6613 57.5613 36.3295 62.8893 36.5465 69.6735Z" fill="#F3CF57"/>
<mask id="mask2_0_6023" style="mask-type:alpha" maskUnits="userSpaceOnUse" x="11" y="57" width="26" height="25">
<path fill-rule="evenodd" clip-rule="evenodd" d="M36.5465 69.6735C36.3295 76.4577 30.6613 81.7857 23.8767 81.5828C17.1314 81.6819 11.524 76.4119 11.2047 69.6735C11.2002 66.379 12.5598 63.2296 14.9605 60.9734C17.3611 58.7172 20.5888 57.5555 23.8767 57.7642C30.6613 57.5613 36.3295 62.8893 36.5465 69.6735Z" fill="white"/>
</mask>
<g mask="url(#mask2_0_6023)">
<rect x="30.6607" y="57.7642" width="8.38374" height="24.8782" fill="#B044BF"/>
</g>
<path d="M78.8154 282.93C78.8154 282.93 102.77 245.468 105.261 210.781C102.77 214.801 118.137 212.146 118.137 212.146C118.137 212.146 144.303 198.874 141.763 159.711C140.292 137.024 130.783 124.601 102.355 107.297L63.2906 110.834C63.2906 110.834 24.4411 198.43 -9.78464 200.201L78.8154 282.93Z" fill="#719BFB"/>
<path d="M101.651 318.448H153.439C156.111 317.452 155.623 303.204 121.909 305.525C120.219 288.253 119.42 270.904 119.514 253.549C119.912 236.986 119.154 231.649 119.508 225.034C120.526 206.025 126.744 114.825 94.638 117.404C55.0338 120.587 82.0454 221.716 82.8337 230.681C83.6221 239.646 94.1336 302.296 94.1336 302.296C94.5305 306.812 97.3903 318.448 101.651 318.448Z" fill="#FB98A3"/>
<path d="M58.5474 96.2646L63.2892 110.833L102.353 107.297L99.1699 99.039L58.5474 96.2646Z" fill="white"/>
<path d="M58.8485 189.912C59.7612 190.324 76.2794 191.22 94.1336 191.291C113.709 191.368 120.034 189.805 128.935 186.739C128.935 186.739 138.574 111.734 90.3309 114.924C53.2415 117.376 58.8485 189.912 58.8485 189.912Z" fill="#719BFB"/>
<path d="M77.3974 69.6734C73.0412 88.2305 84.3417 99.8912 66.9432 99.8912C49.5446 99.8912 34.3089 88.8265 34.3089 66.7868C34.3542 47.2476 49.1521 30.8997 68.5903 28.9146C89.0646 26.289 82.4165 48.2923 77.3974 69.6734Z" fill="#F3CF57"/>
<path d="M83.2897 75.6522C81.1954 76.9038 78.797 77.5552 76.3573 77.5348C69.9767 77.5348 64.804 73.3191 64.804 68.1186C64.804 62.9182 69.9767 58.7024 76.3573 58.7024C78.518 58.6886 80.6503 59.195 82.5741 60.1789" fill="#FB98A3"/>
<path d="M35.1185 51.4361C35.5748 50.7085 36.0799 50.0122 36.587 49.3252C37.9029 47.5471 39.3127 45.8405 40.8103 44.2126C42.886 41.9399 45.1383 39.835 47.5459 37.9175C50.2855 35.7146 53.2754 33.8426 56.4536 32.3403C59.84 30.7378 63.4763 29.7283 67.2041 29.3559C67.6642 29.3137 68.1257 29.2797 68.5872 29.2604C68.7781 29.2529 69.4284 29.2498 69.4315 28.9246C69.4346 28.6156 68.7595 28.5631 68.594 28.5696C64.592 28.7379 60.6494 29.5976 56.9405 31.1104C53.5553 32.5109 50.3599 34.332 47.4295 36.5307C44.8315 38.4709 42.4011 40.626 40.1641 42.9734C38.4824 44.7236 36.9029 46.5694 35.4337 48.5014C34.98 49.0987 34.5384 49.7053 34.109 50.3212C33.8883 50.5926 33.6929 50.8836 33.5253 51.1906L33.4999 51.2308C33.2578 51.6171 34.8472 51.867 35.1195 51.433L35.1185 51.4361Z" fill="#F3CF57"/>
<rect x="91.4479" y="44.7192" width="4.53814" height="8.37" rx="2.2689" transform="rotate(-38.1116 91.4479 44.7192)" fill="#0B2658"/>
<path d="M90.1369 36.0999C84.5567 40.0908 85.1098 43.2678 88.7611 41.0007C92.4123 38.7335 93.7827 33.4925 90.1369 36.0999Z" fill="#0B2658"/>
<path d="M100.767 43.007C110.64 42.0642 113.236 50.8891 107.388 52.8205L100.767 43.007Z" fill="#FB98A3"/>
<ellipse opacity="0.27" cx="90.8856" cy="56.2614" rx="6.96808" ry="5.00064" transform="rotate(-27.2786 90.8856 56.2614)" fill="#EB5F76"/>
<path d="M98.4945 57.1923C99.4842 57.7943 100.583 58.1941 101.729 58.3687" stroke="#EB637B" stroke-width="2.57517" stroke-linecap="round" stroke-linejoin="round"/>
</g>
</svg>
