<svg width="136" height="135" viewBox="0 0 136 135" fill="none" xmlns="http://www.w3.org/2000/svg">
<mask id="mask0_0_6921" style="mask-type:alpha" maskUnits="userSpaceOnUse" x="1" y="0" width="134" height="134">
<circle cx="68.1431" cy="67.0967" r="66.7784" fill="white"/>
</mask>
<g mask="url(#mask0_0_6921)">
<path d="M-27.9888 182.148C-27.9888 182.148 -31.7568 190.2 -36.2815 190.211C-40.8063 190.221 -81.6898 145.786 -80.5941 140.928C-79.4985 136.069 -75.2034 123.12 -80.4688 123.87C-85.7342 124.62 -84.1314 136.941 -93.8185 134.966C-103.506 132.992 -116.594 125.524 -127.084 127.362C-137.573 129.2 -125.662 140.513 -97.3884 153.4C-91.3721 155.66 -63.7738 220.426 -41.366 222.092C-18.9582 223.759 7.08678 178.044 7.08678 178.044L-27.9888 182.148Z" fill="#B145C1"/>
<path d="M66.2928 126.27C58.8516 131.513 23.5734 178.231 21.4676 187.406C20.9215 189.39 20.0823 191.281 18.9776 193.017C12.0895 209.46 -4.82972 257.356 25.6387 270.171C42.436 277.236 113.504 265.945 133 248.635C129.523 242.571 124.904 230.884 119.597 208.355C102.868 137.342 73.7337 121.026 66.2928 126.27Z" fill="#AA7DDF"/>
<path d="M137.968 240.178C138.515 228.81 141.667 209.879 144.98 202.898L151.271 213.209C151.271 213.209 156.723 128.098 76.0623 117.323C10.5963 108.577 -18.8757 164.04 -18.8757 164.04C-18.8757 164.04 -3.6774 195.314 8.08359 200.311L21.4669 187.406C22.6203 182.382 33.7206 166.099 44.7503 151.534C53.8623 139.502 62.9259 128.641 66.2921 126.269C73.733 121.026 102.868 137.342 119.597 208.355C124.905 230.883 129.524 242.571 133.001 248.635C135.726 246.598 137.516 243.55 137.968 240.178Z" fill="#AA7DDF"/>
<path d="M57.1324 90.6292C57.223 91.5219 56.218 118.029 56.218 118.029C56.218 118.029 34.0774 143.309 52.2804 144.481C69.9544 145.618 82.9281 120.827 82.9281 120.827L83.0496 82.1995L57.1324 90.6292Z" fill="#B145C1"/>
<mask id="mask1_0_6921" style="mask-type:alpha" maskUnits="userSpaceOnUse" x="45" y="82" width="39" height="63">
<path fill-rule="evenodd" clip-rule="evenodd" d="M57.1324 90.6295C57.223 91.5222 56.218 118.029 56.218 118.029C56.218 118.029 34.0774 143.31 52.2804 144.481C69.9544 145.618 82.9281 120.827 82.9281 120.827L83.0496 82.1997L57.1324 90.6295Z" fill="white"/>
</mask>
<g mask="url(#mask1_0_6921)">
<path d="M45.0984 115.461C59.8096 113.607 80.8607 103.597 80.8607 103.597L51.1525 94.6467L45.0984 115.461Z" fill="#8A2C9E"/>
</g>
<circle cx="67.5865" cy="43.9507" r="8.06201" fill="#B044BF"/>
<path d="M100.716 57.4315C104.067 55.8786 106.227 52.5374 106.267 48.8441C106.032 44.1076 102.592 40.1442 97.9358 39.2446C97.954 38.9496 97.9908 38.6609 97.9901 38.3597C97.9869 33.6755 95.5602 29.3264 91.5756 26.8637C87.591 24.401 82.6157 24.1754 78.4246 26.2674C78.7257 25.4254 78.883 24.5387 78.8898 23.6445C78.8975 20.7532 77.3563 18.0791 74.8507 16.6364C72.345 15.1937 69.2587 15.2032 66.762 16.6614C64.2653 18.1196 62.7406 20.8031 62.7662 23.6943C62.7792 24.4414 62.897 25.183 63.1164 25.8973C63.0213 25.8955 62.9337 25.866 62.8383 25.8667C58.83 25.8747 55.0319 27.6606 52.4689 30.7424C49.8868 27.6993 45.4669 27.0033 42.0745 29.1055C38.6821 31.2078 37.3383 35.4756 38.9142 39.1422C36.29 42.303 35.241 46.4834 36.062 50.5087C36.8829 54.534 39.4851 57.9697 43.1375 59.8504C40.4557 61.8726 39.3082 65.3453 40.2572 68.5672C41.2062 71.7891 44.0529 74.0854 47.4027 74.331C50.7525 74.5766 53.9037 72.7202 55.3125 69.6711C56.7213 66.6221 56.0926 63.0192 53.7345 60.6274C56.397 59.7139 58.71 57.9961 60.3541 55.7113C64.3782 54.8288 68.3804 53.8276 72.615 53.2212C79.9209 52.1761 84.8749 56.8608 88.5962 60.0674C86.6343 63.847 87.9514 68.5007 91.6031 70.6915C95.2547 72.8824 99.9806 71.8544 102.392 68.3447C104.804 64.8349 104.069 60.0547 100.714 57.4315H100.716Z" fill="#FAD257"/>
<path d="M91.1827 66.8518L91.1679 62.0792C87.2028 59.5527 81.7414 51.9158 72.6164 53.2206C64.6127 54.3663 57.44 56.9288 49.378 57.4167L49.4089 67.3033C46.3634 68.8826 44.456 72.0314 44.4666 75.4619C44.4772 78.8925 46.4042 82.0294 49.4594 83.5898L49.4683 86.4805C49.4914 93.9428 53.4939 100.826 59.968 104.537C66.4422 108.248 74.4044 108.224 80.8554 104.472C87.3065 100.721 91.2662 93.8134 91.2431 86.351L91.2352 83.7827C94.7764 82.4634 97.1205 79.0774 97.1087 75.2984C97.097 71.5195 94.732 68.1481 91.1827 66.8508V66.8518Z" fill="#B145C1"/>
<mask id="mask2_0_6921" style="mask-type:alpha" maskUnits="userSpaceOnUse" x="44" y="53" width="54" height="55">
<path fill-rule="evenodd" clip-rule="evenodd" d="M91.1827 66.8518L91.168 62.0792C87.2029 59.5527 81.7415 51.9158 72.6164 53.2206C64.6128 54.3663 57.4401 56.9288 49.378 57.4167L49.409 67.3033C46.3635 68.8826 44.456 72.0314 44.4667 75.4619C44.4773 78.8925 46.4043 82.0294 49.4594 83.5898L49.4684 86.4805C49.4915 93.9428 53.494 100.826 59.9681 104.537C66.4423 108.248 74.4045 108.224 80.8555 104.472C87.3065 100.721 91.2663 93.8134 91.2432 86.351L91.2353 83.7827C94.7764 82.4634 97.1205 79.0774 97.1088 75.2984C97.0971 71.5195 94.732 68.1481 91.1827 66.8508V66.8518Z" fill="white"/>
</mask>
<g mask="url(#mask2_0_6921)">
<ellipse opacity="0.27" cx="53.8026" cy="86.6411" rx="5.55997" ry="7.30148" transform="rotate(-89.9182 53.8026 86.6411)" fill="#8A2C9E"/>
<ellipse opacity="0.27" cx="88.2833" cy="86.69" rx="5.55997" ry="7.30148" transform="rotate(-89.9182 88.2833 86.69)" fill="#8A2C9E"/>
<rect x="59.6066" y="69.6006" width="5.19189" height="9.57587" rx="2.59577" transform="rotate(4.1962 59.6066 69.6006)" fill="#0B2658"/>
<path d="M81.54 69.7468C82.9698 69.8516 84.0438 71.0957 83.9389 72.5255L83.6182 76.898C83.5134 78.3278 82.2693 79.4018 80.8395 79.297C79.4098 79.1921 78.3357 77.948 78.4406 76.5183L78.7614 72.1443C78.8672 70.7153 80.1108 69.6421 81.54 69.7468Z" fill="#0B2658"/>
<path d="M61.997 63.6416C56.6005 64.7953 57.8445 67.7818 61.265 67.2812C64.6855 66.7806 65.523 62.8883 61.997 63.6416Z" fill="#0B2658"/>
<path d="M81.8461 63.4309C87.0167 65.3595 85.7666 67.9409 82.4559 66.9458C79.1453 65.9508 78.4682 62.1708 81.8461 63.4309Z" fill="#0B2658"/>
<path d="M72.8993 79.8054C72.9697 81.5593 71.44 80.924 69.5879 80.9979C67.7359 81.0717 66.2619 81.8274 66.1915 80.0736C66.2163 78.2876 67.6336 76.8329 69.4183 76.7615C71.2031 76.6902 72.732 78.0271 72.8993 79.8054Z" fill="#8A2C9E"/>
<path d="M47.7718 83.4811C53.5573 86.5335 70.652 81.5864 70.652 81.5864C70.652 81.5864 84.4955 85.6658 91.2352 83.7839C97.975 81.902 92.3182 94.1117 92.3182 94.1117L86.7139 106.742L44.4666 107.69L40.6111 89.9015" fill="#F3CF57"/>
</g>
<path fill-rule="evenodd" clip-rule="evenodd" d="M50.7004 66.9393C52.2687 63.1199 55.9833 60.6213 60.1121 60.6087C65.7467 60.5982 70.3269 65.1501 70.3513 70.7847C70.3642 74.9135 67.8887 78.6435 64.0791 80.2354C60.2695 81.8273 55.8761 80.9675 52.9476 78.0571C50.0191 75.1466 49.1321 70.7586 50.7004 66.9393ZM52.0539 70.8414C52.0677 75.3093 55.7009 78.92 60.1687 78.9061C64.6343 78.8868 68.2418 75.2569 68.2335 70.7913C68.2196 66.3234 64.5865 62.7127 60.1186 62.7266C55.6508 62.7404 52.0401 66.3736 52.0539 70.8414Z" fill="#0B2658"/>
<path fill-rule="evenodd" clip-rule="evenodd" d="M70.6532 70.7839C70.6356 65.1465 75.1914 60.5621 80.8288 60.5445C86.4636 60.5338 91.044 65.0858 91.0684 70.7205C91.0858 76.358 86.5299 80.9422 80.8925 80.9597C75.255 80.9772 70.6708 76.4213 70.6532 70.7839ZM72.7706 70.7772C72.7845 75.2451 76.4176 78.8558 80.8854 78.8419H80.8868C85.3519 78.8219 88.9586 75.1922 88.9502 70.7271C88.9363 66.2592 85.3032 62.6485 80.8353 62.6624C76.3675 62.6762 72.7568 66.3094 72.7706 70.7772Z" fill="#0B2658"/>
<path d="M-41.1088 459.841C-1.66019 490.728 66.2365 469.584 66.2365 469.584C66.2365 469.584 88.5828 234.356 62.7662 170.371L52.0535 116.943C52.0535 116.943 33.6152 118.811 24.2471 123.383C-18.5252 285.499 -27.0411 395.475 -41.1088 459.841Z" fill="#F3CF57"/>
<path d="M40.2228 479.936C58.1872 493.45 142.065 471.865 142.065 471.865C142.065 471.865 119.598 208.355 123.881 134.57C110.553 127.816 96.8888 121.748 82.9422 116.387L59.5252 166.231C59.5252 166.231 59.5877 362.821 40.2228 479.936Z" fill="#F3CF57"/>
<path d="M55.4307 125.487L50.4967 135.98L57.6214 170.226L78.3876 173.557L89.7733 136.979L86.041 124.539L72.3513 126.52L64.643 126.122L58.5793 126.373" fill="#AA7DDF"/>
<path d="M66.837 133.288L59.2969 168.238L67.4207 200.339L73.347 193.015L79.2219 168.145L73.1238 131.245L66.837 133.288Z" fill="#B044BF"/>
<path d="M60.2291 125.609L64.4445 133.354C65.4108 135.213 67.3087 136.401 69.4026 136.46L71.0528 136.481C73.1188 136.48 75.0244 135.367 76.0417 133.569L79.9677 126.917L69.5427 125.846L60.2291 125.609Z" fill="#B044BF"/>
<path d="M48.2648 117.426C48.2648 117.426 54.5709 109.721 56.3392 109.766C58.4991 116.63 63.2304 122.392 69.5426 125.846L60.7132 137.912C60.7132 137.912 44.8014 125.159 48.2648 117.426Z" fill="#AA7DDF"/>
<path d="M91.1638 118.517C91.1638 118.517 85.2011 110.5 83.4328 110.455C80.9795 117.196 75.9971 122.717 69.542 125.846L77.8347 138.347C77.8347 138.347 94.2863 126.417 91.1638 118.517Z" fill="#AA7DDF"/>
<path d="M51.6092 112.94C51.6092 112.94 65.0344 191.994 69.6529 200.338L61.696 210.313L38.002 160.587L48.6309 152.325L35.1713 148.022L44.2703 119.305C46.4512 116.895 48.9154 114.758 51.6092 112.94V112.94Z" fill="#F3CF57"/>
<path d="M88.6096 112.662L61.6973 210.313L101.08 164.425L90.9801 152.792L104.58 150.701L96.0038 121.027C95.4719 116.993 92.5474 113.685 88.6096 112.662Z" fill="#F3CF57"/>
<path d="M39.1182 184.313C22.6745 204.902 -21.7081 258.539 -35.4619 255.497C-56.3174 250.884 -95.9019 189.007 -95.9019 189.007C-90.992 175.059 -80.2356 163.952 -66.4529 158.596C-66.4529 158.596 -42.7215 180.872 -40.639 183.068C-32.3703 191.789 -16.3445 134.06 25.3541 122.873" fill="#F3CF57"/>
</g>
</svg>
