<svg width="134" height="135" viewBox="0 0 134 135" fill="none" xmlns="http://www.w3.org/2000/svg">
<mask id="mask0_0_6617" style="mask-type:alpha" maskUnits="userSpaceOnUse" x="0" y="0" width="134" height="134">
<circle cx="66.9025" cy="67.0967" r="66.7784" fill="white"/>
</mask>
<g mask="url(#mask0_0_6617)">
<path d="M-53.0838 126.136H-59.1382L-26.4013 222.542C-24.9199 226.904 -21.6714 230.442 -17.451 232.289C-13.2305 234.136 -8.42756 234.123 -4.21769 232.251C0.0428734 230.358 3.29549 226.739 4.72634 222.302C6.15719 217.864 5.6309 213.027 3.27916 209.001L-40.8174 133.509L-53.0838 126.136Z" fill="#B145C1"/>
<path d="M-55.3023 181.606C-50.6039 166.277 -42.616 152.159 -31.8964 140.237L0.326935 185.981C-34.098 194.849 15.1132 127.151 19.5092 125.393C23.9052 123.634 27.6032 129.023 38.3283 196.903C38.6514 198.948 26.501 263.83 -3.439 260.547C-20.2302 258.706 -55.3023 181.606 -55.3023 181.606Z" fill="#F3CF57"/>
<path d="M41.1147 117.223C69.4222 104.297 101.947 104.297 130.254 117.223C140.855 144.687 109.712 209.597 119.654 232.382C119.654 232.382 62.6091 257.252 34.6626 238.459C25.9895 229.786 45.6617 205.411 30.9959 181.788C14.8269 155.744 41.1147 117.223 41.1147 117.223Z" fill="#B044BF"/>
<mask id="mask1_0_6617" style="mask-type:alpha" maskUnits="userSpaceOnUse" x="25" y="107" width="108" height="139">
<path fill-rule="evenodd" clip-rule="evenodd" d="M41.1146 117.223C69.4222 104.297 101.947 104.297 130.254 117.223C140.855 144.687 109.712 209.597 119.654 232.382C119.654 232.382 62.609 257.252 34.6626 238.459C25.9894 229.786 45.6617 205.411 30.9959 181.788C14.8269 155.744 41.1146 117.223 41.1146 117.223Z" fill="white"/>
</mask>
<g mask="url(#mask1_0_6617)">
<path d="M51.1592 111.112C41.115 150.605 86.4219 130.097 104.59 107.586C122.757 85.0751 103.089 89.7039 103.089 89.7039L49.5056 104.967" fill="#B145C1"/>
</g>
<path d="M102.836 54.8223C103.782 52.8965 104.412 50.831 104.702 48.7051C106.709 33.3773 94.6109 20.9519 77.6797 20.9519C71.8256 20.9807 66.0665 22.4346 60.9002 25.1879C58.0958 23.2934 54.7788 22.3025 51.3947 22.3483C42.0306 22.2063 33.9055 28.7829 32.0933 37.9711C31.1923 45.1308 36.0338 51.75 43.1301 53.0602C42.5986 61.6386 48.3554 69.3408 56.7332 71.2602C56.4338 71.7779 56.1615 72.2957 55.8927 72.8149C54.155 72.3591 52.3714 72.1011 50.5758 72.0458C50.1106 72.0135 49.6742 71.9184 49.1959 71.9184C47.5871 71.9396 45.986 72.1435 44.4232 72.5261C33.6363 74.7747 24.1751 81.195 18.1008 90.3882C8.43156 104.872 10.8639 120.884 23.5338 126.152C36.2036 131.421 54.3129 123.95 63.9811 109.465C64.7853 108.246 65.521 106.984 66.1848 105.683C78.6232 109.006 94.9646 101.61 103.977 88.11C112.431 75.4494 111.634 61.6214 102.836 54.8223Z" fill="white"/>
<path d="M90.9964 115.221L87.9275 67.5017L61.5629 82.5603C62.2122 84.2201 55.3873 113.638 51.6378 124.525" fill="#B145C1"/>
<path d="M91.4871 63.5162C65.8178 65.9616 62.8543 35.8616 62.8543 35.8616C59.2336 44.5552 50.9873 50.4359 41.5885 51.0269C33.6913 93.0775 54.9323 95.3 72.3769 84.9028" fill="#B145C1"/>
<mask id="mask2_0_6617" style="mask-type:alpha" maskUnits="userSpaceOnUse" x="39" y="35" width="53" height="56">
<path fill-rule="evenodd" clip-rule="evenodd" d="M91.4871 63.5162C65.8178 65.9616 62.8543 35.8616 62.8543 35.8616C59.2336 44.5552 50.9873 50.4359 41.5885 51.0269C33.6913 93.0775 54.9323 95.3 72.3769 84.9028" fill="white"/>
</mask>
<g mask="url(#mask2_0_6617)">
<ellipse opacity="0.27" cx="39.8884" cy="71.9668" rx="8.3985" ry="6.22574" transform="rotate(-19.6091 39.8884 71.9668)" fill="#8A2C9E"/>
<ellipse opacity="0.27" cx="68.035" cy="69.9801" rx="6.13544" ry="4.5481" transform="rotate(-19.6091 68.035 69.9801)" fill="#8A2C9E"/>
<rect x="45.6495" y="56.6304" width="4.40561" height="8.12553" rx="2.20263" transform="rotate(3.7419 45.6495 56.6304)" fill="#0B2658"/>
<rect x="62.0632" y="56.4639" width="4.40561" height="8.12553" rx="2.20263" transform="rotate(3.7419 62.0632 56.4639)" fill="#0B2658"/>
<path d="M47.638 51.5575C43.0669 52.5725 44.1423 55.0982 47.0413 54.6501C49.9402 54.202 50.6249 50.8945 47.638 51.5575Z" fill="#0B2658"/>
<path d="M64.4789 51.2461C68.8794 52.8479 67.8359 55.0468 65.0201 54.2248C62.2042 53.4028 61.6044 50.1986 64.4789 51.2461Z" fill="#0B2658"/>
<path d="M56.9962 65.1995C57.0673 66.6873 55.7653 66.1585 54.1941 66.2337C52.6229 66.3089 51.3785 66.9599 51.3061 65.4722C51.3167 63.9575 52.5092 62.7152 54.0221 62.6427C55.5351 62.5702 56.8409 63.6928 56.9962 65.1995Z" fill="#8A2C9E"/>
<path d="M48.3731 73.5075C50.6595 84.1859 60.6584 79.4321 60.6636 72.7597C60.6577 72.4144 60.4371 72.1095 60.1111 71.9957C56.4262 70.8914 52.4739 71.0865 48.9156 72.5482C48.5213 72.6885 48.2901 73.0973 48.3731 73.5075Z" fill="#8A2C9E"/>
<mask id="mask3_0_6617" style="mask-type:alpha" maskUnits="userSpaceOnUse" x="48" y="71" width="13" height="9">
<path fill-rule="evenodd" clip-rule="evenodd" d="M48.3731 73.5078C50.6595 84.1862 60.6584 79.4324 60.6636 72.7599C60.6577 72.4147 60.4371 72.1097 60.1111 71.996C56.4262 70.8917 52.4739 71.0867 48.9156 72.5484C48.5213 72.6887 48.2901 73.0976 48.3731 73.5078Z" fill="white"/>
</mask>
<g mask="url(#mask3_0_6617)">
<ellipse opacity="0.29" cx="56.1373" cy="79.2288" rx="5.47389" ry="4.8854" transform="rotate(-20.6841 56.1373 79.2288)" fill="#0B2658"/>
<path d="M50.2101 71.7283C50.1935 72.3579 50.3115 72.9838 50.5562 73.5642C53.0009 74.292 55.6213 74.1586 57.9796 73.1865C58.116 72.3707 58.156 71.5416 58.0987 70.7164L51.0324 71.3022" fill="#F3CF57"/>
</g>
</g>
<path d="M74.0343 81.1938C73.974 77.6318 74.2545 74.0721 74.872 70.5635L86.5321 64.7333L87.3936 62.9602C87.3936 62.9602 74.3058 67.4122 74.1448 67.3778C57.5171 71.1812 54.0066 65.2418 54.0066 65.2418C54.0066 65.2418 41.4583 67.2219 39.2993 62.9602C32.6382 84.899 47.8454 106.644 75.5577 83.3312C75.4942 83.3182 87.3922 76.8668 87.3922 76.8668L74.0343 81.1938Z" fill="#F3CF57"/>
<path d="M85.8725 63.5021C112.356 53.5657 97.7327 83.4288 81.1575 76.3968L85.8725 63.5021Z" fill="#B145C1"/>
<path d="M86.3838 532.735C123.658 543.551 166.555 503.417 166.555 503.417C166.555 503.417 135.163 179.903 133.996 117.222C123.542 111.393 111.341 107.222 91.2385 107.585L78.9463 158.447C78.9463 158.447 60.3556 434.768 86.3838 532.735Z" fill="#F3CF57"/>
<path d="M19.5278 151.538C18.6189 281.601 3.09304 359.127 7.84407 514.562C28.5001 521.808 49.6737 527.485 71.1844 531.544C71.1844 531.544 44.9788 122.046 55.8247 111.393C55.8247 111.393 31.2009 113.193 19.5093 125.393" fill="#F3CF57"/>
<path d="M75.1378 210.658C75.1378 210.658 73.4863 127.477 90.1154 105.165L104.113 109.647L90.7791 146.008L95.9384 161.553L75.1378 210.658Z" fill="#936B59"/>
<path d="M55.6915 207.458L40.8825 161.428L48.7536 146.507L40.7603 114.163C45.1128 110.1 50.7948 107.758 56.7466 107.575C56.7466 107.575 51.9544 186.848 55.6915 207.458Z" fill="#936B59"/>
<path d="M120.193 166.629L132.486 192.602L66.8433 185.258C54.5 200.266 64.4714 228.78 64.4714 228.78C64.4714 228.78 152.016 266.185 177.046 251.377C201.464 236.931 152.059 120.995 129.219 114.756" fill="#F3CF57"/>
</g>
</svg>
