<svg width="134" height="136" viewBox="0 0 134 136" fill="none" xmlns="http://www.w3.org/2000/svg">
<mask id="mask0_0_6067" style="mask-type:alpha" maskUnits="userSpaceOnUse" x="0" y="1" width="134" height="134">
<circle cx="66.9025" cy="68.0966" r="66.7784" fill="white"/>
</mask>
<g mask="url(#mask0_0_6067)">
<path d="M43.8237 87.771C49.4953 100.309 43.8237 137.747 43.8237 137.747L53.0532 171.19L69.2122 181.531L85.6511 133.267L82.5238 85.3589L43.8237 87.771Z" fill="#FB98A3"/>
<mask id="mask1_0_6067" style="mask-type:alpha" maskUnits="userSpaceOnUse" x="43" y="85" width="43" height="97">
<path fill-rule="evenodd" clip-rule="evenodd" d="M43.8237 87.771C49.4953 100.309 43.8237 137.747 43.8237 137.747L53.0532 171.19L69.2122 181.531L85.6511 133.267L82.5238 85.3589L43.8237 87.771Z" fill="white"/>
</mask>
<g mask="url(#mask1_0_6067)">
<path d="M19.9883 118.928C58.6787 124.458 84.2066 104.309 85.6511 98.6066C87.0956 92.9038 51.5743 94.5303 51.5743 94.5303L39.3433 95.8312L32.8926 113.072" fill="#EB5F76"/>
</g>
<path d="M4.24885 178.123C-2.89812 329.296 -31.5028 495.414 -16.9754 557.617C52.7946 578.196 70.4366 569.195 70.4366 569.195L62.8014 203.205L38.6566 130.302L3.55389 144.394" fill="#F3CF57"/>
<path d="M126.861 138.086C126.861 138.086 99.49 131.272 96.4743 131.642C93.4586 132.011 62.8017 209.261 62.8017 209.261L54.2988 559.613C88.4037 572.539 143.687 566.282 162.28 557.617C149.104 439.576 129.968 262.843 125.83 181.531" fill="#F3CF57"/>
<path d="M35.2941 130.205C35.2941 130.205 43.8405 118.876 46.3618 118.84C49.8254 128.494 56.8892 136.433 66.0742 140.996L54.1797 158.679C54.1797 158.679 30.7981 141.414 35.2941 130.205Z" fill="#719BFB"/>
<path d="M96.4555 129.337C96.4555 129.337 87.5107 118.256 84.9898 118.292C81.876 128.032 75.0913 136.175 66.0743 140.996L78.5907 158.332C78.5907 158.332 101.348 140.413 96.4555 129.337Z" fill="#719BFB"/>
<path d="M39.9057 124.1C39.9057 124.1 63.3882 235.462 70.4366 247.086L59.6665 261.742L23.1145 192.256L37.7865 179.889L18.3724 174.519L29.7111 133.106C32.7671 129.738 36.1861 126.717 39.9057 124.1Z" fill="#F3CF57"/>
<path d="M91.0263 123.117L59.6666 261.742L113.169 194.163L98.1276 178.165L117.38 174.418L103.49 132.639C103.49 132.639 101.345 126.228 91.0263 123.117Z" fill="#F3CF57"/>
<ellipse cx="93.5651" cy="29.9628" rx="14.5762" ry="16.9968" fill="#F3E7D4"/>
<path d="M64.5988 25.1787C46.7838 25.1787 32.3412 43.5651 32.3412 66.2465C32.3412 88.928 46.7838 107.314 64.5988 107.314C82.4139 107.314 96.8572 88.928 96.8572 66.2465C96.8572 43.5651 82.4146 25.1787 64.5988 25.1787Z" fill="#F3E7D4"/>
<path d="M93.2434 71.5501L93.9177 71.7379L93.2434 71.5501Z" fill="#B044BF"/>
<path d="M93.9177 71.738L99.6768 73.3435L93.9177 71.738Z" fill="#B044BF"/>
<path d="M92.9577 71.47L93.2434 71.55L92.9577 71.47Z" fill="#B044BF"/>
<path d="M92.557 71.3585L92.9577 71.4701L92.557 71.3585Z" fill="#B044BF"/>
<path d="M99.6755 73.3434L100.316 73.5223C100.107 73.4639 99.8945 73.4038 99.6755 73.3434Z" fill="#B044BF"/>
<path d="M71.9975 43.1809C71.9975 43.1809 53.5335 69.1002 37.5176 72.382C37.4146 73.5978 37.359 74.8294 37.359 76.0793C37.359 95.3072 47.8729 110.893 64.9577 110.893C82.2814 110.893 92.557 95.3048 92.557 76.0793C92.5471 74.4683 92.4487 72.8591 92.2621 71.2589C67.8408 64.2606 71.9975 43.1809 71.9975 43.1809Z" fill="#FB98A3"/>
<mask id="mask2_0_6067" style="mask-type:alpha" maskUnits="userSpaceOnUse" x="37" y="43" width="56" height="68">
<path fill-rule="evenodd" clip-rule="evenodd" d="M71.9975 43.1809C71.9975 43.1809 53.5335 69.1002 37.5176 72.382C37.4146 73.5978 37.359 74.8294 37.359 76.0793C37.359 95.3072 47.8729 110.893 64.9577 110.893C82.2814 110.893 92.557 95.3048 92.557 76.0793C92.5471 74.4683 92.4487 72.8591 92.2621 71.2589C67.8408 64.2606 71.9975 43.1809 71.9975 43.1809Z" fill="white"/>
</mask>
<g mask="url(#mask2_0_6067)">
<ellipse opacity="0.27" cx="81.1593" cy="82.5859" rx="6.07775" ry="7.98132" transform="rotate(-88.9534 81.1593 82.5859)" fill="#EB5F76"/>
<ellipse opacity="0.27" cx="49.1072" cy="83.1169" rx="6.07775" ry="7.98132" transform="rotate(-88.9534 49.1072 83.1169)" fill="#EB5F76"/>
<rect x="78.4512" y="76.5637" width="5.67534" height="10.4676" rx="2.8375" transform="rotate(180 78.4512 76.5637)" fill="#0B2658"/>
<rect x="57.3101" y="76.5637" width="5.67534" height="10.4676" rx="2.8375" transform="rotate(-180 57.3101 76.5637)" fill="#0B2658"/>
<path d="M75.6824 59.8516C81.5555 61.2284 80.1316 64.4656 76.4034 63.8445C72.6753 63.2233 71.845 58.9527 75.6824 59.8516Z" fill="#0B2658"/>
<path d="M53.9939 59.194C48.3014 61.1906 49.612 64.0388 53.252 63.0228C56.8919 62.0068 57.7128 57.8896 53.9939 59.194Z" fill="#0B2658"/>
<path d="M62.2459 77.8302C62.1315 79.7455 63.8167 79.0841 65.8394 79.2036C67.8621 79.3231 69.4567 80.1819 69.571 78.2666C69.5878 76.3106 68.069 74.6844 66.1164 74.5677C64.1638 74.451 62.4621 75.8847 62.2459 77.8288V77.8302Z" fill="#EB5F76"/>
<path d="M74.1298 87.3846C72.3258 101.335 58.985 96.2923 58.2715 87.728C58.2417 87.284 58.4928 86.8687 58.8998 86.689C63.5136 84.8807 68.6084 84.7124 73.3315 86.212C73.852 86.3501 74.1921 86.8496 74.1298 87.3846Z" fill="#EB5F76"/>
<mask id="mask3_0_6067" style="mask-type:alpha" maskUnits="userSpaceOnUse" x="58" y="85" width="17" height="12">
<path fill-rule="evenodd" clip-rule="evenodd" d="M74.1298 87.3848C72.3258 101.335 58.985 96.2925 58.2715 87.7282C58.2417 87.2842 58.4928 86.869 58.8998 86.6892C63.5136 84.881 68.6084 84.7126 73.3315 86.2123C73.852 86.3503 74.1921 86.8499 74.1298 87.3848Z" fill="white"/>
</mask>
<g mask="url(#mask3_0_6067)">
<ellipse opacity="0.29" cx="64.6787" cy="95.551" rx="6.29407" ry="7.05186" transform="rotate(-74.033 64.6787 95.551)" fill="#0B2658"/>
<path d="M71.5824 85.2944C71.6704 86.101 71.5853 86.917 71.3328 87.688C69.9096 89.1301 62.763 88.7524 61.7621 87.9894C61.5008 86.9563 61.3617 85.8961 61.3477 84.8306L70.4809 84.834" fill="#F3CF57"/>
</g>
<path d="M43.6758 77.0372C45.9323 82.2353 37.9472 95.0085 37.9472 95.0085L45.4808 114.097L80.1406 112.834L94.4664 103.807L94.0026 93.278C87.9034 90.0886 85.2927 82.7377 88.0141 76.4158C88.0141 76.4158 72.7285 81.4974 65.8394 79.2049C58.4482 81.3646 50.5085 80.5881 43.6758 77.0372Z" fill="#F3CF57"/>
</g>
<path d="M40.2439 89.1056C36.8852 90.1401 32.3086 86.5589 30.0218 81.1054C27.7351 75.6518 28.6041 70.3926 31.9628 69.3591C34.8611 68.4664 38.6665 71.0107 41.125 75.2305" fill="#FB98A3"/>
<path d="M89.3618 88.6725C92.6085 90.0178 97.4993 86.8816 100.289 81.6681C103.079 76.4545 102.706 71.137 99.4588 69.7917C96.1755 69.1546 92.8293 70.5409 90.9584 73.3132" fill="#FB98A3"/>
<path fill-rule="evenodd" clip-rule="evenodd" d="M40.223 69.3326C39.7168 75.6875 44.3186 81.3083 50.6483 82.0667C57.5619 82.4462 63.4906 77.1854 63.9362 70.2758C63.9363 63.9008 58.9028 58.663 52.5328 58.4097C46.1628 58.1563 40.7293 62.9777 40.223 69.3326ZM41.1762 70.9045C40.8365 65.2752 45.0318 60.3949 50.6483 59.8858C56.6515 59.6334 61.7325 64.2746 62.023 70.2761C62.023 75.9157 57.5414 80.5344 51.9044 80.7043C46.2675 80.8742 41.5158 76.5338 41.1762 70.9045Z" fill="#0B2658"/>
<path fill-rule="evenodd" clip-rule="evenodd" d="M70.7516 69.3326C70.2453 75.6875 74.8471 81.3083 81.1768 82.0667C88.0904 82.4462 94.0191 77.1854 94.4647 70.2758C94.4648 63.9008 89.4313 58.663 83.0613 58.4097C76.6914 58.1563 71.2578 62.9777 70.7516 69.3326ZM71.7047 70.9045C71.365 65.2752 75.5603 60.3949 81.1768 59.8858C87.18 59.6334 92.261 64.2746 92.5515 70.2761C92.5515 75.9157 88.0699 80.5344 82.4329 80.7043C76.796 80.8742 72.0443 76.5338 71.7047 70.9045Z" fill="#0B2658"/>
</g>
</svg>
